999
"DXF R12 Output" (www.mydxf.blogspot.com)
 0 
SECTION
 2 
HEADER
 9 
$ACADVER
 1 
AC1009
 9 
$EXTMIN
 10 
 0 
 20 
 0 
 9 
$EXTMAX
 10 
 8.5 
 20 
 11 
 0 
ENDSEC
 0 
SECTION
 2 
ENTITIES
0
LINE
8
Layer 1
10
0.846666
20
750.881000
11
-0.846666
21
749.187000
0
LINE
8
Layer 1
10
0.000000
20
751.445000
11
0.000000
21
748.623000
0
LINE
8
Layer 1
10
2.257780
20
748.905000
11
1.128890
21
747.776110
0
LINE
8
Layer 1
10
1.693330
20
749.470000
11
0.564440
21
748.341110
0
LINE
8
Layer 1
10
1.128890
20
750.034000
11
0.000000
21
748.905110
0
LINE
8
0
10
113.453000
20
433.234000
11
116.840000
21
433.234000
0
LINE
8
0
10
-6.773330
20
419.688000
11
0.000000
21
419.688000
0
LINE
8
0
10
0.000000
20
419.688000
11
0.000000
21
406.141000
0
LINE
8
0
10
0.000000
20
406.141000
11
27.093300
21
406.141000
0
LINE
8
0
10
27.093300
20
406.141000
11
27.093300
21
419.688000
0
LINE
8
0
10
116.840000
20
433.234000
11
116.840000
21
428.154000
0
LINE
8
0
10
235.373000
20
514.514000
11
238.760000
21
514.514000
0
LINE
8
0
10
116.840000
20
428.154000
11
121.920000
21
428.154000
0
LINE
8
0
10
121.920000
20
428.154000
11
121.920000
21
424.768000
0
LINE
8
0
10
-8.466660
20
433.234000
11
-8.466660
21
424.768000
0
LINE
8
0
10
121.920000
20
424.768000
11
108.373000
21
424.768000
0
LINE
8
0
10
81.279900
20
424.768000
11
67.733300
21
424.768000
0
LINE
8
0
10
27.093300
20
419.688000
11
33.866600
21
419.688000
0
LINE
8
0
10
72.813300
20
514.514000
11
76.199900
21
514.514000
0
LINE
8
0
10
33.866600
20
419.688000
11
33.866600
21
351.954000
0
LINE
8
0
10
76.199900
20
514.514000
11
76.199900
21
509.434000
0
LINE
8
0
10
76.199900
20
509.434000
11
81.279900
21
509.434000
0
LINE
8
0
10
81.279900
20
509.434000
11
81.279900
21
506.047000
0
LINE
8
0
10
81.279900
20
506.047000
11
76.199900
21
506.047000
0
LINE
8
0
10
76.199900
20
506.047000
11
76.199900
21
500.967000
0
LINE
8
0
10
76.199900
20
500.967000
11
72.813300
21
500.967000
0
LINE
8
0
10
72.813300
20
500.967000
11
72.813300
21
506.047000
0
LINE
8
0
10
72.813300
20
506.047000
11
67.733300
21
506.047000
0
LINE
8
0
10
67.733300
20
506.047000
11
67.733300
21
509.434000
0
LINE
8
0
10
67.733300
20
509.434000
11
72.813300
21
509.434000
0
LINE
8
0
10
72.813300
20
509.434000
11
72.813300
21
514.514000
0
LINE
8
0
10
72.813300
20
555.154000
11
76.199900
21
555.154000
0
LINE
8
0
10
40.640000
20
424.768000
11
27.093300
21
424.768000
0
LINE
8
0
10
76.199900
20
555.154000
11
76.199900
21
550.074000
0
LINE
8
0
10
76.199900
20
550.074000
11
81.279900
21
550.074000
0
LINE
8
0
10
81.279900
20
550.074000
11
81.279900
21
546.687000
0
LINE
8
0
10
81.279900
20
546.687000
11
76.199900
21
546.687000
0
LINE
8
0
10
76.199900
20
546.687000
11
76.199900
21
541.607000
0
LINE
8
0
10
76.199900
20
541.607000
11
72.813300
21
541.607000
0
LINE
8
0
10
72.813300
20
541.607000
11
72.813300
21
546.687000
0
LINE
8
0
10
72.813300
20
546.687000
11
67.733300
21
546.687000
0
LINE
8
0
10
67.733300
20
546.687000
11
67.733300
21
550.074000
0
LINE
8
0
10
67.733300
20
550.074000
11
72.813300
21
550.074000
0
LINE
8
0
10
72.813300
20
550.074000
11
72.813300
21
555.154000
0
LINE
8
0
10
72.813300
20
595.794000
11
76.199900
21
595.794000
0
LINE
8
0
10
76.199900
20
595.794000
11
76.199900
21
590.714000
0
LINE
8
0
10
108.373000
20
424.768000
11
108.373000
21
428.154000
0
LINE
8
0
10
76.199900
20
590.714000
11
81.279900
21
590.714000
0
LINE
8
0
10
81.279900
20
590.714000
11
81.279900
21
587.327000
0
LINE
8
0
10
81.279900
20
587.327000
11
76.199900
21
587.327000
0
LINE
8
0
10
76.199900
20
587.327000
11
76.199900
21
582.247000
0
LINE
8
0
10
76.199900
20
582.247000
11
72.813300
21
582.247000
0
LINE
8
0
10
72.813300
20
582.247000
11
72.813300
21
587.327000
0
LINE
8
0
10
72.813300
20
587.327000
11
67.733300
21
587.327000
0
LINE
8
0
10
67.733300
20
587.327000
11
67.733300
21
590.714000
0
LINE
8
0
10
67.733300
20
590.714000
11
72.813300
21
590.714000
0
LINE
8
0
10
72.813300
20
590.714000
11
72.813300
21
595.794000
0
LINE
8
0
10
72.813300
20
636.434000
11
76.199900
21
636.434000
0
LINE
8
0
10
76.199900
20
636.434000
11
76.199900
21
631.354000
0
LINE
8
0
10
108.373000
20
428.154000
11
113.453000
21
428.154000
0
LINE
8
0
10
113.453000
20
428.154000
11
113.453000
21
433.234000
0
LINE
8
0
10
113.453000
20
473.874000
11
116.840000
21
473.874000
0
LINE
8
0
10
116.840000
20
473.874000
11
116.840000
21
468.794000
0
LINE
8
0
10
116.840000
20
468.794000
11
121.920000
21
468.794000
0
LINE
8
0
10
121.920000
20
468.794000
11
121.920000
21
465.407000
0
LINE
8
0
10
121.920000
20
465.407000
11
116.840000
21
465.407000
0
LINE
8
0
10
116.840000
20
465.407000
11
116.840000
21
460.327000
0
LINE
8
0
10
76.199900
20
631.354000
11
81.279900
21
631.354000
0
LINE
8
0
10
116.840000
20
460.327000
11
113.453000
21
460.327000
0
LINE
8
0
10
113.453000
20
460.327000
11
113.453000
21
465.407000
0
LINE
8
0
10
113.453000
20
465.407000
11
108.373000
21
465.407000
0
LINE
8
0
10
81.279900
20
631.354000
11
81.279900
21
627.967000
0
LINE
8
0
10
108.373000
20
465.407000
11
108.373000
21
468.794000
0
LINE
8
0
10
108.373000
20
468.794000
11
113.453000
21
468.794000
0
LINE
8
0
10
113.453000
20
468.794000
11
113.453000
21
473.874000
0
LINE
8
0
10
81.279900
20
627.967000
11
76.199900
21
627.967000
0
LINE
8
0
10
76.199900
20
627.967000
11
76.199900
21
622.887000
0
LINE
8
0
10
76.199900
20
622.887000
11
72.813300
21
622.887000
0
LINE
8
0
10
72.813300
20
622.887000
11
72.813300
21
627.967000
0
LINE
8
0
10
72.813300
20
627.967000
11
67.733300
21
627.967000
0
LINE
8
0
10
67.733300
20
627.967000
11
67.733300
21
631.354000
0
LINE
8
0
10
67.733300
20
631.354000
11
72.813300
21
631.354000
0
LINE
8
0
10
72.813300
20
631.354000
11
72.813300
21
636.434000
0
LINE
8
0
10
72.813300
20
677.074000
11
76.199900
21
677.074000
0
LINE
8
0
10
76.199900
20
677.074000
11
76.199900
21
671.994000
0
LINE
8
0
10
76.199900
20
671.994000
11
81.279900
21
671.994000
0
LINE
8
0
10
81.279900
20
671.994000
11
81.279900
21
668.607000
0
LINE
8
0
10
81.279900
20
668.607000
11
76.199900
21
668.607000
0
LINE
8
0
10
76.199900
20
668.607000
11
76.199900
21
663.527000
0
LINE
8
0
10
76.199900
20
663.527000
11
72.813300
21
663.527000
0
LINE
8
0
10
72.813300
20
663.527000
11
72.813300
21
668.607000
0
LINE
8
0
10
72.813300
20
668.607000
11
67.733300
21
668.607000
0
LINE
8
0
10
67.733300
20
668.607000
11
67.733300
21
671.994000
0
LINE
8
0
10
67.733300
20
671.994000
11
72.813300
21
671.994000
0
LINE
8
0
10
72.813300
20
671.994000
11
72.813300
21
677.074000
0
LINE
8
0
10
72.813300
20
717.714000
11
76.199900
21
717.714000
0
LINE
8
0
10
76.199900
20
717.714000
11
76.199900
21
712.634000
0
LINE
8
0
10
76.199900
20
712.634000
11
81.279900
21
712.634000
0
LINE
8
0
10
81.279900
20
712.634000
11
81.279900
21
709.247000
0
LINE
8
0
10
81.279900
20
709.247000
11
76.199900
21
709.247000
0
LINE
8
0
10
76.199900
20
709.247000
11
76.199900
21
704.167000
0
LINE
8
0
10
76.199900
20
704.167000
11
72.813300
21
704.167000
0
LINE
8
0
10
72.813300
20
704.167000
11
72.813300
21
709.247000
0
LINE
8
0
10
72.813300
20
709.247000
11
67.733300
21
709.247000
0
LINE
8
0
10
67.733300
20
709.247000
11
67.733300
21
712.634000
0
LINE
8
0
10
33.866600
20
351.954000
11
-6.773330
21
351.954000
0
LINE
8
0
10
67.733300
20
712.634000
11
72.813300
21
712.634000
0
LINE
8
0
10
72.813300
20
712.634000
11
72.813300
21
717.714000
0
LINE
8
0
10
438.573000
20
433.234000
11
441.960000
21
433.234000
0
LINE
8
0
10
441.960000
20
433.234000
11
441.960000
21
428.154000
0
LINE
8
0
10
441.960000
20
428.154000
11
447.040000
21
428.154000
0
LINE
8
0
10
447.040000
20
428.154000
11
447.040000
21
424.768000
0
LINE
8
0
10
568.960000
20
424.768000
11
555.413000
21
424.768000
0
LINE
8
0
10
528.320000
20
424.768000
11
514.773000
21
424.768000
0
LINE
8
0
10
487.680000
20
424.768000
11
474.133000
21
424.768000
0
LINE
8
0
10
447.040000
20
424.768000
11
433.493000
21
424.768000
0
LINE
8
0
10
433.493000
20
424.768000
11
433.493000
21
428.154000
0
LINE
8
0
10
433.493000
20
428.154000
11
438.573000
21
428.154000
0
LINE
8
0
10
438.573000
20
428.154000
11
438.573000
21
433.234000
0
LINE
8
0
10
438.573000
20
473.874000
11
441.960000
21
473.874000
0
LINE
8
0
10
441.960000
20
473.874000
11
441.960000
21
468.794000
0
LINE
8
0
10
441.960000
20
468.794000
11
447.040000
21
468.794000
0
LINE
8
0
10
447.040000
20
468.794000
11
447.040000
21
465.407000
0
LINE
8
0
10
447.040000
20
465.407000
11
441.960000
21
465.407000
0
LINE
8
0
10
441.960000
20
465.407000
11
441.960000
21
460.327000
0
LINE
8
0
10
441.960000
20
460.327000
11
438.573000
21
460.327000
0
LINE
8
0
10
438.573000
20
460.327000
11
438.573000
21
465.407000
0
LINE
8
0
10
438.573000
20
465.407000
11
433.493000
21
465.407000
0
LINE
8
0
10
433.493000
20
465.407000
11
433.493000
21
468.794000
0
LINE
8
0
10
433.493000
20
468.794000
11
438.573000
21
468.794000
0
LINE
8
0
10
438.573000
20
468.794000
11
438.573000
21
473.874000
0
LINE
8
0
10
72.813300
20
744.807000
11
76.199900
21
744.807000
0
LINE
8
0
10
72.813300
20
758.354000
11
76.199900
21
758.354000
0
LINE
8
0
10
76.199900
20
758.354000
11
76.199900
21
753.274000
0
LINE
8
0
10
76.199900
20
753.274000
11
81.279900
21
753.274000
0
LINE
8
0
10
81.279900
20
753.274000
11
81.279900
21
749.887000
0
LINE
8
0
10
81.279900
20
749.887000
11
76.199900
21
749.887000
0
LINE
8
0
10
76.199900
20
749.887000
11
76.199900
21
744.807000
0
LINE
8
0
10
72.813300
20
744.807000
11
72.813300
21
749.887000
0
LINE
8
0
10
72.813300
20
749.887000
11
67.733300
21
749.887000
0
LINE
8
0
10
67.733300
20
749.887000
11
67.733300
21
753.274000
0
LINE
8
0
10
67.733300
20
753.274000
11
72.813300
21
753.274000
0
LINE
8
0
10
72.813300
20
753.274000
11
72.813300
21
758.354000
0
LINE
8
0
10
72.813300
20
798.994000
11
76.199900
21
798.994000
0
LINE
8
0
10
76.199900
20
798.994000
11
76.199900
21
793.914000
0
LINE
8
0
10
76.199900
20
793.914000
11
81.279900
21
793.914000
0
LINE
8
0
10
81.279900
20
793.914000
11
81.279900
21
790.527000
0
LINE
8
0
10
81.279900
20
790.527000
11
76.199900
21
790.527000
0
LINE
8
0
10
76.199900
20
790.527000
11
76.199900
21
785.447000
0
LINE
8
0
10
76.199900
20
785.447000
11
72.813300
21
785.447000
0
LINE
8
0
10
72.813300
20
785.447000
11
72.813300
21
790.527000
0
LINE
8
0
10
72.813300
20
790.527000
11
67.733300
21
790.527000
0
LINE
8
0
10
67.733300
20
790.527000
11
67.733300
21
793.914000
0
LINE
8
0
10
67.733300
20
793.914000
11
72.813300
21
793.914000
0
LINE
8
0
10
72.813300
20
793.914000
11
72.813300
21
798.994000
0
LINE
8
0
10
72.813300
20
839.634000
11
76.199900
21
839.634000
0
LINE
8
0
10
76.199900
20
839.634000
11
76.199900
21
834.554000
0
LINE
8
0
10
76.199900
20
834.554000
11
81.279900
21
834.554000
0
LINE
8
0
10
81.279900
20
834.554000
11
81.279900
21
831.167000
0
LINE
8
0
10
81.279900
20
831.167000
11
76.199900
21
831.167000
0
LINE
8
0
10
76.199900
20
831.167000
11
76.199900
21
826.087000
0
LINE
8
0
10
76.199900
20
826.087000
11
72.813300
21
826.087000
0
LINE
8
0
10
72.813300
20
826.087000
11
72.813300
21
831.167000
0
LINE
8
0
10
72.813300
20
831.167000
11
67.733300
21
831.167000
0
LINE
8
0
10
67.733300
20
831.167000
11
67.733300
21
834.554000
0
LINE
8
0
10
67.733300
20
834.554000
11
72.813300
21
834.554000
0
LINE
8
0
10
72.813300
20
834.554000
11
72.813300
21
839.634000
0
LINE
8
0
10
72.813300
20
880.274000
11
76.199900
21
880.274000
0
LINE
8
0
10
276.013000
20
433.234000
11
279.400000
21
433.234000
0
LINE
8
0
10
76.199900
20
880.274000
11
76.199900
21
875.194000
0
LINE
8
0
10
76.199900
20
875.194000
11
81.279900
21
875.194000
0
LINE
8
0
10
81.279900
20
875.194000
11
81.279900
21
871.807000
0
LINE
8
0
10
81.279900
20
871.807000
11
76.199900
21
871.807000
0
LINE
8
0
10
76.199900
20
871.807000
11
76.199900
21
866.727000
0
LINE
8
0
10
76.199900
20
866.727000
11
72.813300
21
866.727000
0
LINE
8
0
10
72.813300
20
866.727000
11
72.813300
21
871.807000
0
LINE
8
0
10
72.813300
20
871.807000
11
67.733300
21
871.807000
0
LINE
8
0
10
67.733300
20
871.807000
11
67.733300
21
875.194000
0
LINE
8
0
10
67.733300
20
875.194000
11
72.813300
21
875.194000
0
LINE
8
0
10
72.813300
20
875.194000
11
72.813300
21
880.274000
0
LINE
8
0
10
72.813300
20
920.914000
11
76.199900
21
920.914000
0
LINE
8
0
10
76.199900
20
920.914000
11
76.199900
21
915.834000
0
LINE
8
0
10
76.199900
20
915.834000
11
81.279900
21
915.834000
0
LINE
8
0
10
81.279900
20
915.834000
11
81.279900
21
912.447000
0
LINE
8
0
10
81.279900
20
912.447000
11
76.199900
21
912.447000
0
LINE
8
0
10
76.199900
20
912.447000
11
76.199900
21
907.367000
0
LINE
8
0
10
76.199900
20
907.367000
11
72.813300
21
907.367000
0
LINE
8
0
10
72.813300
20
907.367000
11
72.813300
21
912.447000
0
LINE
8
0
10
72.813300
20
912.447000
11
67.733300
21
912.447000
0
LINE
8
0
10
67.733300
20
912.447000
11
67.733300
21
915.834000
0
LINE
8
0
10
67.733300
20
915.834000
11
72.813300
21
915.834000
0
LINE
8
0
10
72.813300
20
915.834000
11
72.813300
21
920.914000
0
LINE
8
0
10
72.813300
20
961.554000
11
76.199900
21
961.554000
0
LINE
8
0
10
76.199900
20
961.554000
11
76.199900
21
956.474000
0
LINE
8
0
10
76.199900
20
956.474000
11
81.279900
21
956.474000
0
LINE
8
0
10
81.279900
20
956.474000
11
81.279900
21
953.087000
0
LINE
8
0
10
81.279900
20
953.087000
11
76.199900
21
953.087000
0
LINE
8
0
10
76.199900
20
953.087000
11
76.199900
21
948.007000
0
LINE
8
0
10
76.199900
20
948.007000
11
72.813300
21
948.007000
0
LINE
8
0
10
72.813300
20
948.007000
11
72.813300
21
953.087000
0
LINE
8
0
10
-6.773330
20
351.954000
11
-6.773330
21
419.688000
0
LINE
8
0
10
81.279900
20
419.688000
11
81.279900
21
406.141000
0
LINE
8
0
10
72.813300
20
953.087000
11
67.733300
21
953.087000
0
LINE
8
0
10
67.733300
20
953.087000
11
67.733300
21
956.474000
0
LINE
8
0
10
67.733300
20
956.474000
11
72.813300
21
956.474000
0
LINE
8
0
10
72.813300
20
956.474000
11
72.813300
21
961.554000
0
LINE
8
0
10
72.813300
20
1002.190000
11
76.199900
21
1002.190000
0
LINE
8
0
10
76.199900
20
1002.190000
11
76.199900
21
997.114000
0
LINE
8
0
10
76.199900
20
997.114000
11
81.279900
21
997.114000
0
LINE
8
0
10
81.279900
20
997.114000
11
81.279900
21
993.727000
0
LINE
8
0
10
279.400000
20
433.234000
11
279.400000
21
428.154000
0
LINE
8
0
10
279.400000
20
428.154000
11
284.480000
21
428.154000
0
LINE
8
0
10
284.480000
20
428.154000
11
284.480000
21
424.768000
0
LINE
8
0
10
406.400000
20
424.768000
11
392.853000
21
424.768000
0
LINE
8
0
10
365.760000
20
424.768000
11
352.213000
21
424.768000
0
LINE
8
0
10
325.120000
20
424.768000
11
311.573000
21
424.768000
0
LINE
8
0
10
284.480000
20
424.768000
11
270.933000
21
424.768000
0
LINE
8
0
10
270.933000
20
424.768000
11
270.933000
21
428.154000
0
LINE
8
0
10
270.933000
20
428.154000
11
276.013000
21
428.154000
0
LINE
8
0
10
276.013000
20
428.154000
11
276.013000
21
433.234000
0
LINE
8
0
10
276.013000
20
473.874000
11
279.400000
21
473.874000
0
LINE
8
0
10
279.400000
20
473.874000
11
279.400000
21
468.794000
0
LINE
8
0
10
279.400000
20
468.794000
11
284.480000
21
468.794000
0
LINE
8
0
10
284.480000
20
468.794000
11
284.480000
21
465.407000
0
LINE
8
0
10
284.480000
20
465.407000
11
279.400000
21
465.407000
0
LINE
8
0
10
279.400000
20
465.407000
11
279.400000
21
460.327000
0
LINE
8
0
10
279.400000
20
460.327000
11
276.013000
21
460.327000
0
LINE
8
0
10
276.013000
20
460.327000
11
276.013000
21
465.407000
0
LINE
8
0
10
276.013000
20
465.407000
11
270.933000
21
465.407000
0
LINE
8
0
10
270.933000
20
465.407000
11
270.933000
21
468.794000
0
LINE
8
0
10
270.933000
20
468.794000
11
276.013000
21
468.794000
0
LINE
8
0
10
276.013000
20
468.794000
11
276.013000
21
473.874000
0
LINE
8
0
10
81.279900
20
993.727000
11
76.199900
21
993.727000
0
LINE
8
0
10
76.199900
20
993.727000
11
76.199900
21
988.647000
0
LINE
8
0
10
76.199900
20
988.647000
11
72.813300
21
988.647000
0
LINE
8
0
10
72.813300
20
988.647000
11
72.813300
21
993.727000
0
LINE
8
0
10
72.813300
20
993.727000
11
67.733300
21
993.727000
0
LINE
8
0
10
67.733300
20
993.727000
11
67.733300
21
997.114000
0
LINE
8
0
10
67.733300
20
997.114000
11
72.813300
21
997.114000
0
LINE
8
0
10
72.813300
20
997.114000
11
72.813300
21
1002.190000
0
LINE
8
0
10
67.733300
20
1037.750000
11
81.279900
21
1037.750000
0
LINE
8
0
10
81.279900
20
1037.750000
11
81.279900
21
1034.370000
0
LINE
8
0
10
81.279900
20
1034.370000
11
76.199900
21
1034.370000
0
LINE
8
0
10
76.199900
20
1034.370000
11
76.199900
21
1029.290000
0
LINE
8
0
10
76.199900
20
1029.290000
11
72.813300
21
1029.290000
0
LINE
8
0
10
72.813300
20
1029.290000
11
72.813300
21
1034.370000
0
LINE
8
0
10
72.813300
20
1034.370000
11
67.733300
21
1034.370000
0
LINE
8
0
10
67.733300
20
1034.370000
11
67.733300
21
1037.750000
0
LINE
8
0
10
154.093000
20
514.514000
11
157.480000
21
514.514000
0
LINE
8
0
10
157.480000
20
514.514000
11
157.480000
21
509.434000
0
LINE
8
0
10
157.480000
20
509.434000
11
162.560000
21
509.434000
0
LINE
8
0
10
162.560000
20
509.434000
11
162.560000
21
506.047000
0
LINE
8
0
10
162.560000
20
506.047000
11
157.480000
21
506.047000
0
LINE
8
0
10
157.480000
20
506.047000
11
157.480000
21
500.967000
0
LINE
8
0
10
157.480000
20
500.967000
11
154.093000
21
500.967000
0
LINE
8
0
10
154.093000
20
500.967000
11
154.093000
21
506.047000
0
LINE
8
0
10
154.093000
20
506.047000
11
149.013000
21
506.047000
0
LINE
8
0
10
149.013000
20
506.047000
11
149.013000
21
509.434000
0
LINE
8
0
10
149.013000
20
509.434000
11
154.093000
21
509.434000
0
LINE
8
0
10
154.093000
20
509.434000
11
154.093000
21
514.514000
0
LINE
8
0
10
154.093000
20
555.154000
11
157.480000
21
555.154000
0
LINE
8
0
10
157.480000
20
555.154000
11
157.480000
21
550.074000
0
LINE
8
0
10
157.480000
20
550.074000
11
162.560000
21
550.074000
0
LINE
8
0
10
162.560000
20
550.074000
11
162.560000
21
546.687000
0
LINE
8
0
10
162.560000
20
546.687000
11
157.480000
21
546.687000
0
LINE
8
0
10
157.480000
20
546.687000
11
157.480000
21
541.607000
0
LINE
8
0
10
157.480000
20
541.607000
11
154.093000
21
541.607000
0
LINE
8
0
10
154.093000
20
541.607000
11
154.093000
21
546.687000
0
LINE
8
0
10
154.093000
20
546.687000
11
149.013000
21
546.687000
0
LINE
8
0
10
149.013000
20
546.687000
11
149.013000
21
550.074000
0
LINE
8
0
10
149.013000
20
550.074000
11
154.093000
21
550.074000
0
LINE
8
0
10
154.093000
20
550.074000
11
154.093000
21
555.154000
0
LINE
8
0
10
154.093000
20
595.794000
11
157.480000
21
595.794000
0
LINE
8
0
10
157.480000
20
595.794000
11
157.480000
21
590.714000
0
LINE
8
0
10
157.480000
20
590.714000
11
162.560000
21
590.714000
0
LINE
8
0
10
162.560000
20
590.714000
11
162.560000
21
587.327000
0
LINE
8
0
10
162.560000
20
587.327000
11
157.480000
21
587.327000
0
LINE
8
0
10
157.480000
20
587.327000
11
157.480000
21
582.247000
0
LINE
8
0
10
157.480000
20
582.247000
11
154.093000
21
582.247000
0
LINE
8
0
10
154.093000
20
582.247000
11
154.093000
21
587.327000
0
LINE
8
0
10
154.093000
20
587.327000
11
149.013000
21
587.327000
0
LINE
8
0
10
149.013000
20
587.327000
11
149.013000
21
590.714000
0
LINE
8
0
10
149.013000
20
590.714000
11
154.093000
21
590.714000
0
LINE
8
0
10
154.093000
20
590.714000
11
154.093000
21
595.794000
0
LINE
8
0
10
154.093000
20
636.434000
11
157.480000
21
636.434000
0
LINE
8
0
10
157.480000
20
636.434000
11
157.480000
21
631.354000
0
LINE
8
0
10
157.480000
20
631.354000
11
162.560000
21
631.354000
0
LINE
8
0
10
162.560000
20
631.354000
11
162.560000
21
627.967000
0
LINE
8
0
10
162.560000
20
627.967000
11
157.480000
21
627.967000
0
LINE
8
0
10
157.480000
20
627.967000
11
157.480000
21
622.887000
0
LINE
8
0
10
157.480000
20
622.887000
11
154.093000
21
622.887000
0
LINE
8
0
10
154.093000
20
622.887000
11
154.093000
21
627.967000
0
LINE
8
0
10
154.093000
20
627.967000
11
149.013000
21
627.967000
0
LINE
8
0
10
149.013000
20
627.967000
11
149.013000
21
631.354000
0
LINE
8
0
10
149.013000
20
631.354000
11
154.093000
21
631.354000
0
LINE
8
0
10
154.093000
20
631.354000
11
154.093000
21
636.434000
0
LINE
8
0
10
154.093000
20
677.074000
11
157.480000
21
677.074000
0
LINE
8
0
10
157.480000
20
677.074000
11
157.480000
21
671.994000
0
LINE
8
0
10
157.480000
20
671.994000
11
162.560000
21
671.994000
0
LINE
8
0
10
162.560000
20
671.994000
11
162.560000
21
668.607000
0
LINE
8
0
10
162.560000
20
668.607000
11
157.480000
21
668.607000
0
LINE
8
0
10
157.480000
20
668.607000
11
157.480000
21
663.527000
0
LINE
8
0
10
157.480000
20
663.527000
11
154.093000
21
663.527000
0
LINE
8
0
10
154.093000
20
663.527000
11
154.093000
21
668.607000
0
LINE
8
0
10
154.093000
20
668.607000
11
149.013000
21
668.607000
0
LINE
8
0
10
149.013000
20
668.607000
11
149.013000
21
671.994000
0
LINE
8
0
10
235.373000
20
433.234000
11
238.760000
21
433.234000
0
LINE
8
0
10
238.760000
20
433.234000
11
238.760000
21
428.154000
0
LINE
8
0
10
238.760000
20
428.154000
11
243.840000
21
428.154000
0
LINE
8
0
10
243.840000
20
428.154000
11
243.840000
21
424.768000
0
LINE
8
0
10
243.840000
20
424.768000
11
230.293000
21
424.768000
0
LINE
8
0
10
203.200000
20
424.768000
11
189.653000
21
424.768000
0
LINE
8
0
10
162.560000
20
424.768000
11
149.013000
21
424.768000
0
LINE
8
0
10
-8.466660
20
473.874000
11
-8.466660
21
460.327000
0
LINE
8
0
10
230.293000
20
424.768000
11
230.293000
21
428.154000
0
LINE
8
0
10
230.293000
20
428.154000
11
235.373000
21
428.154000
0
LINE
8
0
10
235.373000
20
428.154000
11
235.373000
21
433.234000
0
LINE
8
0
10
235.373000
20
473.874000
11
238.760000
21
473.874000
0
LINE
8
0
10
238.760000
20
473.874000
11
238.760000
21
468.794000
0
LINE
8
0
10
238.760000
20
468.794000
11
243.840000
21
468.794000
0
LINE
8
0
10
243.840000
20
468.794000
11
243.840000
21
465.407000
0
LINE
8
0
10
243.840000
20
465.407000
11
238.760000
21
465.407000
0
LINE
8
0
10
238.760000
20
465.407000
11
238.760000
21
460.327000
0
LINE
8
0
10
238.760000
20
460.327000
11
235.373000
21
460.327000
0
LINE
8
0
10
235.373000
20
460.327000
11
235.373000
21
465.407000
0
LINE
8
0
10
235.373000
20
465.407000
11
230.293000
21
465.407000
0
LINE
8
0
10
230.293000
20
465.407000
11
230.293000
21
468.794000
0
LINE
8
0
10
230.293000
20
468.794000
11
235.373000
21
468.794000
0
LINE
8
0
10
235.373000
20
468.794000
11
235.373000
21
473.874000
0
LINE
8
0
10
149.013000
20
671.994000
11
154.093000
21
671.994000
0
LINE
8
0
10
154.093000
20
671.994000
11
154.093000
21
677.074000
0
LINE
8
0
10
154.093000
20
717.714000
11
157.480000
21
717.714000
0
LINE
8
0
10
157.480000
20
717.714000
11
157.480000
21
712.634000
0
LINE
8
0
10
157.480000
20
712.634000
11
162.560000
21
712.634000
0
LINE
8
0
10
162.560000
20
712.634000
11
162.560000
21
709.247000
0
LINE
8
0
10
162.560000
20
709.247000
11
157.480000
21
709.247000
0
LINE
8
0
10
157.480000
20
709.247000
11
157.480000
21
704.167000
0
LINE
8
0
10
157.480000
20
704.167000
11
154.093000
21
704.167000
0
LINE
8
0
10
154.093000
20
704.167000
11
154.093000
21
709.247000
0
LINE
8
0
10
154.093000
20
709.247000
11
149.013000
21
709.247000
0
LINE
8
0
10
149.013000
20
709.247000
11
149.013000
21
712.634000
0
LINE
8
0
10
149.013000
20
712.634000
11
154.093000
21
712.634000
0
LINE
8
0
10
154.093000
20
712.634000
11
154.093000
21
717.714000
0
LINE
8
0
10
154.093000
20
744.807000
11
157.480000
21
744.807000
0
LINE
8
0
10
154.093000
20
758.354000
11
157.480000
21
758.354000
0
LINE
8
0
10
157.480000
20
758.354000
11
157.480000
21
753.274000
0
LINE
8
0
10
157.480000
20
753.274000
11
162.560000
21
753.274000
0
LINE
8
0
10
162.560000
20
753.274000
11
162.560000
21
749.887000
0
LINE
8
0
10
162.560000
20
749.887000
11
157.480000
21
749.887000
0
LINE
8
0
10
157.480000
20
749.887000
11
157.480000
21
744.807000
0
LINE
8
0
10
154.093000
20
744.807000
11
154.093000
21
749.887000
0
LINE
8
0
10
154.093000
20
749.887000
11
149.013000
21
749.887000
0
LINE
8
0
10
149.013000
20
749.887000
11
149.013000
21
753.274000
0
LINE
8
0
10
149.013000
20
753.274000
11
154.093000
21
753.274000
0
LINE
8
0
10
194.733000
20
433.234000
11
198.120000
21
433.234000
0
LINE
8
0
10
198.120000
20
433.234000
11
198.120000
21
428.154000
0
LINE
8
0
10
198.120000
20
428.154000
11
203.200000
21
428.154000
0
LINE
8
0
10
203.200000
20
428.154000
11
203.200000
21
424.768000
0
LINE
8
0
10
-8.466660
20
514.514000
11
-8.466660
21
500.967000
0
LINE
8
0
10
-8.505380
20
555.120000
11
-8.505380
21
541.573000
0
LINE
8
0
10
-8.505380
20
541.573000
11
-8.466660
21
541.607000
0
LINE
8
0
10
-8.448800
20
595.764000
11
-8.448800
21
582.218000
0
LINE
8
0
10
189.653000
20
424.768000
11
189.653000
21
428.154000
0
LINE
8
0
10
189.653000
20
428.154000
11
194.733000
21
428.154000
0
LINE
8
0
10
194.733000
20
428.154000
11
194.733000
21
433.234000
0
LINE
8
0
10
194.733000
20
473.874000
11
198.120000
21
473.874000
0
LINE
8
0
10
198.120000
20
473.874000
11
198.120000
21
468.794000
0
LINE
8
0
10
198.120000
20
468.794000
11
203.200000
21
468.794000
0
LINE
8
0
10
203.200000
20
468.794000
11
203.200000
21
465.407000
0
LINE
8
0
10
203.200000
20
465.407000
11
198.120000
21
465.407000
0
LINE
8
0
10
198.120000
20
465.407000
11
198.120000
21
460.327000
0
LINE
8
0
10
198.120000
20
460.327000
11
194.733000
21
460.327000
0
LINE
8
0
10
194.733000
20
460.327000
11
194.733000
21
465.407000
0
LINE
8
0
10
194.733000
20
465.407000
11
189.653000
21
465.407000
0
LINE
8
0
10
189.653000
20
465.407000
11
189.653000
21
468.794000
0
LINE
8
0
10
189.653000
20
468.794000
11
194.733000
21
468.794000
0
LINE
8
0
10
194.733000
20
468.794000
11
194.733000
21
473.874000
0
LINE
8
0
10
154.093000
20
753.274000
11
154.093000
21
758.354000
0
LINE
8
0
10
154.093000
20
798.994000
11
157.480000
21
798.994000
0
LINE
8
0
10
157.480000
20
798.994000
11
157.480000
21
793.914000
0
LINE
8
0
10
157.480000
20
793.914000
11
162.560000
21
793.914000
0
LINE
8
0
10
162.560000
20
793.914000
11
162.560000
21
790.527000
0
LINE
8
0
10
162.560000
20
790.527000
11
157.480000
21
790.527000
0
LINE
8
0
10
157.480000
20
790.527000
11
157.480000
21
785.447000
0
LINE
8
0
10
157.480000
20
785.447000
11
154.093000
21
785.447000
0
LINE
8
0
10
154.093000
20
785.447000
11
154.093000
21
790.527000
0
LINE
8
0
10
154.093000
20
790.527000
11
149.013000
21
790.527000
0
LINE
8
0
10
149.013000
20
790.527000
11
149.013000
21
793.914000
0
LINE
8
0
10
149.013000
20
793.914000
11
154.093000
21
793.914000
0
LINE
8
0
10
154.093000
20
793.914000
11
154.093000
21
798.994000
0
LINE
8
0
10
154.093000
20
839.634000
11
157.480000
21
839.634000
0
LINE
8
0
10
157.480000
20
839.634000
11
157.480000
21
834.554000
0
LINE
8
0
10
157.480000
20
834.554000
11
162.560000
21
834.554000
0
LINE
8
0
10
162.560000
20
834.554000
11
162.560000
21
831.167000
0
LINE
8
0
10
162.560000
20
831.167000
11
157.480000
21
831.167000
0
LINE
8
0
10
157.480000
20
831.167000
11
157.480000
21
826.087000
0
LINE
8
0
10
157.480000
20
826.087000
11
154.093000
21
826.087000
0
LINE
8
0
10
154.093000
20
826.087000
11
154.093000
21
831.167000
0
LINE
8
0
10
154.093000
20
831.167000
11
149.013000
21
831.167000
0
LINE
8
0
10
149.013000
20
831.167000
11
149.013000
21
834.554000
0
LINE
8
0
10
149.013000
20
834.554000
11
154.093000
21
834.554000
0
LINE
8
0
10
154.093000
20
834.554000
11
154.093000
21
839.634000
0
LINE
8
0
10
154.093000
20
433.234000
11
157.480000
21
433.234000
0
LINE
8
0
10
157.480000
20
433.234000
11
157.480000
21
428.154000
0
LINE
8
0
10
157.480000
20
428.154000
11
162.560000
21
428.154000
0
LINE
8
0
10
162.560000
20
428.154000
11
162.560000
21
424.768000
0
LINE
8
0
10
-8.448800
20
582.218000
11
-8.466660
21
582.247000
0
LINE
8
0
10
-8.466660
20
636.434000
11
-8.466660
21
622.887000
0
LINE
8
0
10
-8.466660
20
677.074000
11
-8.466660
21
663.527000
0
LINE
8
0
10
-8.466660
20
758.354000
11
-8.466660
21
744.807000
0
LINE
8
0
10
149.013000
20
424.768000
11
149.013000
21
428.154000
0
LINE
8
0
10
149.013000
20
428.154000
11
154.093000
21
428.154000
0
LINE
8
0
10
154.093000
20
428.154000
11
154.093000
21
433.234000
0
LINE
8
0
10
154.093000
20
473.874000
11
157.480000
21
473.874000
0
LINE
8
0
10
157.480000
20
473.874000
11
157.480000
21
468.794000
0
LINE
8
0
10
157.480000
20
468.794000
11
162.560000
21
468.794000
0
LINE
8
0
10
162.560000
20
468.794000
11
162.560000
21
465.407000
0
LINE
8
0
10
162.560000
20
465.407000
11
157.480000
21
465.407000
0
LINE
8
0
10
157.480000
20
465.407000
11
157.480000
21
460.327000
0
LINE
8
0
10
157.480000
20
460.327000
11
154.093000
21
460.327000
0
LINE
8
0
10
154.093000
20
460.327000
11
154.093000
21
465.407000
0
LINE
8
0
10
154.093000
20
465.407000
11
149.013000
21
465.407000
0
LINE
8
0
10
149.013000
20
465.407000
11
149.013000
21
468.794000
0
LINE
8
0
10
149.013000
20
468.794000
11
154.093000
21
468.794000
0
LINE
8
0
10
154.093000
20
468.794000
11
154.093000
21
473.874000
0
LINE
8
0
10
154.093000
20
880.274000
11
157.480000
21
880.274000
0
LINE
8
0
10
157.480000
20
880.274000
11
157.480000
21
875.194000
0
LINE
8
0
10
157.480000
20
875.194000
11
162.560000
21
875.194000
0
LINE
8
0
10
162.560000
20
875.194000
11
162.560000
21
871.807000
0
LINE
8
0
10
162.560000
20
871.807000
11
157.480000
21
871.807000
0
LINE
8
0
10
157.480000
20
871.807000
11
157.480000
21
866.727000
0
LINE
8
0
10
157.480000
20
866.727000
11
154.093000
21
866.727000
0
LINE
8
0
10
154.093000
20
866.727000
11
154.093000
21
871.807000
0
LINE
8
0
10
154.093000
20
871.807000
11
149.013000
21
871.807000
0
LINE
8
0
10
149.013000
20
871.807000
11
149.013000
21
875.194000
0
LINE
8
0
10
149.013000
20
875.194000
11
154.093000
21
875.194000
0
LINE
8
0
10
154.093000
20
875.194000
11
154.093000
21
880.274000
0
LINE
8
0
10
154.093000
20
920.914000
11
157.480000
21
920.914000
0
LINE
8
0
10
157.480000
20
920.914000
11
157.480000
21
915.834000
0
LINE
8
0
10
157.480000
20
915.834000
11
162.560000
21
915.834000
0
LINE
8
0
10
162.560000
20
915.834000
11
162.560000
21
912.447000
0
LINE
8
0
10
162.560000
20
912.447000
11
157.480000
21
912.447000
0
LINE
8
0
10
157.480000
20
912.447000
11
157.480000
21
907.367000
0
LINE
8
0
10
157.480000
20
907.367000
11
154.093000
21
907.367000
0
LINE
8
0
10
154.093000
20
907.367000
11
154.093000
21
912.447000
0
LINE
8
0
10
154.093000
20
912.447000
11
149.013000
21
912.447000
0
LINE
8
0
10
149.013000
20
912.447000
11
149.013000
21
915.834000
0
LINE
8
0
10
149.013000
20
915.834000
11
154.093000
21
915.834000
0
LINE
8
0
10
154.093000
20
915.834000
11
154.093000
21
920.914000
0
LINE
8
0
10
154.093000
20
961.554000
11
157.480000
21
961.554000
0
LINE
8
0
10
157.480000
20
961.554000
11
157.480000
21
956.474000
0
LINE
8
0
10
157.480000
20
956.474000
11
162.560000
21
956.474000
0
LINE
8
0
10
162.560000
20
956.474000
11
162.560000
21
953.087000
0
LINE
8
0
10
162.560000
20
953.087000
11
157.480000
21
953.087000
0
LINE
8
0
10
157.480000
20
953.087000
11
157.480000
21
948.007000
0
LINE
8
0
10
157.480000
20
948.007000
11
154.093000
21
948.007000
0
LINE
8
0
10
154.093000
20
948.007000
11
154.093000
21
953.087000
0
LINE
8
0
10
154.093000
20
953.087000
11
149.013000
21
953.087000
0
LINE
8
0
10
149.013000
20
953.087000
11
149.013000
21
956.474000
0
LINE
8
0
10
149.013000
20
956.474000
11
154.093000
21
956.474000
0
LINE
8
0
10
154.093000
20
956.474000
11
154.093000
21
961.554000
0
LINE
8
0
10
154.093000
20
1002.190000
11
157.480000
21
1002.190000
0
LINE
8
0
10
157.480000
20
1002.190000
11
157.480000
21
997.114000
0
LINE
8
0
10
157.480000
20
997.114000
11
162.560000
21
997.114000
0
LINE
8
0
10
162.560000
20
997.114000
11
162.560000
21
993.727000
0
LINE
8
0
10
162.560000
20
993.727000
11
157.480000
21
993.727000
0
LINE
8
0
10
157.480000
20
993.727000
11
157.480000
21
988.647000
0
LINE
8
0
10
157.480000
20
988.647000
11
154.093000
21
988.647000
0
LINE
8
0
10
154.093000
20
988.647000
11
154.093000
21
993.727000
0
LINE
8
0
10
154.093000
20
993.727000
11
149.013000
21
993.727000
0
LINE
8
0
10
149.013000
20
993.727000
11
149.013000
21
997.114000
0
LINE
8
0
10
149.013000
20
997.114000
11
154.093000
21
997.114000
0
LINE
8
0
10
154.093000
20
997.114000
11
154.093000
21
1002.190000
0
LINE
8
0
10
149.013000
20
1037.750000
11
162.560000
21
1037.750000
0
LINE
8
0
10
162.560000
20
1037.750000
11
162.560000
21
1034.370000
0
LINE
8
0
10
162.560000
20
1034.370000
11
157.480000
21
1034.370000
0
LINE
8
0
10
157.480000
20
1034.370000
11
157.480000
21
1029.290000
0
LINE
8
0
10
157.480000
20
1029.290000
11
154.093000
21
1029.290000
0
LINE
8
0
10
154.093000
20
1029.290000
11
154.093000
21
1034.370000
0
LINE
8
0
10
154.093000
20
1034.370000
11
149.013000
21
1034.370000
0
LINE
8
0
10
149.013000
20
1034.370000
11
149.013000
21
1037.750000
0
LINE
8
0
10
113.453000
20
514.514000
11
116.840000
21
514.514000
0
LINE
8
0
10
116.840000
20
514.514000
11
116.840000
21
509.434000
0
LINE
8
0
10
116.840000
20
509.434000
11
121.920000
21
509.434000
0
LINE
8
0
10
121.920000
20
509.434000
11
121.920000
21
506.047000
0
LINE
8
0
10
121.920000
20
506.047000
11
116.840000
21
506.047000
0
LINE
8
0
10
116.840000
20
506.047000
11
116.840000
21
500.967000
0
LINE
8
0
10
116.840000
20
500.967000
11
113.453000
21
500.967000
0
LINE
8
0
10
113.453000
20
500.967000
11
113.453000
21
506.047000
0
LINE
8
0
10
113.453000
20
506.047000
11
108.373000
21
506.047000
0
LINE
8
0
10
108.373000
20
506.047000
11
108.373000
21
509.434000
0
LINE
8
0
10
108.373000
20
509.434000
11
113.453000
21
509.434000
0
LINE
8
0
10
113.453000
20
509.434000
11
113.453000
21
514.514000
0
LINE
8
0
10
113.453000
20
555.154000
11
116.840000
21
555.154000
0
LINE
8
0
10
116.840000
20
555.154000
11
116.840000
21
550.074000
0
LINE
8
0
10
116.840000
20
550.074000
11
121.920000
21
550.074000
0
LINE
8
0
10
121.920000
20
550.074000
11
121.920000
21
546.687000
0
LINE
8
0
10
121.920000
20
546.687000
11
116.840000
21
546.687000
0
LINE
8
0
10
116.840000
20
546.687000
11
116.840000
21
541.607000
0
LINE
8
0
10
116.840000
20
541.607000
11
113.453000
21
541.607000
0
LINE
8
0
10
113.453000
20
541.607000
11
113.453000
21
546.687000
0
LINE
8
0
10
113.453000
20
546.687000
11
108.373000
21
546.687000
0
LINE
8
0
10
108.373000
20
546.687000
11
108.373000
21
550.074000
0
LINE
8
0
10
108.373000
20
550.074000
11
113.453000
21
550.074000
0
LINE
8
0
10
113.453000
20
550.074000
11
113.453000
21
555.154000
0
LINE
8
0
10
113.453000
20
595.794000
11
116.840000
21
595.794000
0
LINE
8
0
10
116.840000
20
595.794000
11
116.840000
21
590.714000
0
LINE
8
0
10
116.840000
20
590.714000
11
121.920000
21
590.714000
0
LINE
8
0
10
121.920000
20
590.714000
11
121.920000
21
587.327000
0
LINE
8
0
10
121.920000
20
587.327000
11
116.840000
21
587.327000
0
LINE
8
0
10
116.840000
20
587.327000
11
116.840000
21
582.247000
0
LINE
8
0
10
116.840000
20
582.247000
11
113.453000
21
582.247000
0
LINE
8
0
10
113.453000
20
582.247000
11
113.453000
21
587.327000
0
LINE
8
0
10
113.453000
20
587.327000
11
108.373000
21
587.327000
0
LINE
8
0
10
108.373000
20
587.327000
11
108.373000
21
590.714000
0
LINE
8
0
10
108.373000
20
590.714000
11
113.453000
21
590.714000
0
LINE
8
0
10
113.453000
20
590.714000
11
113.453000
21
595.794000
0
LINE
8
0
10
113.453000
20
636.434000
11
116.840000
21
636.434000
0
LINE
8
0
10
116.840000
20
636.434000
11
116.840000
21
631.354000
0
LINE
8
0
10
116.840000
20
631.354000
11
121.920000
21
631.354000
0
LINE
8
0
10
121.920000
20
631.354000
11
121.920000
21
627.967000
0
LINE
8
0
10
121.920000
20
627.967000
11
116.840000
21
627.967000
0
LINE
8
0
10
116.840000
20
627.967000
11
116.840000
21
622.887000
0
LINE
8
0
10
116.840000
20
622.887000
11
113.453000
21
622.887000
0
LINE
8
0
10
113.453000
20
622.887000
11
113.453000
21
627.967000
0
LINE
8
0
10
113.453000
20
627.967000
11
108.373000
21
627.967000
0
LINE
8
0
10
108.373000
20
627.967000
11
108.373000
21
631.354000
0
LINE
8
0
10
108.373000
20
631.354000
11
113.453000
21
631.354000
0
LINE
8
0
10
113.453000
20
631.354000
11
113.453000
21
636.434000
0
LINE
8
0
10
113.453000
20
677.074000
11
116.840000
21
677.074000
0
LINE
8
0
10
116.840000
20
677.074000
11
116.840000
21
671.994000
0
LINE
8
0
10
116.840000
20
671.994000
11
121.920000
21
671.994000
0
LINE
8
0
10
121.920000
20
671.994000
11
121.920000
21
668.607000
0
LINE
8
0
10
121.920000
20
668.607000
11
116.840000
21
668.607000
0
LINE
8
0
10
116.840000
20
668.607000
11
116.840000
21
663.527000
0
LINE
8
0
10
116.840000
20
663.527000
11
113.453000
21
663.527000
0
LINE
8
0
10
113.453000
20
663.527000
11
113.453000
21
668.607000
0
LINE
8
0
10
113.453000
20
668.607000
11
108.373000
21
668.607000
0
LINE
8
0
10
108.373000
20
668.607000
11
108.373000
21
671.994000
0
LINE
8
0
10
108.373000
20
671.994000
11
113.453000
21
671.994000
0
LINE
8
0
10
113.453000
20
671.994000
11
113.453000
21
677.074000
0
LINE
8
0
10
113.453000
20
717.714000
11
116.840000
21
717.714000
0
LINE
8
0
10
116.840000
20
717.714000
11
116.840000
21
712.634000
0
LINE
8
0
10
116.840000
20
712.634000
11
121.920000
21
712.634000
0
LINE
8
0
10
121.920000
20
712.634000
11
121.920000
21
709.247000
0
LINE
8
0
10
121.920000
20
709.247000
11
116.840000
21
709.247000
0
LINE
8
0
10
116.840000
20
709.247000
11
116.840000
21
704.167000
0
LINE
8
0
10
116.840000
20
704.167000
11
113.453000
21
704.167000
0
LINE
8
0
10
113.453000
20
704.167000
11
113.453000
21
709.247000
0
LINE
8
0
10
113.453000
20
709.247000
11
108.373000
21
709.247000
0
LINE
8
0
10
108.373000
20
709.247000
11
108.373000
21
712.634000
0
LINE
8
0
10
108.373000
20
712.634000
11
113.453000
21
712.634000
0
LINE
8
0
10
113.453000
20
712.634000
11
113.453000
21
717.714000
0
LINE
8
0
10
113.453000
20
744.807000
11
116.840000
21
744.807000
0
LINE
8
0
10
113.453000
20
758.354000
11
116.840000
21
758.354000
0
LINE
8
0
10
116.840000
20
758.354000
11
116.840000
21
753.274000
0
LINE
8
0
10
116.840000
20
753.274000
11
121.920000
21
753.274000
0
LINE
8
0
10
121.920000
20
753.274000
11
121.920000
21
749.887000
0
LINE
8
0
10
121.920000
20
749.887000
11
116.840000
21
749.887000
0
LINE
8
0
10
116.840000
20
749.887000
11
116.840000
21
744.807000
0
LINE
8
0
10
113.453000
20
744.807000
11
113.453000
21
749.887000
0
LINE
8
0
10
113.453000
20
749.887000
11
108.373000
21
749.887000
0
LINE
8
0
10
108.373000
20
749.887000
11
108.373000
21
753.274000
0
LINE
8
0
10
108.373000
20
753.274000
11
113.453000
21
753.274000
0
LINE
8
0
10
113.453000
20
753.274000
11
113.453000
21
758.354000
0
LINE
8
0
10
113.453000
20
798.994000
11
116.840000
21
798.994000
0
LINE
8
0
10
116.840000
20
798.994000
11
116.840000
21
793.914000
0
LINE
8
0
10
116.840000
20
793.914000
11
121.920000
21
793.914000
0
LINE
8
0
10
121.920000
20
793.914000
11
121.920000
21
790.527000
0
LINE
8
0
10
121.920000
20
790.527000
11
116.840000
21
790.527000
0
LINE
8
0
10
116.840000
20
790.527000
11
116.840000
21
785.447000
0
LINE
8
0
10
116.840000
20
785.447000
11
113.453000
21
785.447000
0
LINE
8
0
10
113.453000
20
785.447000
11
113.453000
21
790.527000
0
LINE
8
0
10
113.453000
20
790.527000
11
108.373000
21
790.527000
0
LINE
8
0
10
108.373000
20
790.527000
11
108.373000
21
793.914000
0
LINE
8
0
10
108.373000
20
793.914000
11
113.453000
21
793.914000
0
LINE
8
0
10
113.453000
20
793.914000
11
113.453000
21
798.994000
0
LINE
8
0
10
113.453000
20
839.634000
11
116.840000
21
839.634000
0
LINE
8
0
10
116.840000
20
839.634000
11
116.840000
21
834.554000
0
LINE
8
0
10
116.840000
20
834.554000
11
121.920000
21
834.554000
0
LINE
8
0
10
121.920000
20
834.554000
11
121.920000
21
831.167000
0
LINE
8
0
10
121.920000
20
831.167000
11
116.840000
21
831.167000
0
LINE
8
0
10
116.840000
20
831.167000
11
116.840000
21
826.087000
0
LINE
8
0
10
116.840000
20
826.087000
11
113.453000
21
826.087000
0
LINE
8
0
10
113.453000
20
826.087000
11
113.453000
21
831.167000
0
LINE
8
0
10
113.453000
20
831.167000
11
108.373000
21
831.167000
0
LINE
8
0
10
108.373000
20
831.167000
11
108.373000
21
834.554000
0
LINE
8
0
10
108.373000
20
834.554000
11
113.453000
21
834.554000
0
LINE
8
0
10
113.453000
20
834.554000
11
113.453000
21
839.634000
0
LINE
8
0
10
113.453000
20
880.274000
11
116.840000
21
880.274000
0
LINE
8
0
10
116.840000
20
880.274000
11
116.840000
21
875.194000
0
LINE
8
0
10
116.840000
20
875.194000
11
121.920000
21
875.194000
0
LINE
8
0
10
121.920000
20
875.194000
11
121.920000
21
871.807000
0
LINE
8
0
10
121.920000
20
871.807000
11
116.840000
21
871.807000
0
LINE
8
0
10
116.840000
20
871.807000
11
116.840000
21
866.727000
0
LINE
8
0
10
116.840000
20
866.727000
11
113.453000
21
866.727000
0
LINE
8
0
10
113.453000
20
866.727000
11
113.453000
21
871.807000
0
LINE
8
0
10
113.453000
20
871.807000
11
108.373000
21
871.807000
0
LINE
8
0
10
108.373000
20
871.807000
11
108.373000
21
875.194000
0
LINE
8
0
10
108.373000
20
875.194000
11
113.453000
21
875.194000
0
LINE
8
0
10
113.453000
20
875.194000
11
113.453000
21
880.274000
0
LINE
8
0
10
113.453000
20
920.914000
11
116.840000
21
920.914000
0
LINE
8
0
10
116.840000
20
920.914000
11
116.840000
21
915.834000
0
LINE
8
0
10
116.840000
20
915.834000
11
121.920000
21
915.834000
0
LINE
8
0
10
121.920000
20
915.834000
11
121.920000
21
912.447000
0
LINE
8
0
10
121.920000
20
912.447000
11
116.840000
21
912.447000
0
LINE
8
0
10
116.840000
20
912.447000
11
116.840000
21
907.367000
0
LINE
8
0
10
116.840000
20
907.367000
11
113.453000
21
907.367000
0
LINE
8
0
10
113.453000
20
907.367000
11
113.453000
21
912.447000
0
LINE
8
0
10
113.453000
20
912.447000
11
108.373000
21
912.447000
0
LINE
8
0
10
108.373000
20
912.447000
11
108.373000
21
915.834000
0
LINE
8
0
10
108.373000
20
915.834000
11
113.453000
21
915.834000
0
LINE
8
0
10
113.453000
20
915.834000
11
113.453000
21
920.914000
0
LINE
8
0
10
113.453000
20
961.554000
11
116.840000
21
961.554000
0
LINE
8
0
10
116.840000
20
961.554000
11
116.840000
21
956.474000
0
LINE
8
0
10
116.840000
20
956.474000
11
121.920000
21
956.474000
0
LINE
8
0
10
121.920000
20
956.474000
11
121.920000
21
953.087000
0
LINE
8
0
10
121.920000
20
953.087000
11
116.840000
21
953.087000
0
LINE
8
0
10
116.840000
20
953.087000
11
116.840000
21
948.007000
0
LINE
8
0
10
116.840000
20
948.007000
11
113.453000
21
948.007000
0
LINE
8
0
10
113.453000
20
948.007000
11
113.453000
21
953.087000
0
LINE
8
0
10
113.453000
20
953.087000
11
108.373000
21
953.087000
0
LINE
8
0
10
108.373000
20
953.087000
11
108.373000
21
956.474000
0
LINE
8
0
10
108.373000
20
956.474000
11
113.453000
21
956.474000
0
LINE
8
0
10
113.453000
20
956.474000
11
113.453000
21
961.554000
0
LINE
8
0
10
113.453000
20
1002.190000
11
116.840000
21
1002.190000
0
LINE
8
0
10
116.840000
20
1002.190000
11
116.840000
21
997.114000
0
LINE
8
0
10
116.840000
20
997.114000
11
121.920000
21
997.114000
0
LINE
8
0
10
121.920000
20
997.114000
11
121.920000
21
993.727000
0
LINE
8
0
10
121.920000
20
993.727000
11
116.840000
21
993.727000
0
LINE
8
0
10
116.840000
20
993.727000
11
116.840000
21
988.647000
0
LINE
8
0
10
116.840000
20
988.647000
11
113.453000
21
988.647000
0
LINE
8
0
10
113.453000
20
988.647000
11
113.453000
21
993.727000
0
LINE
8
0
10
113.453000
20
993.727000
11
108.373000
21
993.727000
0
LINE
8
0
10
108.373000
20
993.727000
11
108.373000
21
997.114000
0
LINE
8
0
10
108.373000
20
997.114000
11
113.453000
21
997.114000
0
LINE
8
0
10
72.813300
20
433.234000
11
76.199900
21
433.234000
0
LINE
8
0
10
76.199900
20
433.234000
11
76.199900
21
428.154000
0
LINE
8
0
10
76.199900
20
428.154000
11
81.279900
21
428.154000
0
LINE
8
0
10
81.279900
20
428.154000
11
81.279900
21
424.768000
0
LINE
8
0
10
-8.466660
20
717.714000
11
-8.466660
21
704.167000
0
LINE
8
0
10
-8.466660
20
798.994000
11
-8.466660
21
785.447000
0
LINE
8
0
10
-8.466660
20
839.634000
11
-8.466660
21
826.087000
0
LINE
8
0
10
-8.466660
20
880.274000
11
-8.466660
21
866.727000
0
LINE
8
0
10
67.733300
20
424.768000
11
67.733300
21
428.154000
0
LINE
8
0
10
67.733300
20
428.154000
11
72.813300
21
428.154000
0
LINE
8
0
10
601.133000
20
433.234000
11
604.520000
21
433.234000
0
LINE
8
0
10
72.813300
20
428.154000
11
72.813300
21
433.234000
0
LINE
8
0
10
72.813300
20
473.874000
11
76.199900
21
473.874000
0
LINE
8
0
10
76.199900
20
473.874000
11
76.199900
21
468.794000
0
LINE
8
0
10
76.199900
20
468.794000
11
81.279900
21
468.794000
0
LINE
8
0
10
81.279900
20
468.794000
11
81.279900
21
465.407000
0
LINE
8
0
10
81.279900
20
465.407000
11
76.199900
21
465.407000
0
LINE
8
0
10
76.199900
20
465.407000
11
76.199900
21
460.327000
0
LINE
8
0
10
76.199900
20
460.327000
11
72.813300
21
460.327000
0
LINE
8
0
10
72.813300
20
460.327000
11
72.813300
21
465.407000
0
LINE
8
0
10
72.813300
20
465.407000
11
67.733300
21
465.407000
0
LINE
8
0
10
67.733300
20
465.407000
11
67.733300
21
468.794000
0
LINE
8
0
10
67.733300
20
468.794000
11
72.813300
21
468.794000
0
LINE
8
0
10
72.813300
20
468.794000
11
72.813300
21
473.874000
0
LINE
8
0
10
113.453000
20
997.114000
11
113.453000
21
1002.190000
0
LINE
8
0
10
108.373000
20
1037.750000
11
121.920000
21
1037.750000
0
LINE
8
0
10
121.920000
20
1037.750000
11
121.920000
21
1034.370000
0
LINE
8
0
10
121.920000
20
1034.370000
11
116.840000
21
1034.370000
0
LINE
8
0
10
116.840000
20
1034.370000
11
116.840000
21
1029.290000
0
LINE
8
0
10
116.840000
20
1029.290000
11
113.453000
21
1029.290000
0
LINE
8
0
10
113.453000
20
1029.290000
11
113.453000
21
1034.370000
0
LINE
8
0
10
113.453000
20
1034.370000
11
108.373000
21
1034.370000
0
LINE
8
0
10
108.373000
20
1034.370000
11
108.373000
21
1037.750000
0
LINE
8
0
10
81.279900
20
406.141000
11
108.373000
21
406.141000
0
LINE
8
0
10
238.760000
20
514.514000
11
238.760000
21
509.434000
0
LINE
8
0
10
604.520000
20
433.234000
11
604.520000
21
424.768000
0
LINE
8
0
10
604.520000
20
473.874000
11
604.520000
21
460.327000
0
LINE
8
0
10
238.760000
20
509.434000
11
243.840000
21
509.434000
0
LINE
8
0
10
243.840000
20
509.434000
11
243.840000
21
506.047000
0
LINE
8
0
10
243.840000
20
506.047000
11
238.760000
21
506.047000
0
LINE
8
0
10
108.373000
20
406.141000
11
108.373000
21
419.688000
0
LINE
8
0
10
-8.466660
20
920.914000
11
-8.466660
21
907.367000
0
LINE
8
0
10
604.520000
20
424.768000
11
596.053000
21
424.768000
0
LINE
8
0
10
596.053000
20
424.768000
11
596.053000
21
428.154000
0
LINE
8
0
10
596.053000
20
428.154000
11
601.133000
21
428.154000
0
LINE
8
0
10
601.133000
20
428.154000
11
601.133000
21
433.234000
0
LINE
8
0
10
601.133000
20
473.874000
11
604.520000
21
473.874000
0
LINE
8
0
10
238.760000
20
506.047000
11
238.760000
21
500.967000
0
LINE
8
0
10
238.760000
20
500.967000
11
235.373000
21
500.967000
0
LINE
8
0
10
235.373000
20
500.967000
11
235.373000
21
506.047000
0
LINE
8
0
10
235.373000
20
506.047000
11
230.293000
21
506.047000
0
LINE
8
0
10
230.293000
20
506.047000
11
230.293000
21
509.434000
0
LINE
8
0
10
604.520000
20
460.327000
11
601.133000
21
460.327000
0
LINE
8
0
10
601.133000
20
460.327000
11
601.133000
21
465.407000
0
LINE
8
0
10
601.133000
20
465.407000
11
596.053000
21
465.407000
0
LINE
8
0
10
596.053000
20
465.407000
11
596.053000
21
468.794000
0
LINE
8
0
10
596.053000
20
468.794000
11
601.133000
21
468.794000
0
LINE
8
0
10
601.133000
20
468.794000
11
601.133000
21
473.874000
0
LINE
8
0
10
230.293000
20
509.434000
11
235.373000
21
509.434000
0
LINE
8
0
10
235.373000
20
509.434000
11
235.373000
21
514.514000
0
LINE
8
0
10
235.373000
20
555.154000
11
238.760000
21
555.154000
0
LINE
8
0
10
238.760000
20
555.154000
11
238.760000
21
550.074000
0
LINE
8
0
10
238.760000
20
550.074000
11
243.840000
21
550.074000
0
LINE
8
0
10
243.840000
20
550.074000
11
243.840000
21
546.687000
0
LINE
8
0
10
243.840000
20
546.687000
11
238.760000
21
546.687000
0
LINE
8
0
10
238.760000
20
546.687000
11
238.760000
21
541.607000
0
LINE
8
0
10
238.760000
20
541.607000
11
235.373000
21
541.607000
0
LINE
8
0
10
235.373000
20
541.607000
11
235.373000
21
546.687000
0
LINE
8
0
10
235.373000
20
546.687000
11
230.293000
21
546.687000
0
LINE
8
0
10
230.293000
20
546.687000
11
230.293000
21
550.074000
0
LINE
8
0
10
230.293000
20
550.074000
11
235.373000
21
550.074000
0
LINE
8
0
10
-8.466660
20
961.554000
11
-8.466660
21
948.007000
0
LINE
8
0
10
-8.466660
20
1002.190000
11
-8.466660
21
988.647000
0
LINE
8
0
10
235.373000
20
550.074000
11
235.373000
21
555.154000
0
LINE
8
0
10
235.373000
20
595.794000
11
238.760000
21
595.794000
0
LINE
8
0
10
238.760000
20
595.794000
11
238.760000
21
590.714000
0
LINE
8
0
10
238.760000
20
590.714000
11
243.840000
21
590.714000
0
LINE
8
0
10
243.840000
20
590.714000
11
243.840000
21
587.327000
0
LINE
8
0
10
243.840000
20
587.327000
11
238.760000
21
587.327000
0
LINE
8
0
10
238.760000
20
587.327000
11
238.760000
21
582.247000
0
LINE
8
0
10
238.760000
20
582.247000
11
235.373000
21
582.247000
0
LINE
8
0
10
235.373000
20
582.247000
11
235.373000
21
587.327000
0
LINE
8
0
10
235.373000
20
587.327000
11
230.293000
21
587.327000
0
LINE
8
0
10
230.293000
20
587.327000
11
230.293000
21
590.714000
0
LINE
8
0
10
230.293000
20
590.714000
11
235.373000
21
590.714000
0
LINE
8
0
10
235.373000
20
590.714000
11
235.373000
21
595.794000
0
LINE
8
0
10
235.373000
20
636.434000
11
238.760000
21
636.434000
0
LINE
8
0
10
238.760000
20
636.434000
11
238.760000
21
631.354000
0
LINE
8
0
10
238.760000
20
631.354000
11
243.840000
21
631.354000
0
LINE
8
0
10
243.840000
20
631.354000
11
243.840000
21
627.967000
0
LINE
8
0
10
243.840000
20
627.967000
11
238.760000
21
627.967000
0
LINE
8
0
10
238.760000
20
627.967000
11
238.760000
21
622.887000
0
LINE
8
0
10
238.760000
20
622.887000
11
235.373000
21
622.887000
0
LINE
8
0
10
235.373000
20
622.887000
11
235.373000
21
627.967000
0
LINE
8
0
10
235.373000
20
627.967000
11
230.293000
21
627.967000
0
LINE
8
0
10
230.293000
20
627.967000
11
230.293000
21
631.354000
0
LINE
8
0
10
230.293000
20
631.354000
11
235.373000
21
631.354000
0
LINE
8
0
10
235.373000
20
631.354000
11
235.373000
21
636.434000
0
LINE
8
0
10
235.373000
20
677.074000
11
238.760000
21
677.074000
0
LINE
8
0
10
238.760000
20
677.074000
11
238.760000
21
671.994000
0
LINE
8
0
10
238.760000
20
671.994000
11
243.840000
21
671.994000
0
LINE
8
0
10
243.840000
20
671.994000
11
243.840000
21
668.607000
0
LINE
8
0
10
243.840000
20
668.607000
11
238.760000
21
668.607000
0
LINE
8
0
10
238.760000
20
668.607000
11
238.760000
21
663.527000
0
LINE
8
0
10
238.760000
20
663.527000
11
235.373000
21
663.527000
0
LINE
8
0
10
235.373000
20
663.527000
11
235.373000
21
668.607000
0
LINE
8
0
10
235.373000
20
668.607000
11
230.293000
21
668.607000
0
LINE
8
0
10
230.293000
20
668.607000
11
230.293000
21
671.994000
0
LINE
8
0
10
230.293000
20
671.994000
11
235.373000
21
671.994000
0
LINE
8
0
10
235.373000
20
671.994000
11
235.373000
21
677.074000
0
LINE
8
0
10
235.373000
20
717.714000
11
238.760000
21
717.714000
0
LINE
8
0
10
238.760000
20
717.714000
11
238.760000
21
712.634000
0
LINE
8
0
10
238.760000
20
712.634000
11
243.840000
21
712.634000
0
LINE
8
0
10
243.840000
20
712.634000
11
243.840000
21
709.247000
0
LINE
8
0
10
243.840000
20
709.247000
11
238.760000
21
709.247000
0
LINE
8
0
10
238.760000
20
709.247000
11
238.760000
21
704.167000
0
LINE
8
0
10
238.760000
20
704.167000
11
235.373000
21
704.167000
0
LINE
8
0
10
235.373000
20
704.167000
11
235.373000
21
709.247000
0
LINE
8
0
10
235.373000
20
709.247000
11
230.293000
21
709.247000
0
LINE
8
0
10
230.293000
20
709.247000
11
230.293000
21
712.634000
0
LINE
8
0
10
230.293000
20
712.634000
11
235.373000
21
712.634000
0
LINE
8
0
10
235.373000
20
712.634000
11
235.373000
21
717.714000
0
LINE
8
0
10
235.373000
20
744.807000
11
238.760000
21
744.807000
0
LINE
8
0
10
235.373000
20
758.354000
11
238.760000
21
758.354000
0
LINE
8
0
10
238.760000
20
758.354000
11
238.760000
21
753.274000
0
LINE
8
0
10
238.760000
20
753.274000
11
243.840000
21
753.274000
0
LINE
8
0
10
243.840000
20
753.274000
11
243.840000
21
749.887000
0
LINE
8
0
10
243.840000
20
749.887000
11
238.760000
21
749.887000
0
LINE
8
0
10
238.760000
20
749.887000
11
238.760000
21
744.807000
0
LINE
8
0
10
235.373000
20
744.807000
11
235.373000
21
749.887000
0
LINE
8
0
10
235.373000
20
749.887000
11
230.293000
21
749.887000
0
LINE
8
0
10
230.293000
20
749.887000
11
230.293000
21
753.274000
0
LINE
8
0
10
560.493000
20
433.234000
11
563.880000
21
433.234000
0
LINE
8
0
10
563.880000
20
433.234000
11
563.880000
21
428.154000
0
LINE
8
0
10
563.880000
20
428.154000
11
568.960000
21
428.154000
0
LINE
8
0
10
568.960000
20
428.154000
11
568.960000
21
424.768000
0
LINE
8
0
10
230.293000
20
753.274000
11
235.373000
21
753.274000
0
LINE
8
0
10
235.373000
20
753.274000
11
235.373000
21
758.354000
0
LINE
8
0
10
108.373000
20
419.688000
11
121.920000
21
419.688000
0
LINE
8
0
10
235.373000
20
798.994000
11
238.760000
21
798.994000
0
LINE
8
0
10
238.760000
20
798.994000
11
238.760000
21
793.914000
0
LINE
8
0
10
555.413000
20
424.768000
11
555.413000
21
428.154000
0
LINE
8
0
10
555.413000
20
428.154000
11
560.493000
21
428.154000
0
LINE
8
0
10
560.493000
20
428.154000
11
560.493000
21
433.234000
0
LINE
8
0
10
560.493000
20
473.874000
11
563.880000
21
473.874000
0
LINE
8
0
10
563.880000
20
473.874000
11
563.880000
21
468.794000
0
LINE
8
0
10
563.880000
20
468.794000
11
568.960000
21
468.794000
0
LINE
8
0
10
568.960000
20
468.794000
11
568.960000
21
465.407000
0
LINE
8
0
10
568.960000
20
465.407000
11
563.880000
21
465.407000
0
LINE
8
0
10
563.880000
20
465.407000
11
563.880000
21
460.327000
0
LINE
8
0
10
563.880000
20
460.327000
11
560.493000
21
460.327000
0
LINE
8
0
10
560.493000
20
460.327000
11
560.493000
21
465.407000
0
LINE
8
0
10
560.493000
20
465.407000
11
555.413000
21
465.407000
0
LINE
8
0
10
555.413000
20
465.407000
11
555.413000
21
468.794000
0
LINE
8
0
10
555.413000
20
468.794000
11
560.493000
21
468.794000
0
LINE
8
0
10
560.493000
20
468.794000
11
560.493000
21
473.874000
0
LINE
8
0
10
238.760000
20
793.914000
11
243.840000
21
793.914000
0
LINE
8
0
10
243.840000
20
793.914000
11
243.840000
21
790.527000
0
LINE
8
0
10
243.840000
20
790.527000
11
238.760000
21
790.527000
0
LINE
8
0
10
238.760000
20
790.527000
11
238.760000
21
785.447000
0
LINE
8
0
10
238.760000
20
785.447000
11
235.373000
21
785.447000
0
LINE
8
0
10
235.373000
20
785.447000
11
235.373000
21
790.527000
0
LINE
8
0
10
235.373000
20
790.527000
11
230.293000
21
790.527000
0
LINE
8
0
10
230.293000
20
790.527000
11
230.293000
21
793.914000
0
LINE
8
0
10
230.293000
20
793.914000
11
235.373000
21
793.914000
0
LINE
8
0
10
235.373000
20
793.914000
11
235.373000
21
798.994000
0
LINE
8
0
10
235.373000
20
839.634000
11
238.760000
21
839.634000
0
LINE
8
0
10
238.760000
20
839.634000
11
238.760000
21
834.554000
0
LINE
8
0
10
238.760000
20
834.554000
11
243.840000
21
834.554000
0
LINE
8
0
10
243.840000
20
834.554000
11
243.840000
21
831.167000
0
LINE
8
0
10
243.840000
20
831.167000
11
238.760000
21
831.167000
0
LINE
8
0
10
238.760000
20
831.167000
11
238.760000
21
826.087000
0
LINE
8
0
10
238.760000
20
826.087000
11
235.373000
21
826.087000
0
LINE
8
0
10
235.373000
20
826.087000
11
235.373000
21
831.167000
0
LINE
8
0
10
235.373000
20
831.167000
11
230.293000
21
831.167000
0
LINE
8
0
10
230.293000
20
831.167000
11
230.293000
21
834.554000
0
LINE
8
0
10
230.293000
20
834.554000
11
235.373000
21
834.554000
0
LINE
8
0
10
235.373000
20
834.554000
11
235.373000
21
839.634000
0
LINE
8
0
10
235.373000
20
880.274000
11
238.760000
21
880.274000
0
LINE
8
0
10
238.760000
20
880.274000
11
238.760000
21
875.194000
0
LINE
8
0
10
238.760000
20
875.194000
11
243.840000
21
875.194000
0
LINE
8
0
10
519.853000
20
433.234000
11
523.240000
21
433.234000
0
LINE
8
0
10
523.240000
20
433.234000
11
523.240000
21
428.154000
0
LINE
8
0
10
523.240000
20
428.154000
11
528.320000
21
428.154000
0
LINE
8
0
10
528.320000
20
428.154000
11
528.320000
21
424.768000
0
LINE
8
0
10
243.840000
20
875.194000
11
243.840000
21
871.807000
0
LINE
8
0
10
243.840000
20
871.807000
11
238.760000
21
871.807000
0
LINE
8
0
10
121.920000
20
419.688000
11
121.920000
21
406.141000
0
LINE
8
0
10
238.760000
20
871.807000
11
238.760000
21
866.727000
0
LINE
8
0
10
238.760000
20
866.727000
11
235.373000
21
866.727000
0
LINE
8
0
10
514.773000
20
424.768000
11
514.773000
21
428.154000
0
LINE
8
0
10
514.773000
20
428.154000
11
519.853000
21
428.154000
0
LINE
8
0
10
519.853000
20
428.154000
11
519.853000
21
433.234000
0
LINE
8
0
10
519.853000
20
473.874000
11
523.240000
21
473.874000
0
LINE
8
0
10
523.240000
20
473.874000
11
523.240000
21
468.794000
0
LINE
8
0
10
523.240000
20
468.794000
11
528.320000
21
468.794000
0
LINE
8
0
10
528.320000
20
468.794000
11
528.320000
21
465.407000
0
LINE
8
0
10
528.320000
20
465.407000
11
523.240000
21
465.407000
0
LINE
8
0
10
523.240000
20
465.407000
11
523.240000
21
460.327000
0
LINE
8
0
10
523.240000
20
460.327000
11
519.853000
21
460.327000
0
LINE
8
0
10
519.853000
20
460.327000
11
519.853000
21
465.407000
0
LINE
8
0
10
519.853000
20
465.407000
11
514.773000
21
465.407000
0
LINE
8
0
10
514.773000
20
465.407000
11
514.773000
21
468.794000
0
LINE
8
0
10
514.773000
20
468.794000
11
519.853000
21
468.794000
0
LINE
8
0
10
519.853000
20
468.794000
11
519.853000
21
473.874000
0
LINE
8
0
10
235.373000
20
866.727000
11
235.373000
21
871.807000
0
LINE
8
0
10
235.373000
20
871.807000
11
230.293000
21
871.807000
0
LINE
8
0
10
230.293000
20
871.807000
11
230.293000
21
875.194000
0
LINE
8
0
10
230.293000
20
875.194000
11
235.373000
21
875.194000
0
LINE
8
0
10
235.373000
20
875.194000
11
235.373000
21
880.274000
0
LINE
8
0
10
235.373000
20
920.914000
11
238.760000
21
920.914000
0
LINE
8
0
10
238.760000
20
920.914000
11
238.760000
21
915.834000
0
LINE
8
0
10
238.760000
20
915.834000
11
243.840000
21
915.834000
0
LINE
8
0
10
243.840000
20
915.834000
11
243.840000
21
912.447000
0
LINE
8
0
10
243.840000
20
912.447000
11
238.760000
21
912.447000
0
LINE
8
0
10
238.760000
20
912.447000
11
238.760000
21
907.367000
0
LINE
8
0
10
238.760000
20
907.367000
11
235.373000
21
907.367000
0
LINE
8
0
10
235.373000
20
907.367000
11
235.373000
21
912.447000
0
LINE
8
0
10
235.373000
20
912.447000
11
230.293000
21
912.447000
0
LINE
8
0
10
230.293000
20
912.447000
11
230.293000
21
915.834000
0
LINE
8
0
10
230.293000
20
915.834000
11
235.373000
21
915.834000
0
LINE
8
0
10
235.373000
20
915.834000
11
235.373000
21
920.914000
0
LINE
8
0
10
235.373000
20
961.554000
11
238.760000
21
961.554000
0
LINE
8
0
10
238.760000
20
961.554000
11
238.760000
21
956.474000
0
LINE
8
0
10
238.760000
20
956.474000
11
243.840000
21
956.474000
0
LINE
8
0
10
243.840000
20
956.474000
11
243.840000
21
953.087000
0
LINE
8
0
10
243.840000
20
953.087000
11
238.760000
21
953.087000
0
LINE
8
0
10
238.760000
20
953.087000
11
238.760000
21
948.007000
0
LINE
8
0
10
238.760000
20
948.007000
11
235.373000
21
948.007000
0
LINE
8
0
10
235.373000
20
948.007000
11
235.373000
21
953.087000
0
LINE
8
0
10
479.213000
20
433.234000
11
482.600000
21
433.234000
0
LINE
8
0
10
482.600000
20
433.234000
11
482.600000
21
428.154000
0
LINE
8
0
10
482.600000
20
428.154000
11
487.680000
21
428.154000
0
LINE
8
0
10
487.680000
20
428.154000
11
487.680000
21
424.768000
0
LINE
8
0
10
235.373000
20
953.087000
11
230.293000
21
953.087000
0
LINE
8
0
10
230.293000
20
953.087000
11
230.293000
21
956.474000
0
LINE
8
0
10
121.920000
20
406.141000
11
149.013000
21
406.141000
0
LINE
8
0
10
230.293000
20
956.474000
11
235.373000
21
956.474000
0
LINE
8
0
10
235.373000
20
956.474000
11
235.373000
21
961.554000
0
LINE
8
0
10
474.133000
20
424.768000
11
474.133000
21
428.154000
0
LINE
8
0
10
474.133000
20
428.154000
11
479.213000
21
428.154000
0
LINE
8
0
10
479.213000
20
428.154000
11
479.213000
21
433.234000
0
LINE
8
0
10
479.213000
20
473.874000
11
482.600000
21
473.874000
0
LINE
8
0
10
482.600000
20
473.874000
11
482.600000
21
468.794000
0
LINE
8
0
10
482.600000
20
468.794000
11
487.680000
21
468.794000
0
LINE
8
0
10
487.680000
20
468.794000
11
487.680000
21
465.407000
0
LINE
8
0
10
487.680000
20
465.407000
11
482.600000
21
465.407000
0
LINE
8
0
10
482.600000
20
465.407000
11
482.600000
21
460.327000
0
LINE
8
0
10
482.600000
20
460.327000
11
479.213000
21
460.327000
0
LINE
8
0
10
479.213000
20
460.327000
11
479.213000
21
465.407000
0
LINE
8
0
10
479.213000
20
465.407000
11
474.133000
21
465.407000
0
LINE
8
0
10
474.133000
20
465.407000
11
474.133000
21
468.794000
0
LINE
8
0
10
474.133000
20
468.794000
11
479.213000
21
468.794000
0
LINE
8
0
10
479.213000
20
468.794000
11
479.213000
21
473.874000
0
LINE
8
0
10
235.373000
20
1002.190000
11
238.760000
21
1002.190000
0
LINE
8
0
10
238.760000
20
1002.190000
11
238.760000
21
997.114000
0
LINE
8
0
10
238.760000
20
997.114000
11
243.840000
21
997.114000
0
LINE
8
0
10
243.840000
20
997.114000
11
243.840000
21
993.727000
0
LINE
8
0
10
243.840000
20
993.727000
11
238.760000
21
993.727000
0
LINE
8
0
10
238.760000
20
993.727000
11
238.760000
21
988.647000
0
LINE
8
0
10
238.760000
20
988.647000
11
235.373000
21
988.647000
0
LINE
8
0
10
235.373000
20
988.647000
11
235.373000
21
993.727000
0
LINE
8
0
10
235.373000
20
993.727000
11
230.293000
21
993.727000
0
LINE
8
0
10
230.293000
20
993.727000
11
230.293000
21
997.114000
0
LINE
8
0
10
230.293000
20
997.114000
11
235.373000
21
997.114000
0
LINE
8
0
10
235.373000
20
997.114000
11
235.373000
21
1002.190000
0
LINE
8
0
10
230.293000
20
1037.750000
11
243.840000
21
1037.750000
0
LINE
8
0
10
243.840000
20
1037.750000
11
243.840000
21
1034.370000
0
LINE
8
0
10
243.840000
20
1034.370000
11
238.760000
21
1034.370000
0
LINE
8
0
10
238.760000
20
1034.370000
11
238.760000
21
1029.290000
0
LINE
8
0
10
238.760000
20
1029.290000
11
235.373000
21
1029.290000
0
LINE
8
0
10
235.373000
20
1029.290000
11
235.373000
21
1034.370000
0
LINE
8
0
10
235.373000
20
1034.370000
11
230.293000
21
1034.370000
0
LINE
8
0
10
230.293000
20
1034.370000
11
230.293000
21
1037.750000
0
LINE
8
0
10
316.653000
20
514.514000
11
320.040000
21
514.514000
0
LINE
8
0
10
320.040000
20
514.514000
11
320.040000
21
509.434000
0
LINE
8
0
10
320.040000
20
509.434000
11
325.120000
21
509.434000
0
LINE
8
0
10
325.120000
20
509.434000
11
325.120000
21
506.047000
0
LINE
8
0
10
325.120000
20
506.047000
11
320.040000
21
506.047000
0
LINE
8
0
10
320.040000
20
506.047000
11
320.040000
21
500.967000
0
LINE
8
0
10
320.040000
20
500.967000
11
316.653000
21
500.967000
0
LINE
8
0
10
316.653000
20
500.967000
11
316.653000
21
506.047000
0
LINE
8
0
10
316.653000
20
506.047000
11
311.573000
21
506.047000
0
LINE
8
0
10
311.573000
20
506.047000
11
311.573000
21
509.434000
0
LINE
8
0
10
311.573000
20
509.434000
11
316.653000
21
509.434000
0
LINE
8
0
10
316.653000
20
509.434000
11
316.653000
21
514.514000
0
LINE
8
0
10
316.653000
20
555.154000
11
320.040000
21
555.154000
0
LINE
8
0
10
320.040000
20
555.154000
11
320.040000
21
550.074000
0
LINE
8
0
10
320.040000
20
550.074000
11
325.120000
21
550.074000
0
LINE
8
0
10
325.120000
20
550.074000
11
325.120000
21
546.687000
0
LINE
8
0
10
325.120000
20
546.687000
11
320.040000
21
546.687000
0
LINE
8
0
10
320.040000
20
546.687000
11
320.040000
21
541.607000
0
LINE
8
0
10
320.040000
20
541.607000
11
316.653000
21
541.607000
0
LINE
8
0
10
316.653000
20
541.607000
11
316.653000
21
546.687000
0
LINE
8
0
10
316.653000
20
546.687000
11
311.573000
21
546.687000
0
LINE
8
0
10
311.573000
20
546.687000
11
311.573000
21
550.074000
0
LINE
8
0
10
311.573000
20
550.074000
11
316.653000
21
550.074000
0
LINE
8
0
10
316.653000
20
550.074000
11
316.653000
21
555.154000
0
LINE
8
0
10
316.653000
20
595.794000
11
320.040000
21
595.794000
0
LINE
8
0
10
320.040000
20
595.794000
11
320.040000
21
590.714000
0
LINE
8
0
10
320.040000
20
590.714000
11
325.120000
21
590.714000
0
LINE
8
0
10
325.120000
20
590.714000
11
325.120000
21
587.327000
0
LINE
8
0
10
325.120000
20
587.327000
11
320.040000
21
587.327000
0
LINE
8
0
10
320.040000
20
587.327000
11
320.040000
21
582.247000
0
LINE
8
0
10
320.040000
20
582.247000
11
316.653000
21
582.247000
0
LINE
8
0
10
316.653000
20
582.247000
11
316.653000
21
587.327000
0
LINE
8
0
10
316.653000
20
587.327000
11
311.573000
21
587.327000
0
LINE
8
0
10
311.573000
20
587.327000
11
311.573000
21
590.714000
0
LINE
8
0
10
311.573000
20
590.714000
11
316.653000
21
590.714000
0
LINE
8
0
10
316.653000
20
590.714000
11
316.653000
21
595.794000
0
LINE
8
0
10
316.653000
20
636.434000
11
320.040000
21
636.434000
0
LINE
8
0
10
320.040000
20
636.434000
11
320.040000
21
631.354000
0
LINE
8
0
10
320.040000
20
631.354000
11
325.120000
21
631.354000
0
LINE
8
0
10
325.120000
20
631.354000
11
325.120000
21
627.967000
0
LINE
8
0
10
325.120000
20
627.967000
11
320.040000
21
627.967000
0
LINE
8
0
10
320.040000
20
627.967000
11
320.040000
21
622.887000
0
LINE
8
0
10
320.040000
20
622.887000
11
316.653000
21
622.887000
0
LINE
8
0
10
316.653000
20
622.887000
11
316.653000
21
627.967000
0
LINE
8
0
10
316.653000
20
627.967000
11
311.573000
21
627.967000
0
LINE
8
0
10
311.573000
20
627.967000
11
311.573000
21
631.354000
0
LINE
8
0
10
311.573000
20
631.354000
11
316.653000
21
631.354000
0
LINE
8
0
10
316.653000
20
631.354000
11
316.653000
21
636.434000
0
LINE
8
0
10
316.653000
20
677.074000
11
320.040000
21
677.074000
0
LINE
8
0
10
320.040000
20
677.074000
11
320.040000
21
671.994000
0
LINE
8
0
10
320.040000
20
671.994000
11
325.120000
21
671.994000
0
LINE
8
0
10
325.120000
20
671.994000
11
325.120000
21
668.607000
0
LINE
8
0
10
325.120000
20
668.607000
11
320.040000
21
668.607000
0
LINE
8
0
10
320.040000
20
668.607000
11
320.040000
21
663.527000
0
LINE
8
0
10
320.040000
20
663.527000
11
316.653000
21
663.527000
0
LINE
8
0
10
316.653000
20
663.527000
11
316.653000
21
668.607000
0
LINE
8
0
10
316.653000
20
668.607000
11
311.573000
21
668.607000
0
LINE
8
0
10
311.573000
20
668.607000
11
311.573000
21
671.994000
0
LINE
8
0
10
311.573000
20
671.994000
11
316.653000
21
671.994000
0
LINE
8
0
10
316.653000
20
671.994000
11
316.653000
21
677.074000
0
LINE
8
0
10
316.653000
20
717.714000
11
320.040000
21
717.714000
0
LINE
8
0
10
320.040000
20
717.714000
11
320.040000
21
712.634000
0
LINE
8
0
10
320.040000
20
712.634000
11
325.120000
21
712.634000
0
LINE
8
0
10
325.120000
20
712.634000
11
325.120000
21
709.247000
0
LINE
8
0
10
325.120000
20
709.247000
11
320.040000
21
709.247000
0
LINE
8
0
10
320.040000
20
709.247000
11
320.040000
21
704.167000
0
LINE
8
0
10
320.040000
20
704.167000
11
316.653000
21
704.167000
0
LINE
8
0
10
316.653000
20
704.167000
11
316.653000
21
709.247000
0
LINE
8
0
10
316.653000
20
709.247000
11
311.573000
21
709.247000
0
LINE
8
0
10
311.573000
20
709.247000
11
311.573000
21
712.634000
0
LINE
8
0
10
311.573000
20
712.634000
11
316.653000
21
712.634000
0
LINE
8
0
10
316.653000
20
712.634000
11
316.653000
21
717.714000
0
LINE
8
0
10
316.653000
20
744.807000
11
320.040000
21
744.807000
0
LINE
8
0
10
316.653000
20
758.354000
11
320.040000
21
758.354000
0
LINE
8
0
10
320.040000
20
758.354000
11
320.040000
21
753.274000
0
LINE
8
0
10
320.040000
20
753.274000
11
325.120000
21
753.274000
0
LINE
8
0
10
325.120000
20
753.274000
11
325.120000
21
749.887000
0
LINE
8
0
10
325.120000
20
749.887000
11
320.040000
21
749.887000
0
LINE
8
0
10
320.040000
20
749.887000
11
320.040000
21
744.807000
0
LINE
8
0
10
316.653000
20
744.807000
11
316.653000
21
749.887000
0
LINE
8
0
10
316.653000
20
749.887000
11
311.573000
21
749.887000
0
LINE
8
0
10
311.573000
20
749.887000
11
311.573000
21
753.274000
0
LINE
8
0
10
311.573000
20
753.274000
11
316.653000
21
753.274000
0
LINE
8
0
10
316.653000
20
753.274000
11
316.653000
21
758.354000
0
LINE
8
0
10
316.653000
20
798.994000
11
320.040000
21
798.994000
0
LINE
8
0
10
320.040000
20
798.994000
11
320.040000
21
793.914000
0
LINE
8
0
10
320.040000
20
793.914000
11
325.120000
21
793.914000
0
LINE
8
0
10
325.120000
20
793.914000
11
325.120000
21
790.527000
0
LINE
8
0
10
325.120000
20
790.527000
11
320.040000
21
790.527000
0
LINE
8
0
10
320.040000
20
790.527000
11
320.040000
21
785.447000
0
LINE
8
0
10
320.040000
20
785.447000
11
316.653000
21
785.447000
0
LINE
8
0
10
316.653000
20
785.447000
11
316.653000
21
790.527000
0
LINE
8
0
10
316.653000
20
790.527000
11
311.573000
21
790.527000
0
LINE
8
0
10
311.573000
20
790.527000
11
311.573000
21
793.914000
0
LINE
8
0
10
311.573000
20
793.914000
11
316.653000
21
793.914000
0
LINE
8
0
10
316.653000
20
793.914000
11
316.653000
21
798.994000
0
LINE
8
0
10
316.653000
20
839.634000
11
320.040000
21
839.634000
0
LINE
8
0
10
320.040000
20
839.634000
11
320.040000
21
834.554000
0
LINE
8
0
10
320.040000
20
834.554000
11
325.120000
21
834.554000
0
LINE
8
0
10
325.120000
20
834.554000
11
325.120000
21
831.167000
0
LINE
8
0
10
325.120000
20
831.167000
11
320.040000
21
831.167000
0
LINE
8
0
10
320.040000
20
831.167000
11
320.040000
21
826.087000
0
LINE
8
0
10
320.040000
20
826.087000
11
316.653000
21
826.087000
0
LINE
8
0
10
316.653000
20
826.087000
11
316.653000
21
831.167000
0
LINE
8
0
10
316.653000
20
831.167000
11
311.573000
21
831.167000
0
LINE
8
0
10
311.573000
20
831.167000
11
311.573000
21
834.554000
0
LINE
8
0
10
311.573000
20
834.554000
11
316.653000
21
834.554000
0
LINE
8
0
10
316.653000
20
834.554000
11
316.653000
21
839.634000
0
LINE
8
0
10
316.653000
20
880.274000
11
320.040000
21
880.274000
0
LINE
8
0
10
320.040000
20
880.274000
11
320.040000
21
875.194000
0
LINE
8
0
10
320.040000
20
875.194000
11
325.120000
21
875.194000
0
LINE
8
0
10
325.120000
20
875.194000
11
325.120000
21
871.807000
0
LINE
8
0
10
325.120000
20
871.807000
11
320.040000
21
871.807000
0
LINE
8
0
10
320.040000
20
871.807000
11
320.040000
21
866.727000
0
LINE
8
0
10
320.040000
20
866.727000
11
316.653000
21
866.727000
0
LINE
8
0
10
316.653000
20
866.727000
11
316.653000
21
871.807000
0
LINE
8
0
10
316.653000
20
871.807000
11
311.573000
21
871.807000
0
LINE
8
0
10
311.573000
20
871.807000
11
311.573000
21
875.194000
0
LINE
8
0
10
311.573000
20
875.194000
11
316.653000
21
875.194000
0
LINE
8
0
10
316.653000
20
875.194000
11
316.653000
21
880.274000
0
LINE
8
0
10
316.653000
20
920.914000
11
320.040000
21
920.914000
0
LINE
8
0
10
320.040000
20
920.914000
11
320.040000
21
915.834000
0
LINE
8
0
10
320.040000
20
915.834000
11
325.120000
21
915.834000
0
LINE
8
0
10
325.120000
20
915.834000
11
325.120000
21
912.447000
0
LINE
8
0
10
325.120000
20
912.447000
11
320.040000
21
912.447000
0
LINE
8
0
10
320.040000
20
912.447000
11
320.040000
21
907.367000
0
LINE
8
0
10
320.040000
20
907.367000
11
316.653000
21
907.367000
0
LINE
8
0
10
316.653000
20
907.367000
11
316.653000
21
912.447000
0
LINE
8
0
10
316.653000
20
912.447000
11
311.573000
21
912.447000
0
LINE
8
0
10
311.573000
20
912.447000
11
311.573000
21
915.834000
0
LINE
8
0
10
311.573000
20
915.834000
11
316.653000
21
915.834000
0
LINE
8
0
10
316.653000
20
915.834000
11
316.653000
21
920.914000
0
LINE
8
0
10
316.653000
20
961.554000
11
320.040000
21
961.554000
0
LINE
8
0
10
320.040000
20
961.554000
11
320.040000
21
956.474000
0
LINE
8
0
10
320.040000
20
956.474000
11
325.120000
21
956.474000
0
LINE
8
0
10
325.120000
20
956.474000
11
325.120000
21
953.087000
0
LINE
8
0
10
325.120000
20
953.087000
11
320.040000
21
953.087000
0
LINE
8
0
10
320.040000
20
953.087000
11
320.040000
21
948.007000
0
LINE
8
0
10
320.040000
20
948.007000
11
316.653000
21
948.007000
0
LINE
8
0
10
316.653000
20
948.007000
11
316.653000
21
953.087000
0
LINE
8
0
10
316.653000
20
953.087000
11
311.573000
21
953.087000
0
LINE
8
0
10
311.573000
20
953.087000
11
311.573000
21
956.474000
0
LINE
8
0
10
311.573000
20
956.474000
11
316.653000
21
956.474000
0
LINE
8
0
10
316.653000
20
956.474000
11
316.653000
21
961.554000
0
LINE
8
0
10
316.653000
20
1002.190000
11
320.040000
21
1002.190000
0
LINE
8
0
10
320.040000
20
1002.190000
11
320.040000
21
997.114000
0
LINE
8
0
10
320.040000
20
997.114000
11
325.120000
21
997.114000
0
LINE
8
0
10
325.120000
20
997.114000
11
325.120000
21
993.727000
0
LINE
8
0
10
325.120000
20
993.727000
11
320.040000
21
993.727000
0
LINE
8
0
10
320.040000
20
993.727000
11
320.040000
21
988.647000
0
LINE
8
0
10
320.040000
20
988.647000
11
316.653000
21
988.647000
0
LINE
8
0
10
149.013000
20
406.141000
11
149.013000
21
419.688000
0
LINE
8
0
10
149.013000
20
419.688000
11
162.560000
21
419.688000
0
LINE
8
0
10
162.560000
20
419.688000
11
162.560000
21
406.141000
0
LINE
8
0
10
162.560000
20
406.141000
11
189.653000
21
406.141000
0
LINE
8
0
10
189.653000
20
406.141000
11
189.653000
21
419.688000
0
LINE
8
0
10
189.653000
20
419.688000
11
196.427000
21
419.688000
0
LINE
8
0
10
196.427000
20
419.688000
11
196.427000
21
351.954000
0
LINE
8
0
10
196.427000
20
351.954000
11
74.506600
21
351.954000
0
LINE
8
0
10
74.506600
20
351.954000
11
74.506600
21
419.688000
0
LINE
8
0
10
74.506600
20
419.688000
11
81.279900
21
419.688000
0
LINE
8
0
10
237.066000
20
351.954000
11
521.546000
21
351.954000
0
LINE
8
0
10
316.653000
20
988.647000
11
316.653000
21
993.727000
0
LINE
8
0
10
474.133000
20
419.688000
11
487.680000
21
419.688000
0
LINE
8
0
10
487.680000
20
419.688000
11
487.680000
21
406.141000
0
LINE
8
0
10
474.133000
20
419.688000
11
474.133000
21
406.141000
0
LINE
8
0
10
316.653000
20
993.727000
11
311.573000
21
993.727000
0
LINE
8
0
10
474.133000
20
406.141000
11
447.040000
21
406.141000
0
LINE
8
0
10
447.040000
20
406.141000
11
447.040000
21
419.688000
0
LINE
8
0
10
447.040000
20
419.688000
11
433.493000
21
419.688000
0
LINE
8
0
10
433.493000
20
419.688000
11
433.493000
21
406.141000
0
LINE
8
0
10
433.493000
20
406.141000
11
406.400000
21
406.141000
0
LINE
8
0
10
406.400000
20
406.141000
11
406.400000
21
419.688000
0
LINE
8
0
10
311.573000
20
993.727000
11
311.573000
21
997.114000
0
LINE
8
0
10
311.573000
20
997.114000
11
316.653000
21
997.114000
0
LINE
8
0
10
316.653000
20
997.114000
11
316.653000
21
1002.190000
0
LINE
8
0
10
311.573000
20
1037.750000
11
325.120000
21
1037.750000
0
LINE
8
0
10
325.120000
20
1037.750000
11
325.120000
21
1034.370000
0
LINE
8
0
10
325.120000
20
1034.370000
11
320.040000
21
1034.370000
0
LINE
8
0
10
320.040000
20
1034.370000
11
320.040000
21
1029.290000
0
LINE
8
0
10
320.040000
20
1029.290000
11
316.653000
21
1029.290000
0
LINE
8
0
10
316.653000
20
1029.290000
11
316.653000
21
1034.370000
0
LINE
8
0
10
316.653000
20
1034.370000
11
311.573000
21
1034.370000
0
LINE
8
0
10
311.573000
20
1034.370000
11
311.573000
21
1037.750000
0
LINE
8
0
10
276.013000
20
514.514000
11
279.400000
21
514.514000
0
LINE
8
0
10
279.400000
20
514.514000
11
279.400000
21
509.434000
0
LINE
8
0
10
279.400000
20
509.434000
11
284.480000
21
509.434000
0
LINE
8
0
10
284.480000
20
509.434000
11
284.480000
21
506.047000
0
LINE
8
0
10
284.480000
20
506.047000
11
279.400000
21
506.047000
0
LINE
8
0
10
279.400000
20
506.047000
11
279.400000
21
500.967000
0
LINE
8
0
10
279.400000
20
500.967000
11
276.013000
21
500.967000
0
LINE
8
0
10
276.013000
20
500.967000
11
276.013000
21
506.047000
0
LINE
8
0
10
276.013000
20
506.047000
11
270.933000
21
506.047000
0
LINE
8
0
10
270.933000
20
506.047000
11
270.933000
21
509.434000
0
LINE
8
0
10
270.933000
20
509.434000
11
276.013000
21
509.434000
0
LINE
8
0
10
276.013000
20
509.434000
11
276.013000
21
514.514000
0
LINE
8
0
10
276.013000
20
555.154000
11
279.400000
21
555.154000
0
LINE
8
0
10
279.400000
20
555.154000
11
279.400000
21
550.074000
0
LINE
8
0
10
279.400000
20
550.074000
11
284.480000
21
550.074000
0
LINE
8
0
10
284.480000
20
550.074000
11
284.480000
21
546.687000
0
LINE
8
0
10
284.480000
20
546.687000
11
279.400000
21
546.687000
0
LINE
8
0
10
279.400000
20
546.687000
11
279.400000
21
541.607000
0
LINE
8
0
10
279.400000
20
541.607000
11
276.013000
21
541.607000
0
LINE
8
0
10
276.013000
20
541.607000
11
276.013000
21
546.687000
0
LINE
8
0
10
276.013000
20
546.687000
11
270.933000
21
546.687000
0
LINE
8
0
10
270.933000
20
546.687000
11
270.933000
21
550.074000
0
LINE
8
0
10
270.933000
20
550.074000
11
276.013000
21
550.074000
0
LINE
8
0
10
276.013000
20
550.074000
11
276.013000
21
555.154000
0
LINE
8
0
10
276.013000
20
595.794000
11
279.400000
21
595.794000
0
LINE
8
0
10
279.400000
20
595.794000
11
279.400000
21
590.714000
0
LINE
8
0
10
279.400000
20
590.714000
11
284.480000
21
590.714000
0
LINE
8
0
10
397.933000
20
433.234000
11
401.320000
21
433.234000
0
LINE
8
0
10
401.320000
20
433.234000
11
401.320000
21
428.154000
0
LINE
8
0
10
401.320000
20
428.154000
11
406.400000
21
428.154000
0
LINE
8
0
10
406.400000
20
428.154000
11
406.400000
21
424.768000
0
LINE
8
0
10
284.480000
20
590.714000
11
284.480000
21
587.327000
0
LINE
8
0
10
284.480000
20
587.327000
11
279.400000
21
587.327000
0
LINE
8
0
10
279.400000
20
587.327000
11
279.400000
21
582.247000
0
LINE
8
0
10
279.400000
20
582.247000
11
276.013000
21
582.247000
0
LINE
8
0
10
392.853000
20
424.768000
11
392.853000
21
428.154000
0
LINE
8
0
10
392.853000
20
428.154000
11
397.933000
21
428.154000
0
LINE
8
0
10
397.933000
20
428.154000
11
397.933000
21
433.234000
0
LINE
8
0
10
397.933000
20
473.874000
11
401.320000
21
473.874000
0
LINE
8
0
10
401.320000
20
473.874000
11
401.320000
21
468.794000
0
LINE
8
0
10
401.320000
20
468.794000
11
406.400000
21
468.794000
0
LINE
8
0
10
406.400000
20
468.794000
11
406.400000
21
465.407000
0
LINE
8
0
10
406.400000
20
465.407000
11
401.320000
21
465.407000
0
LINE
8
0
10
401.320000
20
465.407000
11
401.320000
21
460.327000
0
LINE
8
0
10
401.320000
20
460.327000
11
397.933000
21
460.327000
0
LINE
8
0
10
397.933000
20
460.327000
11
397.933000
21
465.407000
0
LINE
8
0
10
397.933000
20
465.407000
11
392.853000
21
465.407000
0
LINE
8
0
10
392.853000
20
465.407000
11
392.853000
21
468.794000
0
LINE
8
0
10
392.853000
20
468.794000
11
397.933000
21
468.794000
0
LINE
8
0
10
397.933000
20
468.794000
11
397.933000
21
473.874000
0
LINE
8
0
10
276.013000
20
582.247000
11
276.013000
21
587.327000
0
LINE
8
0
10
276.013000
20
587.327000
11
270.933000
21
587.327000
0
LINE
8
0
10
270.933000
20
587.327000
11
270.933000
21
590.714000
0
LINE
8
0
10
270.933000
20
590.714000
11
276.013000
21
590.714000
0
LINE
8
0
10
276.013000
20
590.714000
11
276.013000
21
595.794000
0
LINE
8
0
10
276.013000
20
636.434000
11
279.400000
21
636.434000
0
LINE
8
0
10
279.400000
20
636.434000
11
279.400000
21
631.354000
0
LINE
8
0
10
279.400000
20
631.354000
11
284.480000
21
631.354000
0
LINE
8
0
10
284.480000
20
631.354000
11
284.480000
21
627.967000
0
LINE
8
0
10
284.480000
20
627.967000
11
279.400000
21
627.967000
0
LINE
8
0
10
279.400000
20
627.967000
11
279.400000
21
622.887000
0
LINE
8
0
10
279.400000
20
622.887000
11
276.013000
21
622.887000
0
LINE
8
0
10
276.013000
20
622.887000
11
276.013000
21
627.967000
0
LINE
8
0
10
276.013000
20
627.967000
11
270.933000
21
627.967000
0
LINE
8
0
10
270.933000
20
627.967000
11
270.933000
21
631.354000
0
LINE
8
0
10
270.933000
20
631.354000
11
276.013000
21
631.354000
0
LINE
8
0
10
276.013000
20
631.354000
11
276.013000
21
636.434000
0
LINE
8
0
10
276.013000
20
677.074000
11
279.400000
21
677.074000
0
LINE
8
0
10
279.400000
20
677.074000
11
279.400000
21
671.994000
0
LINE
8
0
10
279.400000
20
671.994000
11
284.480000
21
671.994000
0
LINE
8
0
10
284.480000
20
671.994000
11
284.480000
21
668.607000
0
LINE
8
0
10
284.480000
20
668.607000
11
279.400000
21
668.607000
0
LINE
8
0
10
279.400000
20
668.607000
11
279.400000
21
663.527000
0
LINE
8
0
10
279.400000
20
663.527000
11
276.013000
21
663.527000
0
LINE
8
0
10
357.293000
20
433.234000
11
360.680000
21
433.234000
0
LINE
8
0
10
360.680000
20
433.234000
11
360.680000
21
428.154000
0
LINE
8
0
10
360.680000
20
428.154000
11
365.760000
21
428.154000
0
LINE
8
0
10
365.760000
20
428.154000
11
365.760000
21
424.768000
0
LINE
8
0
10
276.013000
20
663.527000
11
276.013000
21
668.607000
0
LINE
8
0
10
276.013000
20
668.607000
11
270.933000
21
668.607000
0
LINE
8
0
10
270.933000
20
668.607000
11
270.933000
21
671.994000
0
LINE
8
0
10
270.933000
20
671.994000
11
276.013000
21
671.994000
0
LINE
8
0
10
352.213000
20
424.768000
11
352.213000
21
428.154000
0
LINE
8
0
10
352.213000
20
428.154000
11
357.293000
21
428.154000
0
LINE
8
0
10
357.293000
20
428.154000
11
357.293000
21
433.234000
0
LINE
8
0
10
357.293000
20
473.874000
11
360.680000
21
473.874000
0
LINE
8
0
10
360.680000
20
473.874000
11
360.680000
21
468.794000
0
LINE
8
0
10
360.680000
20
468.794000
11
365.760000
21
468.794000
0
LINE
8
0
10
365.760000
20
468.794000
11
365.760000
21
465.407000
0
LINE
8
0
10
365.760000
20
465.407000
11
360.680000
21
465.407000
0
LINE
8
0
10
360.680000
20
465.407000
11
360.680000
21
460.327000
0
LINE
8
0
10
360.680000
20
460.327000
11
357.293000
21
460.327000
0
LINE
8
0
10
357.293000
20
460.327000
11
357.293000
21
465.407000
0
LINE
8
0
10
357.293000
20
465.407000
11
352.213000
21
465.407000
0
LINE
8
0
10
352.213000
20
465.407000
11
352.213000
21
468.794000
0
LINE
8
0
10
352.213000
20
468.794000
11
357.293000
21
468.794000
0
LINE
8
0
10
357.293000
20
468.794000
11
357.293000
21
473.874000
0
LINE
8
0
10
276.013000
20
671.994000
11
276.013000
21
677.074000
0
LINE
8
0
10
276.013000
20
717.714000
11
279.400000
21
717.714000
0
LINE
8
0
10
279.400000
20
717.714000
11
279.400000
21
712.634000
0
LINE
8
0
10
279.400000
20
712.634000
11
284.480000
21
712.634000
0
LINE
8
0
10
284.480000
20
712.634000
11
284.480000
21
709.247000
0
LINE
8
0
10
284.480000
20
709.247000
11
279.400000
21
709.247000
0
LINE
8
0
10
279.400000
20
709.247000
11
279.400000
21
704.167000
0
LINE
8
0
10
279.400000
20
704.167000
11
276.013000
21
704.167000
0
LINE
8
0
10
276.013000
20
704.167000
11
276.013000
21
709.247000
0
LINE
8
0
10
276.013000
20
709.247000
11
270.933000
21
709.247000
0
LINE
8
0
10
270.933000
20
709.247000
11
270.933000
21
712.634000
0
LINE
8
0
10
270.933000
20
712.634000
11
276.013000
21
712.634000
0
LINE
8
0
10
276.013000
20
712.634000
11
276.013000
21
717.714000
0
LINE
8
0
10
276.013000
20
744.807000
11
279.400000
21
744.807000
0
LINE
8
0
10
276.013000
20
758.354000
11
279.400000
21
758.354000
0
LINE
8
0
10
279.400000
20
758.354000
11
279.400000
21
753.274000
0
LINE
8
0
10
279.400000
20
753.274000
11
284.480000
21
753.274000
0
LINE
8
0
10
284.480000
20
753.274000
11
284.480000
21
749.887000
0
LINE
8
0
10
284.480000
20
749.887000
11
279.400000
21
749.887000
0
LINE
8
0
10
279.400000
20
749.887000
11
279.400000
21
744.807000
0
LINE
8
0
10
276.013000
20
744.807000
11
276.013000
21
749.887000
0
LINE
8
0
10
276.013000
20
749.887000
11
270.933000
21
749.887000
0
LINE
8
0
10
270.933000
20
749.887000
11
270.933000
21
753.274000
0
LINE
8
0
10
270.933000
20
753.274000
11
276.013000
21
753.274000
0
LINE
8
0
10
316.653000
20
433.234000
11
320.040000
21
433.234000
0
LINE
8
0
10
320.040000
20
433.234000
11
320.040000
21
428.154000
0
LINE
8
0
10
320.040000
20
428.154000
11
325.120000
21
428.154000
0
LINE
8
0
10
325.120000
20
428.154000
11
325.120000
21
424.768000
0
LINE
8
0
10
276.013000
20
753.274000
11
276.013000
21
758.354000
0
LINE
8
0
10
276.013000
20
798.994000
11
279.400000
21
798.994000
0
LINE
8
0
10
279.400000
20
798.994000
11
279.400000
21
793.914000
0
LINE
8
0
10
279.400000
20
793.914000
11
284.480000
21
793.914000
0
LINE
8
0
10
311.573000
20
424.768000
11
311.573000
21
428.154000
0
LINE
8
0
10
311.573000
20
428.154000
11
316.653000
21
428.154000
0
LINE
8
0
10
316.653000
20
428.154000
11
316.653000
21
433.234000
0
LINE
8
0
10
316.653000
20
473.874000
11
320.040000
21
473.874000
0
LINE
8
0
10
320.040000
20
473.874000
11
320.040000
21
468.794000
0
LINE
8
0
10
320.040000
20
468.794000
11
325.120000
21
468.794000
0
LINE
8
0
10
325.120000
20
468.794000
11
325.120000
21
465.407000
0
LINE
8
0
10
325.120000
20
465.407000
11
320.040000
21
465.407000
0
LINE
8
0
10
320.040000
20
465.407000
11
320.040000
21
460.327000
0
LINE
8
0
10
320.040000
20
460.327000
11
316.653000
21
460.327000
0
LINE
8
0
10
316.653000
20
460.327000
11
316.653000
21
465.407000
0
LINE
8
0
10
316.653000
20
465.407000
11
311.573000
21
465.407000
0
LINE
8
0
10
311.573000
20
465.407000
11
311.573000
21
468.794000
0
LINE
8
0
10
311.573000
20
468.794000
11
316.653000
21
468.794000
0
LINE
8
0
10
316.653000
20
468.794000
11
316.653000
21
473.874000
0
LINE
8
0
10
284.480000
20
793.914000
11
284.480000
21
790.527000
0
LINE
8
0
10
284.480000
20
790.527000
11
279.400000
21
790.527000
0
LINE
8
0
10
279.400000
20
790.527000
11
279.400000
21
785.447000
0
LINE
8
0
10
279.400000
20
785.447000
11
276.013000
21
785.447000
0
LINE
8
0
10
276.013000
20
785.447000
11
276.013000
21
790.527000
0
LINE
8
0
10
276.013000
20
790.527000
11
270.933000
21
790.527000
0
LINE
8
0
10
270.933000
20
790.527000
11
270.933000
21
793.914000
0
LINE
8
0
10
270.933000
20
793.914000
11
276.013000
21
793.914000
0
LINE
8
0
10
276.013000
20
793.914000
11
276.013000
21
798.994000
0
LINE
8
0
10
276.013000
20
839.634000
11
279.400000
21
839.634000
0
LINE
8
0
10
279.400000
20
839.634000
11
279.400000
21
834.554000
0
LINE
8
0
10
279.400000
20
834.554000
11
284.480000
21
834.554000
0
LINE
8
0
10
284.480000
20
834.554000
11
284.480000
21
831.167000
0
LINE
8
0
10
284.480000
20
831.167000
11
279.400000
21
831.167000
0
LINE
8
0
10
279.400000
20
831.167000
11
279.400000
21
826.087000
0
LINE
8
0
10
279.400000
20
826.087000
11
276.013000
21
826.087000
0
LINE
8
0
10
276.013000
20
826.087000
11
276.013000
21
831.167000
0
LINE
8
0
10
276.013000
20
831.167000
11
270.933000
21
831.167000
0
LINE
8
0
10
270.933000
20
831.167000
11
270.933000
21
834.554000
0
LINE
8
0
10
270.933000
20
834.554000
11
276.013000
21
834.554000
0
LINE
8
0
10
276.013000
20
834.554000
11
276.013000
21
839.634000
0
LINE
8
0
10
276.013000
20
880.274000
11
279.400000
21
880.274000
0
LINE
8
0
10
279.400000
20
880.274000
11
279.400000
21
875.194000
0
LINE
8
0
10
279.400000
20
875.194000
11
284.480000
21
875.194000
0
LINE
8
0
10
284.480000
20
875.194000
11
284.480000
21
871.807000
0
LINE
8
0
10
284.480000
20
871.807000
11
279.400000
21
871.807000
0
LINE
8
0
10
279.400000
20
871.807000
11
279.400000
21
866.727000
0
LINE
8
0
10
279.400000
20
866.727000
11
276.013000
21
866.727000
0
LINE
8
0
10
276.013000
20
866.727000
11
276.013000
21
871.807000
0
LINE
8
0
10
276.013000
20
871.807000
11
270.933000
21
871.807000
0
LINE
8
0
10
270.933000
20
871.807000
11
270.933000
21
875.194000
0
LINE
8
0
10
270.933000
20
875.194000
11
276.013000
21
875.194000
0
LINE
8
0
10
276.013000
20
875.194000
11
276.013000
21
880.274000
0
LINE
8
0
10
276.013000
20
920.914000
11
279.400000
21
920.914000
0
LINE
8
0
10
279.400000
20
920.914000
11
279.400000
21
915.834000
0
LINE
8
0
10
279.400000
20
915.834000
11
284.480000
21
915.834000
0
LINE
8
0
10
284.480000
20
915.834000
11
284.480000
21
912.447000
0
LINE
8
0
10
284.480000
20
912.447000
11
279.400000
21
912.447000
0
LINE
8
0
10
279.400000
20
912.447000
11
279.400000
21
907.367000
0
LINE
8
0
10
279.400000
20
907.367000
11
276.013000
21
907.367000
0
LINE
8
0
10
276.013000
20
907.367000
11
276.013000
21
912.447000
0
LINE
8
0
10
276.013000
20
912.447000
11
270.933000
21
912.447000
0
LINE
8
0
10
270.933000
20
912.447000
11
270.933000
21
915.834000
0
LINE
8
0
10
270.933000
20
915.834000
11
276.013000
21
915.834000
0
LINE
8
0
10
276.013000
20
915.834000
11
276.013000
21
920.914000
0
LINE
8
0
10
276.013000
20
961.554000
11
279.400000
21
961.554000
0
LINE
8
0
10
279.400000
20
961.554000
11
279.400000
21
956.474000
0
LINE
8
0
10
279.400000
20
956.474000
11
284.480000
21
956.474000
0
LINE
8
0
10
284.480000
20
956.474000
11
284.480000
21
953.087000
0
LINE
8
0
10
284.480000
20
953.087000
11
279.400000
21
953.087000
0
LINE
8
0
10
279.400000
20
953.087000
11
279.400000
21
948.007000
0
LINE
8
0
10
279.400000
20
948.007000
11
276.013000
21
948.007000
0
LINE
8
0
10
276.013000
20
948.007000
11
276.013000
21
953.087000
0
LINE
8
0
10
276.013000
20
953.087000
11
270.933000
21
953.087000
0
LINE
8
0
10
270.933000
20
953.087000
11
270.933000
21
956.474000
0
LINE
8
0
10
270.933000
20
956.474000
11
276.013000
21
956.474000
0
LINE
8
0
10
276.013000
20
956.474000
11
276.013000
21
961.554000
0
LINE
8
0
10
276.013000
20
1002.190000
11
279.400000
21
1002.190000
0
LINE
8
0
10
279.400000
20
1002.190000
11
279.400000
21
997.114000
0
LINE
8
0
10
279.400000
20
997.114000
11
284.480000
21
997.114000
0
LINE
8
0
10
284.480000
20
997.114000
11
284.480000
21
993.727000
0
LINE
8
0
10
284.480000
20
993.727000
11
279.400000
21
993.727000
0
LINE
8
0
10
279.400000
20
993.727000
11
279.400000
21
988.647000
0
LINE
8
0
10
279.400000
20
988.647000
11
276.013000
21
988.647000
0
LINE
8
0
10
276.013000
20
988.647000
11
276.013000
21
993.727000
0
LINE
8
0
10
276.013000
20
993.727000
11
270.933000
21
993.727000
0
LINE
8
0
10
270.933000
20
993.727000
11
270.933000
21
997.114000
0
LINE
8
0
10
270.933000
20
997.114000
11
276.013000
21
997.114000
0
LINE
8
0
10
276.013000
20
997.114000
11
276.013000
21
1002.190000
0
LINE
8
0
10
270.933000
20
1037.750000
11
284.480000
21
1037.750000
0
LINE
8
0
10
284.480000
20
1037.750000
11
284.480000
21
1034.370000
0
LINE
8
0
10
284.480000
20
1034.370000
11
279.400000
21
1034.370000
0
LINE
8
0
10
279.400000
20
1034.370000
11
279.400000
21
1029.290000
0
LINE
8
0
10
279.400000
20
1029.290000
11
276.013000
21
1029.290000
0
LINE
8
0
10
276.013000
20
1029.290000
11
276.013000
21
1034.370000
0
LINE
8
0
10
276.013000
20
1034.370000
11
270.933000
21
1034.370000
0
LINE
8
0
10
270.933000
20
1034.370000
11
270.933000
21
1037.750000
0
LINE
8
0
10
194.733000
20
514.514000
11
198.120000
21
514.514000
0
LINE
8
0
10
198.120000
20
514.514000
11
198.120000
21
509.434000
0
LINE
8
0
10
198.120000
20
509.434000
11
203.200000
21
509.434000
0
LINE
8
0
10
203.200000
20
509.434000
11
203.200000
21
506.047000
0
LINE
8
0
10
203.200000
20
506.047000
11
198.120000
21
506.047000
0
LINE
8
0
10
198.120000
20
506.047000
11
198.120000
21
500.967000
0
LINE
8
0
10
198.120000
20
500.967000
11
194.733000
21
500.967000
0
LINE
8
0
10
194.733000
20
500.967000
11
194.733000
21
506.047000
0
LINE
8
0
10
194.733000
20
506.047000
11
189.653000
21
506.047000
0
LINE
8
0
10
189.653000
20
506.047000
11
189.653000
21
509.434000
0
LINE
8
0
10
189.653000
20
509.434000
11
194.733000
21
509.434000
0
LINE
8
0
10
194.733000
20
509.434000
11
194.733000
21
514.514000
0
LINE
8
0
10
194.733000
20
555.154000
11
198.120000
21
555.154000
0
LINE
8
0
10
198.120000
20
555.154000
11
198.120000
21
550.074000
0
LINE
8
0
10
198.120000
20
550.074000
11
203.200000
21
550.074000
0
LINE
8
0
10
203.200000
20
550.074000
11
203.200000
21
546.687000
0
LINE
8
0
10
203.200000
20
546.687000
11
198.120000
21
546.687000
0
LINE
8
0
10
198.120000
20
546.687000
11
198.120000
21
541.607000
0
LINE
8
0
10
198.120000
20
541.607000
11
194.733000
21
541.607000
0
LINE
8
0
10
194.733000
20
541.607000
11
194.733000
21
546.687000
0
LINE
8
0
10
194.733000
20
546.687000
11
189.653000
21
546.687000
0
LINE
8
0
10
189.653000
20
546.687000
11
189.653000
21
550.074000
0
LINE
8
0
10
189.653000
20
550.074000
11
194.733000
21
550.074000
0
LINE
8
0
10
194.733000
20
550.074000
11
194.733000
21
555.154000
0
LINE
8
0
10
194.733000
20
595.794000
11
198.120000
21
595.794000
0
LINE
8
0
10
198.120000
20
595.794000
11
198.120000
21
590.714000
0
LINE
8
0
10
198.120000
20
590.714000
11
203.200000
21
590.714000
0
LINE
8
0
10
203.200000
20
590.714000
11
203.200000
21
587.327000
0
LINE
8
0
10
203.200000
20
587.327000
11
198.120000
21
587.327000
0
LINE
8
0
10
198.120000
20
587.327000
11
198.120000
21
582.247000
0
LINE
8
0
10
198.120000
20
582.247000
11
194.733000
21
582.247000
0
LINE
8
0
10
194.733000
20
582.247000
11
194.733000
21
587.327000
0
LINE
8
0
10
194.733000
20
587.327000
11
189.653000
21
587.327000
0
LINE
8
0
10
189.653000
20
587.327000
11
189.653000
21
590.714000
0
LINE
8
0
10
189.653000
20
590.714000
11
194.733000
21
590.714000
0
LINE
8
0
10
194.733000
20
590.714000
11
194.733000
21
595.794000
0
LINE
8
0
10
194.733000
20
636.434000
11
198.120000
21
636.434000
0
LINE
8
0
10
198.120000
20
636.434000
11
198.120000
21
631.354000
0
LINE
8
0
10
198.120000
20
631.354000
11
203.200000
21
631.354000
0
LINE
8
0
10
203.200000
20
631.354000
11
203.200000
21
627.967000
0
LINE
8
0
10
203.200000
20
627.967000
11
198.120000
21
627.967000
0
LINE
8
0
10
198.120000
20
627.967000
11
198.120000
21
622.887000
0
LINE
8
0
10
198.120000
20
622.887000
11
194.733000
21
622.887000
0
LINE
8
0
10
194.733000
20
622.887000
11
194.733000
21
627.967000
0
LINE
8
0
10
194.733000
20
627.967000
11
189.653000
21
627.967000
0
LINE
8
0
10
189.653000
20
627.967000
11
189.653000
21
631.354000
0
LINE
8
0
10
189.653000
20
631.354000
11
194.733000
21
631.354000
0
LINE
8
0
10
194.733000
20
631.354000
11
194.733000
21
636.434000
0
LINE
8
0
10
194.733000
20
677.074000
11
198.120000
21
677.074000
0
LINE
8
0
10
198.120000
20
677.074000
11
198.120000
21
671.994000
0
LINE
8
0
10
198.120000
20
671.994000
11
203.200000
21
671.994000
0
LINE
8
0
10
203.200000
20
671.994000
11
203.200000
21
668.607000
0
LINE
8
0
10
203.200000
20
668.607000
11
198.120000
21
668.607000
0
LINE
8
0
10
198.120000
20
668.607000
11
198.120000
21
663.527000
0
LINE
8
0
10
198.120000
20
663.527000
11
194.733000
21
663.527000
0
LINE
8
0
10
194.733000
20
663.527000
11
194.733000
21
668.607000
0
LINE
8
0
10
194.733000
20
668.607000
11
189.653000
21
668.607000
0
LINE
8
0
10
189.653000
20
668.607000
11
189.653000
21
671.994000
0
LINE
8
0
10
189.653000
20
671.994000
11
194.733000
21
671.994000
0
LINE
8
0
10
194.733000
20
671.994000
11
194.733000
21
677.074000
0
LINE
8
0
10
194.733000
20
717.714000
11
198.120000
21
717.714000
0
LINE
8
0
10
198.120000
20
717.714000
11
198.120000
21
712.634000
0
LINE
8
0
10
198.120000
20
712.634000
11
203.200000
21
712.634000
0
LINE
8
0
10
203.200000
20
712.634000
11
203.200000
21
709.247000
0
LINE
8
0
10
203.200000
20
709.247000
11
198.120000
21
709.247000
0
LINE
8
0
10
198.120000
20
709.247000
11
198.120000
21
704.167000
0
LINE
8
0
10
198.120000
20
704.167000
11
194.733000
21
704.167000
0
LINE
8
0
10
194.733000
20
704.167000
11
194.733000
21
709.247000
0
LINE
8
0
10
194.733000
20
709.247000
11
189.653000
21
709.247000
0
LINE
8
0
10
189.653000
20
709.247000
11
189.653000
21
712.634000
0
LINE
8
0
10
189.653000
20
712.634000
11
194.733000
21
712.634000
0
LINE
8
0
10
194.733000
20
712.634000
11
194.733000
21
717.714000
0
LINE
8
0
10
194.733000
20
744.807000
11
198.120000
21
744.807000
0
LINE
8
0
10
194.733000
20
758.354000
11
198.120000
21
758.354000
0
LINE
8
0
10
198.120000
20
758.354000
11
198.120000
21
753.274000
0
LINE
8
0
10
198.120000
20
753.274000
11
203.200000
21
753.274000
0
LINE
8
0
10
203.200000
20
753.274000
11
203.200000
21
749.887000
0
LINE
8
0
10
203.200000
20
749.887000
11
198.120000
21
749.887000
0
LINE
8
0
10
198.120000
20
749.887000
11
198.120000
21
744.807000
0
LINE
8
0
10
194.733000
20
744.807000
11
194.733000
21
749.887000
0
LINE
8
0
10
194.733000
20
749.887000
11
189.653000
21
749.887000
0
LINE
8
0
10
189.653000
20
749.887000
11
189.653000
21
753.274000
0
LINE
8
0
10
189.653000
20
753.274000
11
194.733000
21
753.274000
0
LINE
8
0
10
194.733000
20
753.274000
11
194.733000
21
758.354000
0
LINE
8
0
10
194.733000
20
798.994000
11
198.120000
21
798.994000
0
LINE
8
0
10
198.120000
20
798.994000
11
198.120000
21
793.914000
0
LINE
8
0
10
198.120000
20
793.914000
11
203.200000
21
793.914000
0
LINE
8
0
10
203.200000
20
793.914000
11
203.200000
21
790.527000
0
LINE
8
0
10
203.200000
20
790.527000
11
198.120000
21
790.527000
0
LINE
8
0
10
198.120000
20
790.527000
11
198.120000
21
785.447000
0
LINE
8
0
10
198.120000
20
785.447000
11
194.733000
21
785.447000
0
LINE
8
0
10
194.733000
20
785.447000
11
194.733000
21
790.527000
0
LINE
8
0
10
194.733000
20
790.527000
11
189.653000
21
790.527000
0
LINE
8
0
10
189.653000
20
790.527000
11
189.653000
21
793.914000
0
LINE
8
0
10
189.653000
20
793.914000
11
194.733000
21
793.914000
0
LINE
8
0
10
194.733000
20
793.914000
11
194.733000
21
798.994000
0
LINE
8
0
10
194.733000
20
839.634000
11
198.120000
21
839.634000
0
LINE
8
0
10
198.120000
20
839.634000
11
198.120000
21
834.554000
0
LINE
8
0
10
198.120000
20
834.554000
11
203.200000
21
834.554000
0
LINE
8
0
10
203.200000
20
834.554000
11
203.200000
21
831.167000
0
LINE
8
0
10
203.200000
20
831.167000
11
198.120000
21
831.167000
0
LINE
8
0
10
198.120000
20
831.167000
11
198.120000
21
826.087000
0
LINE
8
0
10
198.120000
20
826.087000
11
194.733000
21
826.087000
0
LINE
8
0
10
194.733000
20
826.087000
11
194.733000
21
831.167000
0
LINE
8
0
10
32.173300
20
433.234000
11
35.560000
21
433.234000
0
LINE
8
0
10
35.560000
20
433.234000
11
35.560000
21
428.154000
0
LINE
8
0
10
35.560000
20
428.154000
11
40.640000
21
428.154000
0
LINE
8
0
10
40.640000
20
428.154000
11
40.640000
21
424.768000
0
LINE
8
0
10
194.733000
20
831.167000
11
189.653000
21
831.167000
0
LINE
8
0
10
189.653000
20
831.167000
11
189.653000
21
834.554000
0
LINE
8
0
10
189.653000
20
834.554000
11
194.733000
21
834.554000
0
LINE
8
0
10
194.733000
20
834.554000
11
194.733000
21
839.634000
0
LINE
8
0
10
27.093300
20
424.768000
11
27.093300
21
428.154000
0
LINE
8
0
10
27.093300
20
428.154000
11
32.173300
21
428.154000
0
LINE
8
0
10
32.173300
20
428.154000
11
32.173300
21
433.234000
0
LINE
8
0
10
32.173300
20
473.874000
11
35.560000
21
473.874000
0
LINE
8
0
10
35.560000
20
473.874000
11
35.560000
21
468.794000
0
LINE
8
0
10
35.560000
20
468.794000
11
40.640000
21
468.794000
0
LINE
8
0
10
40.640000
20
468.794000
11
40.640000
21
465.407000
0
LINE
8
0
10
40.640000
20
465.407000
11
35.560000
21
465.407000
0
LINE
8
0
10
35.560000
20
465.407000
11
35.560000
21
460.327000
0
LINE
8
0
10
35.560000
20
460.327000
11
32.173300
21
460.327000
0
LINE
8
0
10
32.173300
20
460.327000
11
32.173300
21
465.407000
0
LINE
8
0
10
32.173300
20
465.407000
11
27.093300
21
465.407000
0
LINE
8
0
10
27.093300
20
465.407000
11
27.093300
21
468.794000
0
LINE
8
0
10
27.093300
20
468.794000
11
32.173300
21
468.794000
0
LINE
8
0
10
32.173300
20
468.794000
11
32.173300
21
473.874000
0
LINE
8
0
10
32.173300
20
514.514000
11
35.560000
21
514.514000
0
LINE
8
0
10
35.560000
20
514.514000
11
35.560000
21
509.434000
0
LINE
8
0
10
35.560000
20
509.434000
11
40.640000
21
509.434000
0
LINE
8
0
10
40.640000
20
509.434000
11
40.640000
21
506.047000
0
LINE
8
0
10
40.640000
20
506.047000
11
35.560000
21
506.047000
0
LINE
8
0
10
35.560000
20
506.047000
11
35.560000
21
500.967000
0
LINE
8
0
10
35.560000
20
500.967000
11
32.173300
21
500.967000
0
LINE
8
0
10
32.173300
20
500.967000
11
32.173300
21
506.047000
0
LINE
8
0
10
32.173300
20
506.047000
11
27.093300
21
506.047000
0
LINE
8
0
10
27.093300
20
506.047000
11
27.093300
21
509.434000
0
LINE
8
0
10
27.093300
20
509.434000
11
32.173300
21
509.434000
0
LINE
8
0
10
32.173300
20
509.434000
11
32.173300
21
514.514000
0
LINE
8
0
10
32.173300
20
555.154000
11
35.560000
21
555.154000
0
LINE
8
0
10
35.560000
20
555.154000
11
35.560000
21
550.074000
0
LINE
8
0
10
35.560000
20
550.074000
11
40.640000
21
550.074000
0
LINE
8
0
10
40.640000
20
550.074000
11
40.640000
21
546.687000
0
LINE
8
0
10
40.640000
20
546.687000
11
35.560000
21
546.687000
0
LINE
8
0
10
35.560000
20
546.687000
11
35.560000
21
541.607000
0
LINE
8
0
10
35.560000
20
541.607000
11
32.173300
21
541.607000
0
LINE
8
0
10
32.173300
20
541.607000
11
32.173300
21
546.687000
0
LINE
8
0
10
32.173300
20
546.687000
11
27.093300
21
546.687000
0
LINE
8
0
10
27.093300
20
546.687000
11
27.093300
21
550.074000
0
LINE
8
0
10
27.093300
20
550.074000
11
32.173300
21
550.074000
0
LINE
8
0
10
32.173300
20
550.074000
11
32.173300
21
555.154000
0
LINE
8
0
10
-8.466660
20
433.234000
11
-5.080000
21
433.234000
0
LINE
8
0
10
-5.080000
20
433.234000
11
-5.080000
21
428.154000
0
LINE
8
0
10
-5.080000
20
428.154000
11
0.000000
21
428.154000
0
LINE
8
0
10
0.000000
20
428.154000
11
0.000000
21
424.768000
0
LINE
8
0
10
0.000000
20
424.768000
11
-8.466660
21
424.768000
0
LINE
8
0
10
194.733000
20
880.274000
11
198.120000
21
880.274000
0
LINE
8
0
10
198.120000
20
880.274000
11
198.120000
21
875.194000
0
LINE
8
0
10
198.120000
20
875.194000
11
203.200000
21
875.194000
0
LINE
8
0
10
406.400000
20
419.688000
11
392.853000
21
419.688000
0
LINE
8
0
10
203.200000
20
875.194000
11
203.200000
21
871.807000
0
LINE
8
0
10
203.200000
20
871.807000
11
198.120000
21
871.807000
0
LINE
8
0
10
-8.466660
20
473.874000
11
-5.080000
21
473.874000
0
LINE
8
0
10
-5.080000
20
473.874000
11
-5.080000
21
468.794000
0
LINE
8
0
10
-5.080000
20
468.794000
11
0.000000
21
468.794000
0
LINE
8
0
10
0.000000
20
468.794000
11
0.000000
21
465.407000
0
LINE
8
0
10
0.000000
20
465.407000
11
-5.080000
21
465.407000
0
LINE
8
0
10
-5.080000
20
465.407000
11
-5.080000
21
460.327000
0
LINE
8
0
10
-5.080000
20
460.327000
11
-8.466660
21
460.327000
0
LINE
8
0
10
198.120000
20
871.807000
11
198.120000
21
866.727000
0
LINE
8
0
10
198.120000
20
866.727000
11
194.733000
21
866.727000
0
LINE
8
0
10
392.853000
20
419.688000
11
392.853000
21
406.141000
0
LINE
8
0
10
194.733000
20
866.727000
11
194.733000
21
871.807000
0
LINE
8
0
10
194.733000
20
871.807000
11
189.653000
21
871.807000
0
LINE
8
0
10
-8.466660
20
514.514000
11
-5.080000
21
514.514000
0
LINE
8
0
10
-5.080000
20
514.514000
11
-5.080000
21
509.434000
0
LINE
8
0
10
-5.080000
20
509.434000
11
0.000000
21
509.434000
0
LINE
8
0
10
0.000000
20
509.434000
11
0.000000
21
506.047000
0
LINE
8
0
10
0.000000
20
506.047000
11
-5.080000
21
506.047000
0
LINE
8
0
10
-5.080000
20
506.047000
11
-5.080000
21
500.967000
0
LINE
8
0
10
-5.080000
20
500.967000
11
-8.466660
21
500.967000
0
LINE
8
0
10
189.653000
20
871.807000
11
189.653000
21
875.194000
0
LINE
8
0
10
189.653000
20
875.194000
11
194.733000
21
875.194000
0
LINE
8
0
10
392.853000
20
406.141000
11
365.760000
21
406.141000
0
LINE
8
0
10
194.733000
20
875.194000
11
194.733000
21
880.274000
0
LINE
8
0
10
194.733000
20
920.914000
11
198.120000
21
920.914000
0
LINE
8
0
10
-8.505380
20
555.120000
11
-5.118720
21
555.120000
0
LINE
8
0
10
-5.118720
20
555.120000
11
-5.118720
21
550.040000
0
LINE
8
0
10
-5.118720
20
550.040000
11
-0.038725
21
550.040000
0
LINE
8
0
10
-0.038725
20
550.040000
11
-0.038725
21
546.653000
0
LINE
8
0
10
-0.038725
20
546.653000
11
-5.118720
21
546.653000
0
LINE
8
0
10
-5.118720
20
546.653000
11
-5.118720
21
541.573000
0
LINE
8
0
10
-5.118720
20
541.573000
11
-8.505380
21
541.573000
0
LINE
8
0
10
198.120000
20
920.914000
11
198.120000
21
915.834000
0
LINE
8
0
10
198.120000
20
915.834000
11
203.200000
21
915.834000
0
LINE
8
0
10
365.760000
20
406.141000
11
365.760000
21
419.688000
0
LINE
8
0
10
203.200000
20
915.834000
11
203.200000
21
912.447000
0
LINE
8
0
10
203.200000
20
912.447000
11
198.120000
21
912.447000
0
LINE
8
0
10
-8.448800
20
595.764000
11
-5.062130
21
595.764000
0
LINE
8
0
10
-5.062130
20
595.764000
11
-5.062130
21
590.684000
0
LINE
8
0
10
-5.062130
20
590.684000
11
0.017865
21
590.684000
0
LINE
8
0
10
0.017865
20
590.684000
11
0.017865
21
587.298000
0
LINE
8
0
10
0.017865
20
587.298000
11
-5.062130
21
587.298000
0
LINE
8
0
10
-5.062130
20
587.298000
11
-5.062130
21
582.218000
0
LINE
8
0
10
-5.062130
20
582.218000
11
-8.448800
21
582.218000
0
LINE
8
0
10
198.120000
20
912.447000
11
198.120000
21
907.367000
0
LINE
8
0
10
198.120000
20
907.367000
11
194.733000
21
907.367000
0
LINE
8
0
10
365.760000
20
419.688000
11
352.213000
21
419.688000
0
LINE
8
0
10
194.733000
20
907.367000
11
194.733000
21
912.447000
0
LINE
8
0
10
194.733000
20
912.447000
11
189.653000
21
912.447000
0
LINE
8
0
10
-8.466660
20
636.434000
11
-5.080000
21
636.434000
0
LINE
8
0
10
-5.080000
20
636.434000
11
-5.080000
21
631.354000
0
LINE
8
0
10
-5.080000
20
631.354000
11
0.000000
21
631.354000
0
LINE
8
0
10
0.000000
20
631.354000
11
0.000000
21
627.967000
0
LINE
8
0
10
0.000000
20
627.967000
11
-5.080000
21
627.967000
0
LINE
8
0
10
-5.080000
20
627.967000
11
-5.080000
21
622.887000
0
LINE
8
0
10
-5.080000
20
622.887000
11
-8.466660
21
622.887000
0
LINE
8
0
10
189.653000
20
912.447000
11
189.653000
21
915.834000
0
LINE
8
0
10
189.653000
20
915.834000
11
194.733000
21
915.834000
0
LINE
8
0
10
352.213000
20
419.688000
11
352.213000
21
406.141000
0
LINE
8
0
10
194.733000
20
915.834000
11
194.733000
21
920.914000
0
LINE
8
0
10
194.733000
20
961.554000
11
198.120000
21
961.554000
0
LINE
8
0
10
-8.466660
20
677.074000
11
-5.080000
21
677.074000
0
LINE
8
0
10
-5.080000
20
677.074000
11
-5.080000
21
671.994000
0
LINE
8
0
10
-5.080000
20
671.994000
11
0.000000
21
671.994000
0
LINE
8
0
10
0.000000
20
671.994000
11
0.000000
21
668.607000
0
LINE
8
0
10
0.000000
20
668.607000
11
-5.080000
21
668.607000
0
LINE
8
0
10
-5.080000
20
668.607000
11
-5.080000
21
663.527000
0
LINE
8
0
10
-5.080000
20
663.527000
11
-8.466660
21
663.527000
0
LINE
8
0
10
198.120000
20
961.554000
11
198.120000
21
956.474000
0
LINE
8
0
10
198.120000
20
956.474000
11
203.200000
21
956.474000
0
LINE
8
0
10
352.213000
20
406.141000
11
325.120000
21
406.141000
0
LINE
8
0
10
203.200000
20
956.474000
11
203.200000
21
953.087000
0
LINE
8
0
10
203.200000
20
953.087000
11
198.120000
21
953.087000
0
LINE
8
0
10
-8.466660
20
717.714000
11
-5.080000
21
717.714000
0
LINE
8
0
10
-5.080000
20
717.714000
11
-5.080000
21
712.634000
0
LINE
8
0
10
-5.080000
20
712.634000
11
0.000000
21
712.634000
0
LINE
8
0
10
0.000000
20
712.634000
11
0.000000
21
709.247000
0
LINE
8
0
10
0.000000
20
709.247000
11
-5.080000
21
709.247000
0
LINE
8
0
10
-5.080000
20
709.247000
11
-5.080000
21
704.167000
0
LINE
8
0
10
-5.080000
20
704.167000
11
-8.466660
21
704.167000
0
LINE
8
0
10
198.120000
20
953.087000
11
198.120000
21
948.007000
0
LINE
8
0
10
198.120000
20
948.007000
11
194.733000
21
948.007000
0
LINE
8
0
10
325.120000
20
406.141000
11
325.120000
21
419.688000
0
LINE
8
0
10
194.733000
20
948.007000
11
194.733000
21
953.087000
0
LINE
8
0
10
194.733000
20
953.087000
11
189.653000
21
953.087000
0
LINE
8
0
10
32.173300
20
595.794000
11
35.560000
21
595.794000
0
LINE
8
0
10
35.560000
20
595.794000
11
35.560000
21
590.714000
0
LINE
8
0
10
35.560000
20
590.714000
11
40.640000
21
590.714000
0
LINE
8
0
10
40.640000
20
590.714000
11
40.640000
21
587.327000
0
LINE
8
0
10
40.640000
20
587.327000
11
35.560000
21
587.327000
0
LINE
8
0
10
35.560000
20
587.327000
11
35.560000
21
582.247000
0
LINE
8
0
10
35.560000
20
582.247000
11
32.173300
21
582.247000
0
LINE
8
0
10
32.173300
20
582.247000
11
32.173300
21
587.327000
0
LINE
8
0
10
32.173300
20
587.327000
11
27.093300
21
587.327000
0
LINE
8
0
10
27.093300
20
587.327000
11
27.093300
21
590.714000
0
LINE
8
0
10
27.093300
20
590.714000
11
32.173300
21
590.714000
0
LINE
8
0
10
32.173300
20
590.714000
11
32.173300
21
595.794000
0
LINE
8
0
10
32.173300
20
636.434000
11
35.560000
21
636.434000
0
LINE
8
0
10
35.560000
20
636.434000
11
35.560000
21
631.354000
0
LINE
8
0
10
35.560000
20
631.354000
11
40.640000
21
631.354000
0
LINE
8
0
10
40.640000
20
631.354000
11
40.640000
21
627.967000
0
LINE
8
0
10
40.640000
20
627.967000
11
35.560000
21
627.967000
0
LINE
8
0
10
35.560000
20
627.967000
11
35.560000
21
622.887000
0
LINE
8
0
10
35.560000
20
622.887000
11
32.173300
21
622.887000
0
LINE
8
0
10
32.173300
20
622.887000
11
32.173300
21
627.967000
0
LINE
8
0
10
32.173300
20
627.967000
11
27.093300
21
627.967000
0
LINE
8
0
10
27.093300
20
627.967000
11
27.093300
21
631.354000
0
LINE
8
0
10
27.093300
20
631.354000
11
32.173300
21
631.354000
0
LINE
8
0
10
32.173300
20
631.354000
11
32.173300
21
636.434000
0
LINE
8
0
10
32.173300
20
677.074000
11
35.560000
21
677.074000
0
LINE
8
0
10
35.560000
20
677.074000
11
35.560000
21
671.994000
0
LINE
8
0
10
35.560000
20
671.994000
11
40.640000
21
671.994000
0
LINE
8
0
10
40.640000
20
671.994000
11
40.640000
21
668.607000
0
LINE
8
0
10
40.640000
20
668.607000
11
35.560000
21
668.607000
0
LINE
8
0
10
35.560000
20
668.607000
11
35.560000
21
663.527000
0
LINE
8
0
10
35.560000
20
663.527000
11
32.173300
21
663.527000
0
LINE
8
0
10
32.173300
20
663.527000
11
32.173300
21
668.607000
0
LINE
8
0
10
32.173300
20
668.607000
11
27.093300
21
668.607000
0
LINE
8
0
10
27.093300
20
668.607000
11
27.093300
21
671.994000
0
LINE
8
0
10
27.093300
20
671.994000
11
32.173300
21
671.994000
0
LINE
8
0
10
32.173300
20
671.994000
11
32.173300
21
677.074000
0
LINE
8
0
10
32.173300
20
717.714000
11
35.560000
21
717.714000
0
LINE
8
0
10
35.560000
20
717.714000
11
35.560000
21
712.634000
0
LINE
8
0
10
35.560000
20
712.634000
11
40.640000
21
712.634000
0
LINE
8
0
10
40.640000
20
712.634000
11
40.640000
21
709.247000
0
LINE
8
0
10
40.640000
20
709.247000
11
35.560000
21
709.247000
0
LINE
8
0
10
35.560000
20
709.247000
11
35.560000
21
704.167000
0
LINE
8
0
10
35.560000
20
704.167000
11
32.173300
21
704.167000
0
LINE
8
0
10
32.173300
20
704.167000
11
32.173300
21
709.247000
0
LINE
8
0
10
32.173300
20
709.247000
11
27.093300
21
709.247000
0
LINE
8
0
10
27.093300
20
709.247000
11
27.093300
21
712.634000
0
LINE
8
0
10
27.093300
20
712.634000
11
32.173300
21
712.634000
0
LINE
8
0
10
32.173300
20
712.634000
11
32.173300
21
717.714000
0
LINE
8
0
10
189.653000
20
953.087000
11
189.653000
21
956.474000
0
LINE
8
0
10
189.653000
20
956.474000
11
194.733000
21
956.474000
0
LINE
8
0
10
194.733000
20
956.474000
11
194.733000
21
961.554000
0
LINE
8
0
10
194.733000
20
1002.190000
11
198.120000
21
1002.190000
0
LINE
8
0
10
198.120000
20
1002.190000
11
198.120000
21
997.114000
0
LINE
8
0
10
198.120000
20
997.114000
11
203.200000
21
997.114000
0
LINE
8
0
10
203.200000
20
997.114000
11
203.200000
21
993.727000
0
LINE
8
0
10
203.200000
20
993.727000
11
198.120000
21
993.727000
0
LINE
8
0
10
198.120000
20
993.727000
11
198.120000
21
988.647000
0
LINE
8
0
10
198.120000
20
988.647000
11
194.733000
21
988.647000
0
LINE
8
0
10
194.733000
20
988.647000
11
194.733000
21
993.727000
0
LINE
8
0
10
194.733000
20
993.727000
11
189.653000
21
993.727000
0
LINE
8
0
10
189.653000
20
993.727000
11
189.653000
21
997.114000
0
LINE
8
0
10
189.653000
20
997.114000
11
194.733000
21
997.114000
0
LINE
8
0
10
194.733000
20
997.114000
11
194.733000
21
1002.190000
0
LINE
8
0
10
189.653000
20
1037.750000
11
203.200000
21
1037.750000
0
LINE
8
0
10
203.200000
20
1037.750000
11
203.200000
21
1034.370000
0
LINE
8
0
10
203.200000
20
1034.370000
11
198.120000
21
1034.370000
0
LINE
8
0
10
198.120000
20
1034.370000
11
198.120000
21
1029.290000
0
LINE
8
0
10
198.120000
20
1029.290000
11
194.733000
21
1029.290000
0
LINE
8
0
10
194.733000
20
1029.290000
11
194.733000
21
1034.370000
0
LINE
8
0
10
194.733000
20
1034.370000
11
189.653000
21
1034.370000
0
LINE
8
0
10
189.653000
20
1034.370000
11
189.653000
21
1037.750000
0
LINE
8
0
10
397.933000
20
514.514000
11
401.320000
21
514.514000
0
LINE
8
0
10
401.320000
20
514.514000
11
401.320000
21
509.434000
0
LINE
8
0
10
401.320000
20
509.434000
11
406.400000
21
509.434000
0
LINE
8
0
10
406.400000
20
509.434000
11
406.400000
21
506.047000
0
LINE
8
0
10
406.400000
20
506.047000
11
401.320000
21
506.047000
0
LINE
8
0
10
401.320000
20
506.047000
11
401.320000
21
500.967000
0
LINE
8
0
10
401.320000
20
500.967000
11
397.933000
21
500.967000
0
LINE
8
0
10
397.933000
20
500.967000
11
397.933000
21
506.047000
0
LINE
8
0
10
397.933000
20
506.047000
11
392.853000
21
506.047000
0
LINE
8
0
10
392.853000
20
506.047000
11
392.853000
21
509.434000
0
LINE
8
0
10
392.853000
20
509.434000
11
397.933000
21
509.434000
0
LINE
8
0
10
397.933000
20
509.434000
11
397.933000
21
514.514000
0
LINE
8
0
10
397.933000
20
555.154000
11
401.320000
21
555.154000
0
LINE
8
0
10
401.320000
20
555.154000
11
401.320000
21
550.074000
0
LINE
8
0
10
401.320000
20
550.074000
11
406.400000
21
550.074000
0
LINE
8
0
10
406.400000
20
550.074000
11
406.400000
21
546.687000
0
LINE
8
0
10
406.400000
20
546.687000
11
401.320000
21
546.687000
0
LINE
8
0
10
401.320000
20
546.687000
11
401.320000
21
541.607000
0
LINE
8
0
10
401.320000
20
541.607000
11
397.933000
21
541.607000
0
LINE
8
0
10
397.933000
20
541.607000
11
397.933000
21
546.687000
0
LINE
8
0
10
397.933000
20
546.687000
11
392.853000
21
546.687000
0
LINE
8
0
10
392.853000
20
546.687000
11
392.853000
21
550.074000
0
LINE
8
0
10
392.853000
20
550.074000
11
397.933000
21
550.074000
0
LINE
8
0
10
397.933000
20
550.074000
11
397.933000
21
555.154000
0
LINE
8
0
10
397.933000
20
595.794000
11
401.320000
21
595.794000
0
LINE
8
0
10
401.320000
20
595.794000
11
401.320000
21
590.714000
0
LINE
8
0
10
401.320000
20
590.714000
11
406.400000
21
590.714000
0
LINE
8
0
10
406.400000
20
590.714000
11
406.400000
21
587.327000
0
LINE
8
0
10
406.400000
20
587.327000
11
401.320000
21
587.327000
0
LINE
8
0
10
401.320000
20
587.327000
11
401.320000
21
582.247000
0
LINE
8
0
10
401.320000
20
582.247000
11
397.933000
21
582.247000
0
LINE
8
0
10
397.933000
20
582.247000
11
397.933000
21
587.327000
0
LINE
8
0
10
397.933000
20
587.327000
11
392.853000
21
587.327000
0
LINE
8
0
10
392.853000
20
587.327000
11
392.853000
21
590.714000
0
LINE
8
0
10
392.853000
20
590.714000
11
397.933000
21
590.714000
0
LINE
8
0
10
397.933000
20
590.714000
11
397.933000
21
595.794000
0
LINE
8
0
10
397.933000
20
636.434000
11
401.320000
21
636.434000
0
LINE
8
0
10
401.320000
20
636.434000
11
401.320000
21
631.354000
0
LINE
8
0
10
401.320000
20
631.354000
11
406.400000
21
631.354000
0
LINE
8
0
10
406.400000
20
631.354000
11
406.400000
21
627.967000
0
LINE
8
0
10
406.400000
20
627.967000
11
401.320000
21
627.967000
0
LINE
8
0
10
401.320000
20
627.967000
11
401.320000
21
622.887000
0
LINE
8
0
10
401.320000
20
622.887000
11
397.933000
21
622.887000
0
LINE
8
0
10
397.933000
20
622.887000
11
397.933000
21
627.967000
0
LINE
8
0
10
397.933000
20
627.967000
11
392.853000
21
627.967000
0
LINE
8
0
10
392.853000
20
627.967000
11
392.853000
21
631.354000
0
LINE
8
0
10
392.853000
20
631.354000
11
397.933000
21
631.354000
0
LINE
8
0
10
397.933000
20
631.354000
11
397.933000
21
636.434000
0
LINE
8
0
10
397.933000
20
677.074000
11
401.320000
21
677.074000
0
LINE
8
0
10
401.320000
20
677.074000
11
401.320000
21
671.994000
0
LINE
8
0
10
401.320000
20
671.994000
11
406.400000
21
671.994000
0
LINE
8
0
10
406.400000
20
671.994000
11
406.400000
21
668.607000
0
LINE
8
0
10
406.400000
20
668.607000
11
401.320000
21
668.607000
0
LINE
8
0
10
401.320000
20
668.607000
11
401.320000
21
663.527000
0
LINE
8
0
10
401.320000
20
663.527000
11
397.933000
21
663.527000
0
LINE
8
0
10
397.933000
20
663.527000
11
397.933000
21
668.607000
0
LINE
8
0
10
397.933000
20
668.607000
11
392.853000
21
668.607000
0
LINE
8
0
10
392.853000
20
668.607000
11
392.853000
21
671.994000
0
LINE
8
0
10
392.853000
20
671.994000
11
397.933000
21
671.994000
0
LINE
8
0
10
397.933000
20
671.994000
11
397.933000
21
677.074000
0
LINE
8
0
10
397.933000
20
717.714000
11
401.320000
21
717.714000
0
LINE
8
0
10
401.320000
20
717.714000
11
401.320000
21
712.634000
0
LINE
8
0
10
401.320000
20
712.634000
11
406.400000
21
712.634000
0
LINE
8
0
10
406.400000
20
712.634000
11
406.400000
21
709.247000
0
LINE
8
0
10
406.400000
20
709.247000
11
401.320000
21
709.247000
0
LINE
8
0
10
401.320000
20
709.247000
11
401.320000
21
704.167000
0
LINE
8
0
10
401.320000
20
704.167000
11
397.933000
21
704.167000
0
LINE
8
0
10
397.933000
20
704.167000
11
397.933000
21
709.247000
0
LINE
8
0
10
397.933000
20
709.247000
11
392.853000
21
709.247000
0
LINE
8
0
10
392.853000
20
709.247000
11
392.853000
21
712.634000
0
LINE
8
0
10
392.853000
20
712.634000
11
397.933000
21
712.634000
0
LINE
8
0
10
397.933000
20
712.634000
11
397.933000
21
717.714000
0
LINE
8
0
10
397.933000
20
744.807000
11
401.320000
21
744.807000
0
LINE
8
0
10
397.933000
20
758.354000
11
401.320000
21
758.354000
0
LINE
8
0
10
401.320000
20
758.354000
11
401.320000
21
753.274000
0
LINE
8
0
10
401.320000
20
753.274000
11
406.400000
21
753.274000
0
LINE
8
0
10
406.400000
20
753.274000
11
406.400000
21
749.887000
0
LINE
8
0
10
406.400000
20
749.887000
11
401.320000
21
749.887000
0
LINE
8
0
10
401.320000
20
749.887000
11
401.320000
21
744.807000
0
LINE
8
0
10
397.933000
20
744.807000
11
397.933000
21
749.887000
0
LINE
8
0
10
397.933000
20
749.887000
11
392.853000
21
749.887000
0
LINE
8
0
10
392.853000
20
749.887000
11
392.853000
21
753.274000
0
LINE
8
0
10
392.853000
20
753.274000
11
397.933000
21
753.274000
0
LINE
8
0
10
397.933000
20
753.274000
11
397.933000
21
758.354000
0
LINE
8
0
10
397.933000
20
798.994000
11
401.320000
21
798.994000
0
LINE
8
0
10
401.320000
20
798.994000
11
401.320000
21
793.914000
0
LINE
8
0
10
401.320000
20
793.914000
11
406.400000
21
793.914000
0
LINE
8
0
10
406.400000
20
793.914000
11
406.400000
21
790.527000
0
LINE
8
0
10
406.400000
20
790.527000
11
401.320000
21
790.527000
0
LINE
8
0
10
401.320000
20
790.527000
11
401.320000
21
785.447000
0
LINE
8
0
10
401.320000
20
785.447000
11
397.933000
21
785.447000
0
LINE
8
0
10
397.933000
20
785.447000
11
397.933000
21
790.527000
0
LINE
8
0
10
397.933000
20
790.527000
11
392.853000
21
790.527000
0
LINE
8
0
10
392.853000
20
790.527000
11
392.853000
21
793.914000
0
LINE
8
0
10
392.853000
20
793.914000
11
397.933000
21
793.914000
0
LINE
8
0
10
397.933000
20
793.914000
11
397.933000
21
798.994000
0
LINE
8
0
10
397.933000
20
839.634000
11
401.320000
21
839.634000
0
LINE
8
0
10
401.320000
20
839.634000
11
401.320000
21
834.554000
0
LINE
8
0
10
401.320000
20
834.554000
11
406.400000
21
834.554000
0
LINE
8
0
10
406.400000
20
834.554000
11
406.400000
21
831.167000
0
LINE
8
0
10
406.400000
20
831.167000
11
401.320000
21
831.167000
0
LINE
8
0
10
401.320000
20
831.167000
11
401.320000
21
826.087000
0
LINE
8
0
10
401.320000
20
826.087000
11
397.933000
21
826.087000
0
LINE
8
0
10
397.933000
20
826.087000
11
397.933000
21
831.167000
0
LINE
8
0
10
397.933000
20
831.167000
11
392.853000
21
831.167000
0
LINE
8
0
10
392.853000
20
831.167000
11
392.853000
21
834.554000
0
LINE
8
0
10
392.853000
20
834.554000
11
397.933000
21
834.554000
0
LINE
8
0
10
397.933000
20
834.554000
11
397.933000
21
839.634000
0
LINE
8
0
10
397.933000
20
880.274000
11
401.320000
21
880.274000
0
LINE
8
0
10
401.320000
20
880.274000
11
401.320000
21
875.194000
0
LINE
8
0
10
401.320000
20
875.194000
11
406.400000
21
875.194000
0
LINE
8
0
10
406.400000
20
875.194000
11
406.400000
21
871.807000
0
LINE
8
0
10
406.400000
20
871.807000
11
401.320000
21
871.807000
0
LINE
8
0
10
401.320000
20
871.807000
11
401.320000
21
866.727000
0
LINE
8
0
10
401.320000
20
866.727000
11
397.933000
21
866.727000
0
LINE
8
0
10
397.933000
20
866.727000
11
397.933000
21
871.807000
0
LINE
8
0
10
397.933000
20
871.807000
11
392.853000
21
871.807000
0
LINE
8
0
10
392.853000
20
871.807000
11
392.853000
21
875.194000
0
LINE
8
0
10
392.853000
20
875.194000
11
397.933000
21
875.194000
0
LINE
8
0
10
397.933000
20
875.194000
11
397.933000
21
880.274000
0
LINE
8
0
10
397.933000
20
920.914000
11
401.320000
21
920.914000
0
LINE
8
0
10
401.320000
20
920.914000
11
401.320000
21
915.834000
0
LINE
8
0
10
401.320000
20
915.834000
11
406.400000
21
915.834000
0
LINE
8
0
10
406.400000
20
915.834000
11
406.400000
21
912.447000
0
LINE
8
0
10
406.400000
20
912.447000
11
401.320000
21
912.447000
0
LINE
8
0
10
401.320000
20
912.447000
11
401.320000
21
907.367000
0
LINE
8
0
10
401.320000
20
907.367000
11
397.933000
21
907.367000
0
LINE
8
0
10
397.933000
20
907.367000
11
397.933000
21
912.447000
0
LINE
8
0
10
397.933000
20
912.447000
11
392.853000
21
912.447000
0
LINE
8
0
10
392.853000
20
912.447000
11
392.853000
21
915.834000
0
LINE
8
0
10
392.853000
20
915.834000
11
397.933000
21
915.834000
0
LINE
8
0
10
397.933000
20
915.834000
11
397.933000
21
920.914000
0
LINE
8
0
10
397.933000
20
961.554000
11
401.320000
21
961.554000
0
LINE
8
0
10
401.320000
20
961.554000
11
401.320000
21
956.474000
0
LINE
8
0
10
401.320000
20
956.474000
11
406.400000
21
956.474000
0
LINE
8
0
10
406.400000
20
956.474000
11
406.400000
21
953.087000
0
LINE
8
0
10
406.400000
20
953.087000
11
401.320000
21
953.087000
0
LINE
8
0
10
401.320000
20
953.087000
11
401.320000
21
948.007000
0
LINE
8
0
10
401.320000
20
948.007000
11
397.933000
21
948.007000
0
LINE
8
0
10
397.933000
20
948.007000
11
397.933000
21
953.087000
0
LINE
8
0
10
397.933000
20
953.087000
11
392.853000
21
953.087000
0
LINE
8
0
10
392.853000
20
953.087000
11
392.853000
21
956.474000
0
LINE
8
0
10
392.853000
20
956.474000
11
397.933000
21
956.474000
0
LINE
8
0
10
397.933000
20
956.474000
11
397.933000
21
961.554000
0
LINE
8
0
10
397.933000
20
1002.190000
11
401.320000
21
1002.190000
0
LINE
8
0
10
401.320000
20
1002.190000
11
401.320000
21
997.114000
0
LINE
8
0
10
401.320000
20
997.114000
11
406.400000
21
997.114000
0
LINE
8
0
10
406.400000
20
997.114000
11
406.400000
21
993.727000
0
LINE
8
0
10
406.400000
20
993.727000
11
401.320000
21
993.727000
0
LINE
8
0
10
401.320000
20
993.727000
11
401.320000
21
988.647000
0
LINE
8
0
10
401.320000
20
988.647000
11
397.933000
21
988.647000
0
LINE
8
0
10
397.933000
20
988.647000
11
397.933000
21
993.727000
0
LINE
8
0
10
397.933000
20
993.727000
11
392.853000
21
993.727000
0
LINE
8
0
10
392.853000
20
993.727000
11
392.853000
21
997.114000
0
LINE
8
0
10
392.853000
20
997.114000
11
397.933000
21
997.114000
0
LINE
8
0
10
397.933000
20
997.114000
11
397.933000
21
1002.190000
0
LINE
8
0
10
392.853000
20
1037.750000
11
406.400000
21
1037.750000
0
LINE
8
0
10
406.400000
20
1037.750000
11
406.400000
21
1034.370000
0
LINE
8
0
10
406.400000
20
1034.370000
11
401.320000
21
1034.370000
0
LINE
8
0
10
401.320000
20
1034.370000
11
401.320000
21
1029.290000
0
LINE
8
0
10
401.320000
20
1029.290000
11
397.933000
21
1029.290000
0
LINE
8
0
10
397.933000
20
1029.290000
11
397.933000
21
1034.370000
0
LINE
8
0
10
397.933000
20
1034.370000
11
392.853000
21
1034.370000
0
LINE
8
0
10
392.853000
20
1034.370000
11
392.853000
21
1037.750000
0
LINE
8
0
10
479.213000
20
514.514000
11
482.600000
21
514.514000
0
LINE
8
0
10
482.600000
20
514.514000
11
482.600000
21
509.434000
0
LINE
8
0
10
482.600000
20
509.434000
11
487.680000
21
509.434000
0
LINE
8
0
10
487.680000
20
509.434000
11
487.680000
21
506.047000
0
LINE
8
0
10
487.680000
20
506.047000
11
482.600000
21
506.047000
0
LINE
8
0
10
482.600000
20
506.047000
11
482.600000
21
500.967000
0
LINE
8
0
10
482.600000
20
500.967000
11
479.213000
21
500.967000
0
LINE
8
0
10
479.213000
20
500.967000
11
479.213000
21
506.047000
0
LINE
8
0
10
479.213000
20
506.047000
11
474.133000
21
506.047000
0
LINE
8
0
10
474.133000
20
506.047000
11
474.133000
21
509.434000
0
LINE
8
0
10
474.133000
20
509.434000
11
479.213000
21
509.434000
0
LINE
8
0
10
479.213000
20
509.434000
11
479.213000
21
514.514000
0
LINE
8
0
10
479.213000
20
555.154000
11
482.600000
21
555.154000
0
LINE
8
0
10
482.600000
20
555.154000
11
482.600000
21
550.074000
0
LINE
8
0
10
482.600000
20
550.074000
11
487.680000
21
550.074000
0
LINE
8
0
10
487.680000
20
550.074000
11
487.680000
21
546.687000
0
LINE
8
0
10
487.680000
20
546.687000
11
482.600000
21
546.687000
0
LINE
8
0
10
482.600000
20
546.687000
11
482.600000
21
541.607000
0
LINE
8
0
10
482.600000
20
541.607000
11
479.213000
21
541.607000
0
LINE
8
0
10
479.213000
20
541.607000
11
479.213000
21
546.687000
0
LINE
8
0
10
479.213000
20
546.687000
11
474.133000
21
546.687000
0
LINE
8
0
10
474.133000
20
546.687000
11
474.133000
21
550.074000
0
LINE
8
0
10
474.133000
20
550.074000
11
479.213000
21
550.074000
0
LINE
8
0
10
479.213000
20
550.074000
11
479.213000
21
555.154000
0
LINE
8
0
10
479.213000
20
595.794000
11
482.600000
21
595.794000
0
LINE
8
0
10
482.600000
20
595.794000
11
482.600000
21
590.714000
0
LINE
8
0
10
482.600000
20
590.714000
11
487.680000
21
590.714000
0
LINE
8
0
10
487.680000
20
590.714000
11
487.680000
21
587.327000
0
LINE
8
0
10
487.680000
20
587.327000
11
482.600000
21
587.327000
0
LINE
8
0
10
482.600000
20
587.327000
11
482.600000
21
582.247000
0
LINE
8
0
10
482.600000
20
582.247000
11
479.213000
21
582.247000
0
LINE
8
0
10
479.213000
20
582.247000
11
479.213000
21
587.327000
0
LINE
8
0
10
479.213000
20
587.327000
11
474.133000
21
587.327000
0
LINE
8
0
10
474.133000
20
587.327000
11
474.133000
21
590.714000
0
LINE
8
0
10
474.133000
20
590.714000
11
479.213000
21
590.714000
0
LINE
8
0
10
479.213000
20
590.714000
11
479.213000
21
595.794000
0
LINE
8
0
10
479.213000
20
636.434000
11
482.600000
21
636.434000
0
LINE
8
0
10
482.600000
20
636.434000
11
482.600000
21
631.354000
0
LINE
8
0
10
482.600000
20
631.354000
11
487.680000
21
631.354000
0
LINE
8
0
10
487.680000
20
631.354000
11
487.680000
21
627.967000
0
LINE
8
0
10
487.680000
20
627.967000
11
482.600000
21
627.967000
0
LINE
8
0
10
482.600000
20
627.967000
11
482.600000
21
622.887000
0
LINE
8
0
10
482.600000
20
622.887000
11
479.213000
21
622.887000
0
LINE
8
0
10
479.213000
20
622.887000
11
479.213000
21
627.967000
0
LINE
8
0
10
479.213000
20
627.967000
11
474.133000
21
627.967000
0
LINE
8
0
10
474.133000
20
627.967000
11
474.133000
21
631.354000
0
LINE
8
0
10
474.133000
20
631.354000
11
479.213000
21
631.354000
0
LINE
8
0
10
479.213000
20
631.354000
11
479.213000
21
636.434000
0
LINE
8
0
10
479.213000
20
677.074000
11
482.600000
21
677.074000
0
LINE
8
0
10
482.600000
20
677.074000
11
482.600000
21
671.994000
0
LINE
8
0
10
482.600000
20
671.994000
11
487.680000
21
671.994000
0
LINE
8
0
10
487.680000
20
671.994000
11
487.680000
21
668.607000
0
LINE
8
0
10
487.680000
20
668.607000
11
482.600000
21
668.607000
0
LINE
8
0
10
482.600000
20
668.607000
11
482.600000
21
663.527000
0
LINE
8
0
10
482.600000
20
663.527000
11
479.213000
21
663.527000
0
LINE
8
0
10
479.213000
20
663.527000
11
479.213000
21
668.607000
0
LINE
8
0
10
479.213000
20
668.607000
11
474.133000
21
668.607000
0
LINE
8
0
10
474.133000
20
668.607000
11
474.133000
21
671.994000
0
LINE
8
0
10
474.133000
20
671.994000
11
479.213000
21
671.994000
0
LINE
8
0
10
479.213000
20
671.994000
11
479.213000
21
677.074000
0
LINE
8
0
10
479.213000
20
717.714000
11
482.600000
21
717.714000
0
LINE
8
0
10
482.600000
20
717.714000
11
482.600000
21
712.634000
0
LINE
8
0
10
482.600000
20
712.634000
11
487.680000
21
712.634000
0
LINE
8
0
10
487.680000
20
712.634000
11
487.680000
21
709.247000
0
LINE
8
0
10
487.680000
20
709.247000
11
482.600000
21
709.247000
0
LINE
8
0
10
482.600000
20
709.247000
11
482.600000
21
704.167000
0
LINE
8
0
10
482.600000
20
704.167000
11
479.213000
21
704.167000
0
LINE
8
0
10
479.213000
20
704.167000
11
479.213000
21
709.247000
0
LINE
8
0
10
479.213000
20
709.247000
11
474.133000
21
709.247000
0
LINE
8
0
10
474.133000
20
709.247000
11
474.133000
21
712.634000
0
LINE
8
0
10
474.133000
20
712.634000
11
479.213000
21
712.634000
0
LINE
8
0
10
479.213000
20
712.634000
11
479.213000
21
717.714000
0
LINE
8
0
10
479.213000
20
744.807000
11
482.600000
21
744.807000
0
LINE
8
0
10
479.213000
20
758.354000
11
482.600000
21
758.354000
0
LINE
8
0
10
482.600000
20
758.354000
11
482.600000
21
753.274000
0
LINE
8
0
10
482.600000
20
753.274000
11
487.680000
21
753.274000
0
LINE
8
0
10
487.680000
20
753.274000
11
487.680000
21
749.887000
0
LINE
8
0
10
487.680000
20
749.887000
11
482.600000
21
749.887000
0
LINE
8
0
10
482.600000
20
749.887000
11
482.600000
21
744.807000
0
LINE
8
0
10
479.213000
20
744.807000
11
479.213000
21
749.887000
0
LINE
8
0
10
479.213000
20
749.887000
11
474.133000
21
749.887000
0
LINE
8
0
10
474.133000
20
749.887000
11
474.133000
21
753.274000
0
LINE
8
0
10
474.133000
20
753.274000
11
479.213000
21
753.274000
0
LINE
8
0
10
479.213000
20
753.274000
11
479.213000
21
758.354000
0
LINE
8
0
10
479.213000
20
798.994000
11
482.600000
21
798.994000
0
LINE
8
0
10
482.600000
20
798.994000
11
482.600000
21
793.914000
0
LINE
8
0
10
482.600000
20
793.914000
11
487.680000
21
793.914000
0
LINE
8
0
10
487.680000
20
793.914000
11
487.680000
21
790.527000
0
LINE
8
0
10
487.680000
20
790.527000
11
482.600000
21
790.527000
0
LINE
8
0
10
482.600000
20
790.527000
11
482.600000
21
785.447000
0
LINE
8
0
10
482.600000
20
785.447000
11
479.213000
21
785.447000
0
LINE
8
0
10
479.213000
20
785.447000
11
479.213000
21
790.527000
0
LINE
8
0
10
479.213000
20
790.527000
11
474.133000
21
790.527000
0
LINE
8
0
10
474.133000
20
790.527000
11
474.133000
21
793.914000
0
LINE
8
0
10
474.133000
20
793.914000
11
479.213000
21
793.914000
0
LINE
8
0
10
479.213000
20
793.914000
11
479.213000
21
798.994000
0
LINE
8
0
10
479.213000
20
839.634000
11
482.600000
21
839.634000
0
LINE
8
0
10
482.600000
20
839.634000
11
482.600000
21
834.554000
0
LINE
8
0
10
482.600000
20
834.554000
11
487.680000
21
834.554000
0
LINE
8
0
10
487.680000
20
834.554000
11
487.680000
21
831.167000
0
LINE
8
0
10
487.680000
20
831.167000
11
482.600000
21
831.167000
0
LINE
8
0
10
482.600000
20
831.167000
11
482.600000
21
826.087000
0
LINE
8
0
10
482.600000
20
826.087000
11
479.213000
21
826.087000
0
LINE
8
0
10
479.213000
20
826.087000
11
479.213000
21
831.167000
0
LINE
8
0
10
479.213000
20
831.167000
11
474.133000
21
831.167000
0
LINE
8
0
10
474.133000
20
831.167000
11
474.133000
21
834.554000
0
LINE
8
0
10
474.133000
20
834.554000
11
479.213000
21
834.554000
0
LINE
8
0
10
479.213000
20
834.554000
11
479.213000
21
839.634000
0
LINE
8
0
10
479.213000
20
880.274000
11
482.600000
21
880.274000
0
LINE
8
0
10
482.600000
20
880.274000
11
482.600000
21
875.194000
0
LINE
8
0
10
482.600000
20
875.194000
11
487.680000
21
875.194000
0
LINE
8
0
10
487.680000
20
875.194000
11
487.680000
21
871.807000
0
LINE
8
0
10
487.680000
20
871.807000
11
482.600000
21
871.807000
0
LINE
8
0
10
482.600000
20
871.807000
11
482.600000
21
866.727000
0
LINE
8
0
10
482.600000
20
866.727000
11
479.213000
21
866.727000
0
LINE
8
0
10
479.213000
20
866.727000
11
479.213000
21
871.807000
0
LINE
8
0
10
479.213000
20
871.807000
11
474.133000
21
871.807000
0
LINE
8
0
10
474.133000
20
871.807000
11
474.133000
21
875.194000
0
LINE
8
0
10
474.133000
20
875.194000
11
479.213000
21
875.194000
0
LINE
8
0
10
479.213000
20
875.194000
11
479.213000
21
880.274000
0
LINE
8
0
10
479.213000
20
920.914000
11
482.600000
21
920.914000
0
LINE
8
0
10
482.600000
20
920.914000
11
482.600000
21
915.834000
0
LINE
8
0
10
482.600000
20
915.834000
11
487.680000
21
915.834000
0
LINE
8
0
10
487.680000
20
915.834000
11
487.680000
21
912.447000
0
LINE
8
0
10
487.680000
20
912.447000
11
482.600000
21
912.447000
0
LINE
8
0
10
482.600000
20
912.447000
11
482.600000
21
907.367000
0
LINE
8
0
10
482.600000
20
907.367000
11
479.213000
21
907.367000
0
LINE
8
0
10
479.213000
20
907.367000
11
479.213000
21
912.447000
0
LINE
8
0
10
479.213000
20
912.447000
11
474.133000
21
912.447000
0
LINE
8
0
10
474.133000
20
912.447000
11
474.133000
21
915.834000
0
LINE
8
0
10
474.133000
20
915.834000
11
479.213000
21
915.834000
0
LINE
8
0
10
479.213000
20
915.834000
11
479.213000
21
920.914000
0
LINE
8
0
10
479.213000
20
961.554000
11
482.600000
21
961.554000
0
LINE
8
0
10
482.600000
20
961.554000
11
482.600000
21
956.474000
0
LINE
8
0
10
482.600000
20
956.474000
11
487.680000
21
956.474000
0
LINE
8
0
10
487.680000
20
956.474000
11
487.680000
21
953.087000
0
LINE
8
0
10
487.680000
20
953.087000
11
482.600000
21
953.087000
0
LINE
8
0
10
482.600000
20
953.087000
11
482.600000
21
948.007000
0
LINE
8
0
10
482.600000
20
948.007000
11
479.213000
21
948.007000
0
LINE
8
0
10
479.213000
20
948.007000
11
479.213000
21
953.087000
0
LINE
8
0
10
479.213000
20
953.087000
11
474.133000
21
953.087000
0
LINE
8
0
10
474.133000
20
953.087000
11
474.133000
21
956.474000
0
LINE
8
0
10
474.133000
20
956.474000
11
479.213000
21
956.474000
0
LINE
8
0
10
479.213000
20
956.474000
11
479.213000
21
961.554000
0
LINE
8
0
10
479.213000
20
1002.190000
11
482.600000
21
1002.190000
0
LINE
8
0
10
482.600000
20
1002.190000
11
482.600000
21
997.114000
0
LINE
8
0
10
482.600000
20
997.114000
11
487.680000
21
997.114000
0
LINE
8
0
10
487.680000
20
997.114000
11
487.680000
21
993.727000
0
LINE
8
0
10
487.680000
20
993.727000
11
482.600000
21
993.727000
0
LINE
8
0
10
482.600000
20
993.727000
11
482.600000
21
988.647000
0
LINE
8
0
10
482.600000
20
988.647000
11
479.213000
21
988.647000
0
LINE
8
0
10
479.213000
20
988.647000
11
479.213000
21
993.727000
0
LINE
8
0
10
479.213000
20
993.727000
11
474.133000
21
993.727000
0
LINE
8
0
10
474.133000
20
993.727000
11
474.133000
21
997.114000
0
LINE
8
0
10
474.133000
20
997.114000
11
479.213000
21
997.114000
0
LINE
8
0
10
479.213000
20
997.114000
11
479.213000
21
1002.190000
0
LINE
8
0
10
474.133000
20
1037.750000
11
487.680000
21
1037.750000
0
LINE
8
0
10
487.680000
20
1037.750000
11
487.680000
21
1034.370000
0
LINE
8
0
10
487.680000
20
1034.370000
11
482.600000
21
1034.370000
0
LINE
8
0
10
482.600000
20
1034.370000
11
482.600000
21
1029.290000
0
LINE
8
0
10
482.600000
20
1029.290000
11
479.213000
21
1029.290000
0
LINE
8
0
10
479.213000
20
1029.290000
11
479.213000
21
1034.370000
0
LINE
8
0
10
479.213000
20
1034.370000
11
474.133000
21
1034.370000
0
LINE
8
0
10
474.133000
20
1034.370000
11
474.133000
21
1037.750000
0
LINE
8
0
10
438.573000
20
514.514000
11
441.960000
21
514.514000
0
LINE
8
0
10
441.960000
20
514.514000
11
441.960000
21
509.434000
0
LINE
8
0
10
441.960000
20
509.434000
11
447.040000
21
509.434000
0
LINE
8
0
10
447.040000
20
509.434000
11
447.040000
21
506.047000
0
LINE
8
0
10
447.040000
20
506.047000
11
441.960000
21
506.047000
0
LINE
8
0
10
441.960000
20
506.047000
11
441.960000
21
500.967000
0
LINE
8
0
10
441.960000
20
500.967000
11
438.573000
21
500.967000
0
LINE
8
0
10
438.573000
20
500.967000
11
438.573000
21
506.047000
0
LINE
8
0
10
438.573000
20
506.047000
11
433.493000
21
506.047000
0
LINE
8
0
10
433.493000
20
506.047000
11
433.493000
21
509.434000
0
LINE
8
0
10
433.493000
20
509.434000
11
438.573000
21
509.434000
0
LINE
8
0
10
438.573000
20
509.434000
11
438.573000
21
514.514000
0
LINE
8
0
10
438.573000
20
555.154000
11
441.960000
21
555.154000
0
LINE
8
0
10
441.960000
20
555.154000
11
441.960000
21
550.074000
0
LINE
8
0
10
441.960000
20
550.074000
11
447.040000
21
550.074000
0
LINE
8
0
10
447.040000
20
550.074000
11
447.040000
21
546.687000
0
LINE
8
0
10
447.040000
20
546.687000
11
441.960000
21
546.687000
0
LINE
8
0
10
441.960000
20
546.687000
11
441.960000
21
541.607000
0
LINE
8
0
10
441.960000
20
541.607000
11
438.573000
21
541.607000
0
LINE
8
0
10
438.573000
20
541.607000
11
438.573000
21
546.687000
0
LINE
8
0
10
438.573000
20
546.687000
11
433.493000
21
546.687000
0
LINE
8
0
10
32.173300
20
744.807000
11
35.560000
21
744.807000
0
LINE
8
0
10
433.493000
20
546.687000
11
433.493000
21
550.074000
0
LINE
8
0
10
433.493000
20
550.074000
11
438.573000
21
550.074000
0
LINE
8
0
10
438.573000
20
550.074000
11
438.573000
21
555.154000
0
LINE
8
0
10
438.573000
20
595.794000
11
441.960000
21
595.794000
0
LINE
8
0
10
441.960000
20
595.794000
11
441.960000
21
590.714000
0
LINE
8
0
10
441.960000
20
590.714000
11
447.040000
21
590.714000
0
LINE
8
0
10
447.040000
20
590.714000
11
447.040000
21
587.327000
0
LINE
8
0
10
447.040000
20
587.327000
11
441.960000
21
587.327000
0
LINE
8
0
10
-8.466660
20
744.807000
11
-5.080000
21
744.807000
0
LINE
8
0
10
441.960000
20
587.327000
11
441.960000
21
582.247000
0
LINE
8
0
10
441.960000
20
582.247000
11
438.573000
21
582.247000
0
LINE
8
0
10
438.573000
20
582.247000
11
438.573000
21
587.327000
0
LINE
8
0
10
438.573000
20
587.327000
11
433.493000
21
587.327000
0
LINE
8
0
10
433.493000
20
587.327000
11
433.493000
21
590.714000
0
LINE
8
0
10
433.493000
20
590.714000
11
438.573000
21
590.714000
0
LINE
8
0
10
438.573000
20
590.714000
11
438.573000
21
595.794000
0
LINE
8
0
10
438.573000
20
636.434000
11
441.960000
21
636.434000
0
LINE
8
0
10
441.960000
20
636.434000
11
441.960000
21
631.354000
0
LINE
8
0
10
441.960000
20
631.354000
11
447.040000
21
631.354000
0
LINE
8
0
10
447.040000
20
631.354000
11
447.040000
21
627.967000
0
LINE
8
0
10
447.040000
20
627.967000
11
441.960000
21
627.967000
0
LINE
8
0
10
441.960000
20
627.967000
11
441.960000
21
622.887000
0
LINE
8
0
10
441.960000
20
622.887000
11
438.573000
21
622.887000
0
LINE
8
0
10
438.573000
20
622.887000
11
438.573000
21
627.967000
0
LINE
8
0
10
438.573000
20
627.967000
11
433.493000
21
627.967000
0
LINE
8
0
10
433.493000
20
627.967000
11
433.493000
21
631.354000
0
LINE
8
0
10
433.493000
20
631.354000
11
438.573000
21
631.354000
0
LINE
8
0
10
438.573000
20
631.354000
11
438.573000
21
636.434000
0
LINE
8
0
10
438.573000
20
677.074000
11
441.960000
21
677.074000
0
LINE
8
0
10
441.960000
20
677.074000
11
441.960000
21
671.994000
0
LINE
8
0
10
441.960000
20
671.994000
11
447.040000
21
671.994000
0
LINE
8
0
10
447.040000
20
671.994000
11
447.040000
21
668.607000
0
LINE
8
0
10
447.040000
20
668.607000
11
441.960000
21
668.607000
0
LINE
8
0
10
441.960000
20
668.607000
11
441.960000
21
663.527000
0
LINE
8
0
10
441.960000
20
663.527000
11
438.573000
21
663.527000
0
LINE
8
0
10
438.573000
20
663.527000
11
438.573000
21
668.607000
0
LINE
8
0
10
438.573000
20
668.607000
11
433.493000
21
668.607000
0
LINE
8
0
10
433.493000
20
668.607000
11
433.493000
21
671.994000
0
LINE
8
0
10
433.493000
20
671.994000
11
438.573000
21
671.994000
0
LINE
8
0
10
438.573000
20
671.994000
11
438.573000
21
677.074000
0
LINE
8
0
10
438.573000
20
717.714000
11
441.960000
21
717.714000
0
LINE
8
0
10
441.960000
20
717.714000
11
441.960000
21
712.634000
0
LINE
8
0
10
441.960000
20
712.634000
11
447.040000
21
712.634000
0
LINE
8
0
10
447.040000
20
712.634000
11
447.040000
21
709.247000
0
LINE
8
0
10
447.040000
20
709.247000
11
441.960000
21
709.247000
0
LINE
8
0
10
441.960000
20
709.247000
11
441.960000
21
704.167000
0
LINE
8
0
10
441.960000
20
704.167000
11
438.573000
21
704.167000
0
LINE
8
0
10
438.573000
20
704.167000
11
438.573000
21
709.247000
0
LINE
8
0
10
438.573000
20
709.247000
11
433.493000
21
709.247000
0
LINE
8
0
10
433.493000
20
709.247000
11
433.493000
21
712.634000
0
LINE
8
0
10
433.493000
20
712.634000
11
438.573000
21
712.634000
0
LINE
8
0
10
438.573000
20
712.634000
11
438.573000
21
717.714000
0
LINE
8
0
10
438.573000
20
744.807000
11
441.960000
21
744.807000
0
LINE
8
0
10
438.573000
20
758.354000
11
441.960000
21
758.354000
0
LINE
8
0
10
441.960000
20
758.354000
11
441.960000
21
753.274000
0
LINE
8
0
10
441.960000
20
753.274000
11
447.040000
21
753.274000
0
LINE
8
0
10
447.040000
20
753.274000
11
447.040000
21
749.887000
0
LINE
8
0
10
447.040000
20
749.887000
11
441.960000
21
749.887000
0
LINE
8
0
10
441.960000
20
749.887000
11
441.960000
21
744.807000
0
LINE
8
0
10
438.573000
20
744.807000
11
438.573000
21
749.887000
0
LINE
8
0
10
438.573000
20
749.887000
11
433.493000
21
749.887000
0
LINE
8
0
10
433.493000
20
749.887000
11
433.493000
21
753.274000
0
LINE
8
0
10
433.493000
20
753.274000
11
438.573000
21
753.274000
0
LINE
8
0
10
438.573000
20
753.274000
11
438.573000
21
758.354000
0
LINE
8
0
10
438.573000
20
798.994000
11
441.960000
21
798.994000
0
LINE
8
0
10
441.960000
20
798.994000
11
441.960000
21
793.914000
0
LINE
8
0
10
441.960000
20
793.914000
11
447.040000
21
793.914000
0
LINE
8
0
10
447.040000
20
793.914000
11
447.040000
21
790.527000
0
LINE
8
0
10
447.040000
20
790.527000
11
441.960000
21
790.527000
0
LINE
8
0
10
441.960000
20
790.527000
11
441.960000
21
785.447000
0
LINE
8
0
10
441.960000
20
785.447000
11
438.573000
21
785.447000
0
LINE
8
0
10
438.573000
20
785.447000
11
438.573000
21
790.527000
0
LINE
8
0
10
438.573000
20
790.527000
11
433.493000
21
790.527000
0
LINE
8
0
10
433.493000
20
790.527000
11
433.493000
21
793.914000
0
LINE
8
0
10
433.493000
20
793.914000
11
438.573000
21
793.914000
0
LINE
8
0
10
438.573000
20
793.914000
11
438.573000
21
798.994000
0
LINE
8
0
10
438.573000
20
839.634000
11
441.960000
21
839.634000
0
LINE
8
0
10
441.960000
20
839.634000
11
441.960000
21
834.554000
0
LINE
8
0
10
441.960000
20
834.554000
11
447.040000
21
834.554000
0
LINE
8
0
10
447.040000
20
834.554000
11
447.040000
21
831.167000
0
LINE
8
0
10
447.040000
20
831.167000
11
441.960000
21
831.167000
0
LINE
8
0
10
441.960000
20
831.167000
11
441.960000
21
826.087000
0
LINE
8
0
10
441.960000
20
826.087000
11
438.573000
21
826.087000
0
LINE
8
0
10
438.573000
20
826.087000
11
438.573000
21
831.167000
0
LINE
8
0
10
438.573000
20
831.167000
11
433.493000
21
831.167000
0
LINE
8
0
10
433.493000
20
831.167000
11
433.493000
21
834.554000
0
LINE
8
0
10
433.493000
20
834.554000
11
438.573000
21
834.554000
0
LINE
8
0
10
438.573000
20
834.554000
11
438.573000
21
839.634000
0
LINE
8
0
10
438.573000
20
880.274000
11
441.960000
21
880.274000
0
LINE
8
0
10
441.960000
20
880.274000
11
441.960000
21
875.194000
0
LINE
8
0
10
441.960000
20
875.194000
11
447.040000
21
875.194000
0
LINE
8
0
10
447.040000
20
875.194000
11
447.040000
21
871.807000
0
LINE
8
0
10
447.040000
20
871.807000
11
441.960000
21
871.807000
0
LINE
8
0
10
441.960000
20
871.807000
11
441.960000
21
866.727000
0
LINE
8
0
10
441.960000
20
866.727000
11
438.573000
21
866.727000
0
LINE
8
0
10
438.573000
20
866.727000
11
438.573000
21
871.807000
0
LINE
8
0
10
438.573000
20
871.807000
11
433.493000
21
871.807000
0
LINE
8
0
10
433.493000
20
871.807000
11
433.493000
21
875.194000
0
LINE
8
0
10
433.493000
20
875.194000
11
438.573000
21
875.194000
0
LINE
8
0
10
438.573000
20
875.194000
11
438.573000
21
880.274000
0
LINE
8
0
10
438.573000
20
920.914000
11
441.960000
21
920.914000
0
LINE
8
0
10
441.960000
20
920.914000
11
441.960000
21
915.834000
0
LINE
8
0
10
441.960000
20
915.834000
11
447.040000
21
915.834000
0
LINE
8
0
10
447.040000
20
915.834000
11
447.040000
21
912.447000
0
LINE
8
0
10
447.040000
20
912.447000
11
441.960000
21
912.447000
0
LINE
8
0
10
441.960000
20
912.447000
11
441.960000
21
907.367000
0
LINE
8
0
10
441.960000
20
907.367000
11
438.573000
21
907.367000
0
LINE
8
0
10
438.573000
20
907.367000
11
438.573000
21
912.447000
0
LINE
8
0
10
438.573000
20
912.447000
11
433.493000
21
912.447000
0
LINE
8
0
10
433.493000
20
912.447000
11
433.493000
21
915.834000
0
LINE
8
0
10
433.493000
20
915.834000
11
438.573000
21
915.834000
0
LINE
8
0
10
438.573000
20
915.834000
11
438.573000
21
920.914000
0
LINE
8
0
10
438.573000
20
961.554000
11
441.960000
21
961.554000
0
LINE
8
0
10
441.960000
20
961.554000
11
441.960000
21
956.474000
0
LINE
8
0
10
441.960000
20
956.474000
11
447.040000
21
956.474000
0
LINE
8
0
10
447.040000
20
956.474000
11
447.040000
21
953.087000
0
LINE
8
0
10
447.040000
20
953.087000
11
441.960000
21
953.087000
0
LINE
8
0
10
441.960000
20
953.087000
11
441.960000
21
948.007000
0
LINE
8
0
10
441.960000
20
948.007000
11
438.573000
21
948.007000
0
LINE
8
0
10
438.573000
20
948.007000
11
438.573000
21
953.087000
0
LINE
8
0
10
438.573000
20
953.087000
11
433.493000
21
953.087000
0
LINE
8
0
10
433.493000
20
953.087000
11
433.493000
21
956.474000
0
LINE
8
0
10
433.493000
20
956.474000
11
438.573000
21
956.474000
0
LINE
8
0
10
438.573000
20
956.474000
11
438.573000
21
961.554000
0
LINE
8
0
10
438.573000
20
1002.190000
11
441.960000
21
1002.190000
0
LINE
8
0
10
441.960000
20
1002.190000
11
441.960000
21
997.114000
0
LINE
8
0
10
441.960000
20
997.114000
11
447.040000
21
997.114000
0
LINE
8
0
10
447.040000
20
997.114000
11
447.040000
21
993.727000
0
LINE
8
0
10
447.040000
20
993.727000
11
441.960000
21
993.727000
0
LINE
8
0
10
441.960000
20
993.727000
11
441.960000
21
988.647000
0
LINE
8
0
10
441.960000
20
988.647000
11
438.573000
21
988.647000
0
LINE
8
0
10
438.573000
20
988.647000
11
438.573000
21
993.727000
0
LINE
8
0
10
438.573000
20
993.727000
11
433.493000
21
993.727000
0
LINE
8
0
10
433.493000
20
993.727000
11
433.493000
21
997.114000
0
LINE
8
0
10
433.493000
20
997.114000
11
438.573000
21
997.114000
0
LINE
8
0
10
438.573000
20
997.114000
11
438.573000
21
1002.190000
0
LINE
8
0
10
433.493000
20
1037.750000
11
447.040000
21
1037.750000
0
LINE
8
0
10
447.040000
20
1037.750000
11
447.040000
21
1034.370000
0
LINE
8
0
10
447.040000
20
1034.370000
11
441.960000
21
1034.370000
0
LINE
8
0
10
441.960000
20
1034.370000
11
441.960000
21
1029.290000
0
LINE
8
0
10
441.960000
20
1029.290000
11
438.573000
21
1029.290000
0
LINE
8
0
10
438.573000
20
1029.290000
11
438.573000
21
1034.370000
0
LINE
8
0
10
438.573000
20
1034.370000
11
433.493000
21
1034.370000
0
LINE
8
0
10
433.493000
20
1034.370000
11
433.493000
21
1037.750000
0
LINE
8
0
10
357.293000
20
514.514000
11
360.680000
21
514.514000
0
LINE
8
0
10
360.680000
20
514.514000
11
360.680000
21
509.434000
0
LINE
8
0
10
360.680000
20
509.434000
11
365.760000
21
509.434000
0
LINE
8
0
10
365.760000
20
509.434000
11
365.760000
21
506.047000
0
LINE
8
0
10
365.760000
20
506.047000
11
360.680000
21
506.047000
0
LINE
8
0
10
360.680000
20
506.047000
11
360.680000
21
500.967000
0
LINE
8
0
10
360.680000
20
500.967000
11
357.293000
21
500.967000
0
LINE
8
0
10
357.293000
20
500.967000
11
357.293000
21
506.047000
0
LINE
8
0
10
357.293000
20
506.047000
11
352.213000
21
506.047000
0
LINE
8
0
10
352.213000
20
506.047000
11
352.213000
21
509.434000
0
LINE
8
0
10
352.213000
20
509.434000
11
357.293000
21
509.434000
0
LINE
8
0
10
357.293000
20
509.434000
11
357.293000
21
514.514000
0
LINE
8
0
10
357.293000
20
555.154000
11
360.680000
21
555.154000
0
LINE
8
0
10
360.680000
20
555.154000
11
360.680000
21
550.074000
0
LINE
8
0
10
360.680000
20
550.074000
11
365.760000
21
550.074000
0
LINE
8
0
10
365.760000
20
550.074000
11
365.760000
21
546.687000
0
LINE
8
0
10
365.760000
20
546.687000
11
360.680000
21
546.687000
0
LINE
8
0
10
360.680000
20
546.687000
11
360.680000
21
541.607000
0
LINE
8
0
10
360.680000
20
541.607000
11
357.293000
21
541.607000
0
LINE
8
0
10
357.293000
20
541.607000
11
357.293000
21
546.687000
0
LINE
8
0
10
357.293000
20
546.687000
11
352.213000
21
546.687000
0
LINE
8
0
10
352.213000
20
546.687000
11
352.213000
21
550.074000
0
LINE
8
0
10
352.213000
20
550.074000
11
357.293000
21
550.074000
0
LINE
8
0
10
357.293000
20
550.074000
11
357.293000
21
555.154000
0
LINE
8
0
10
357.293000
20
595.794000
11
360.680000
21
595.794000
0
LINE
8
0
10
360.680000
20
595.794000
11
360.680000
21
590.714000
0
LINE
8
0
10
360.680000
20
590.714000
11
365.760000
21
590.714000
0
LINE
8
0
10
365.760000
20
590.714000
11
365.760000
21
587.327000
0
LINE
8
0
10
365.760000
20
587.327000
11
360.680000
21
587.327000
0
LINE
8
0
10
360.680000
20
587.327000
11
360.680000
21
582.247000
0
LINE
8
0
10
360.680000
20
582.247000
11
357.293000
21
582.247000
0
LINE
8
0
10
357.293000
20
582.247000
11
357.293000
21
587.327000
0
LINE
8
0
10
357.293000
20
587.327000
11
352.213000
21
587.327000
0
LINE
8
0
10
352.213000
20
587.327000
11
352.213000
21
590.714000
0
LINE
8
0
10
352.213000
20
590.714000
11
357.293000
21
590.714000
0
LINE
8
0
10
357.293000
20
590.714000
11
357.293000
21
595.794000
0
LINE
8
0
10
357.293000
20
636.434000
11
360.680000
21
636.434000
0
LINE
8
0
10
360.680000
20
636.434000
11
360.680000
21
631.354000
0
LINE
8
0
10
360.680000
20
631.354000
11
365.760000
21
631.354000
0
LINE
8
0
10
365.760000
20
631.354000
11
365.760000
21
627.967000
0
LINE
8
0
10
365.760000
20
627.967000
11
360.680000
21
627.967000
0
LINE
8
0
10
360.680000
20
627.967000
11
360.680000
21
622.887000
0
LINE
8
0
10
360.680000
20
622.887000
11
357.293000
21
622.887000
0
LINE
8
0
10
357.293000
20
622.887000
11
357.293000
21
627.967000
0
LINE
8
0
10
357.293000
20
627.967000
11
352.213000
21
627.967000
0
LINE
8
0
10
352.213000
20
627.967000
11
352.213000
21
631.354000
0
LINE
8
0
10
352.213000
20
631.354000
11
357.293000
21
631.354000
0
LINE
8
0
10
357.293000
20
631.354000
11
357.293000
21
636.434000
0
LINE
8
0
10
357.293000
20
677.074000
11
360.680000
21
677.074000
0
LINE
8
0
10
360.680000
20
677.074000
11
360.680000
21
671.994000
0
LINE
8
0
10
360.680000
20
671.994000
11
365.760000
21
671.994000
0
LINE
8
0
10
365.760000
20
671.994000
11
365.760000
21
668.607000
0
LINE
8
0
10
365.760000
20
668.607000
11
360.680000
21
668.607000
0
LINE
8
0
10
360.680000
20
668.607000
11
360.680000
21
663.527000
0
LINE
8
0
10
360.680000
20
663.527000
11
357.293000
21
663.527000
0
LINE
8
0
10
357.293000
20
663.527000
11
357.293000
21
668.607000
0
LINE
8
0
10
357.293000
20
668.607000
11
352.213000
21
668.607000
0
LINE
8
0
10
352.213000
20
668.607000
11
352.213000
21
671.994000
0
LINE
8
0
10
352.213000
20
671.994000
11
357.293000
21
671.994000
0
LINE
8
0
10
357.293000
20
671.994000
11
357.293000
21
677.074000
0
LINE
8
0
10
357.293000
20
717.714000
11
360.680000
21
717.714000
0
LINE
8
0
10
360.680000
20
717.714000
11
360.680000
21
712.634000
0
LINE
8
0
10
360.680000
20
712.634000
11
365.760000
21
712.634000
0
LINE
8
0
10
365.760000
20
712.634000
11
365.760000
21
709.247000
0
LINE
8
0
10
365.760000
20
709.247000
11
360.680000
21
709.247000
0
LINE
8
0
10
360.680000
20
709.247000
11
360.680000
21
704.167000
0
LINE
8
0
10
360.680000
20
704.167000
11
357.293000
21
704.167000
0
LINE
8
0
10
357.293000
20
704.167000
11
357.293000
21
709.247000
0
LINE
8
0
10
357.293000
20
709.247000
11
352.213000
21
709.247000
0
LINE
8
0
10
352.213000
20
709.247000
11
352.213000
21
712.634000
0
LINE
8
0
10
352.213000
20
712.634000
11
357.293000
21
712.634000
0
LINE
8
0
10
357.293000
20
712.634000
11
357.293000
21
717.714000
0
LINE
8
0
10
357.293000
20
744.807000
11
360.680000
21
744.807000
0
LINE
8
0
10
357.293000
20
758.354000
11
360.680000
21
758.354000
0
LINE
8
0
10
360.680000
20
758.354000
11
360.680000
21
753.274000
0
LINE
8
0
10
360.680000
20
753.274000
11
365.760000
21
753.274000
0
LINE
8
0
10
365.760000
20
753.274000
11
365.760000
21
749.887000
0
LINE
8
0
10
365.760000
20
749.887000
11
360.680000
21
749.887000
0
LINE
8
0
10
360.680000
20
749.887000
11
360.680000
21
744.807000
0
LINE
8
0
10
357.293000
20
744.807000
11
357.293000
21
749.887000
0
LINE
8
0
10
357.293000
20
749.887000
11
352.213000
21
749.887000
0
LINE
8
0
10
352.213000
20
749.887000
11
352.213000
21
753.274000
0
LINE
8
0
10
352.213000
20
753.274000
11
357.293000
21
753.274000
0
LINE
8
0
10
357.293000
20
753.274000
11
357.293000
21
758.354000
0
LINE
8
0
10
357.293000
20
798.994000
11
360.680000
21
798.994000
0
LINE
8
0
10
360.680000
20
798.994000
11
360.680000
21
793.914000
0
LINE
8
0
10
360.680000
20
793.914000
11
365.760000
21
793.914000
0
LINE
8
0
10
365.760000
20
793.914000
11
365.760000
21
790.527000
0
LINE
8
0
10
365.760000
20
790.527000
11
360.680000
21
790.527000
0
LINE
8
0
10
360.680000
20
790.527000
11
360.680000
21
785.447000
0
LINE
8
0
10
360.680000
20
785.447000
11
357.293000
21
785.447000
0
LINE
8
0
10
357.293000
20
785.447000
11
357.293000
21
790.527000
0
LINE
8
0
10
357.293000
20
790.527000
11
352.213000
21
790.527000
0
LINE
8
0
10
352.213000
20
790.527000
11
352.213000
21
793.914000
0
LINE
8
0
10
352.213000
20
793.914000
11
357.293000
21
793.914000
0
LINE
8
0
10
357.293000
20
793.914000
11
357.293000
21
798.994000
0
LINE
8
0
10
357.293000
20
839.634000
11
360.680000
21
839.634000
0
LINE
8
0
10
360.680000
20
839.634000
11
360.680000
21
834.554000
0
LINE
8
0
10
360.680000
20
834.554000
11
365.760000
21
834.554000
0
LINE
8
0
10
365.760000
20
834.554000
11
365.760000
21
831.167000
0
LINE
8
0
10
365.760000
20
831.167000
11
360.680000
21
831.167000
0
LINE
8
0
10
360.680000
20
831.167000
11
360.680000
21
826.087000
0
LINE
8
0
10
360.680000
20
826.087000
11
357.293000
21
826.087000
0
LINE
8
0
10
357.293000
20
826.087000
11
357.293000
21
831.167000
0
LINE
8
0
10
357.293000
20
831.167000
11
352.213000
21
831.167000
0
LINE
8
0
10
352.213000
20
831.167000
11
352.213000
21
834.554000
0
LINE
8
0
10
352.213000
20
834.554000
11
357.293000
21
834.554000
0
LINE
8
0
10
357.293000
20
834.554000
11
357.293000
21
839.634000
0
LINE
8
0
10
357.293000
20
880.274000
11
360.680000
21
880.274000
0
LINE
8
0
10
360.680000
20
880.274000
11
360.680000
21
875.194000
0
LINE
8
0
10
360.680000
20
875.194000
11
365.760000
21
875.194000
0
LINE
8
0
10
365.760000
20
875.194000
11
365.760000
21
871.807000
0
LINE
8
0
10
365.760000
20
871.807000
11
360.680000
21
871.807000
0
LINE
8
0
10
360.680000
20
871.807000
11
360.680000
21
866.727000
0
LINE
8
0
10
360.680000
20
866.727000
11
357.293000
21
866.727000
0
LINE
8
0
10
357.293000
20
866.727000
11
357.293000
21
871.807000
0
LINE
8
0
10
357.293000
20
871.807000
11
352.213000
21
871.807000
0
LINE
8
0
10
352.213000
20
871.807000
11
352.213000
21
875.194000
0
LINE
8
0
10
352.213000
20
875.194000
11
357.293000
21
875.194000
0
LINE
8
0
10
357.293000
20
875.194000
11
357.293000
21
880.274000
0
LINE
8
0
10
357.293000
20
920.914000
11
360.680000
21
920.914000
0
LINE
8
0
10
360.680000
20
920.914000
11
360.680000
21
915.834000
0
LINE
8
0
10
360.680000
20
915.834000
11
365.760000
21
915.834000
0
LINE
8
0
10
365.760000
20
915.834000
11
365.760000
21
912.447000
0
LINE
8
0
10
365.760000
20
912.447000
11
360.680000
21
912.447000
0
LINE
8
0
10
360.680000
20
912.447000
11
360.680000
21
907.367000
0
LINE
8
0
10
360.680000
20
907.367000
11
357.293000
21
907.367000
0
LINE
8
0
10
357.293000
20
907.367000
11
357.293000
21
912.447000
0
LINE
8
0
10
357.293000
20
912.447000
11
352.213000
21
912.447000
0
LINE
8
0
10
352.213000
20
912.447000
11
352.213000
21
915.834000
0
LINE
8
0
10
352.213000
20
915.834000
11
357.293000
21
915.834000
0
LINE
8
0
10
357.293000
20
915.834000
11
357.293000
21
920.914000
0
LINE
8
0
10
357.293000
20
961.554000
11
360.680000
21
961.554000
0
LINE
8
0
10
360.680000
20
961.554000
11
360.680000
21
956.474000
0
LINE
8
0
10
360.680000
20
956.474000
11
365.760000
21
956.474000
0
LINE
8
0
10
365.760000
20
956.474000
11
365.760000
21
953.087000
0
LINE
8
0
10
365.760000
20
953.087000
11
360.680000
21
953.087000
0
LINE
8
0
10
360.680000
20
953.087000
11
360.680000
21
948.007000
0
LINE
8
0
10
360.680000
20
948.007000
11
357.293000
21
948.007000
0
LINE
8
0
10
357.293000
20
948.007000
11
357.293000
21
953.087000
0
LINE
8
0
10
357.293000
20
953.087000
11
352.213000
21
953.087000
0
LINE
8
0
10
352.213000
20
953.087000
11
352.213000
21
956.474000
0
LINE
8
0
10
352.213000
20
956.474000
11
357.293000
21
956.474000
0
LINE
8
0
10
357.293000
20
956.474000
11
357.293000
21
961.554000
0
LINE
8
0
10
357.293000
20
1002.190000
11
360.680000
21
1002.190000
0
LINE
8
0
10
360.680000
20
1002.190000
11
360.680000
21
997.114000
0
LINE
8
0
10
360.680000
20
997.114000
11
365.760000
21
997.114000
0
LINE
8
0
10
365.760000
20
997.114000
11
365.760000
21
993.727000
0
LINE
8
0
10
365.760000
20
993.727000
11
360.680000
21
993.727000
0
LINE
8
0
10
360.680000
20
993.727000
11
360.680000
21
988.647000
0
LINE
8
0
10
360.680000
20
988.647000
11
357.293000
21
988.647000
0
LINE
8
0
10
357.293000
20
988.647000
11
357.293000
21
993.727000
0
LINE
8
0
10
357.293000
20
993.727000
11
352.213000
21
993.727000
0
LINE
8
0
10
352.213000
20
993.727000
11
352.213000
21
997.114000
0
LINE
8
0
10
352.213000
20
997.114000
11
357.293000
21
997.114000
0
LINE
8
0
10
357.293000
20
997.114000
11
357.293000
21
1002.190000
0
LINE
8
0
10
352.213000
20
1037.750000
11
365.760000
21
1037.750000
0
LINE
8
0
10
365.760000
20
1037.750000
11
365.760000
21
1034.370000
0
LINE
8
0
10
365.760000
20
1034.370000
11
360.680000
21
1034.370000
0
LINE
8
0
10
360.680000
20
1034.370000
11
360.680000
21
1029.290000
0
LINE
8
0
10
360.680000
20
1029.290000
11
357.293000
21
1029.290000
0
LINE
8
0
10
357.293000
20
1029.290000
11
357.293000
21
1034.370000
0
LINE
8
0
10
357.293000
20
1034.370000
11
352.213000
21
1034.370000
0
LINE
8
0
10
352.213000
20
1034.370000
11
352.213000
21
1037.750000
0
LINE
8
0
10
560.493000
20
514.514000
11
563.880000
21
514.514000
0
LINE
8
0
10
563.880000
20
514.514000
11
563.880000
21
509.434000
0
LINE
8
0
10
563.880000
20
509.434000
11
568.960000
21
509.434000
0
LINE
8
0
10
568.960000
20
509.434000
11
568.960000
21
506.047000
0
LINE
8
0
10
568.960000
20
506.047000
11
563.880000
21
506.047000
0
LINE
8
0
10
563.880000
20
506.047000
11
563.880000
21
500.967000
0
LINE
8
0
10
563.880000
20
500.967000
11
560.493000
21
500.967000
0
LINE
8
0
10
560.493000
20
500.967000
11
560.493000
21
506.047000
0
LINE
8
0
10
560.493000
20
506.047000
11
555.413000
21
506.047000
0
LINE
8
0
10
555.413000
20
506.047000
11
555.413000
21
509.434000
0
LINE
8
0
10
555.413000
20
509.434000
11
560.493000
21
509.434000
0
LINE
8
0
10
560.493000
20
509.434000
11
560.493000
21
514.514000
0
LINE
8
0
10
560.493000
20
555.154000
11
563.880000
21
555.154000
0
LINE
8
0
10
563.880000
20
555.154000
11
563.880000
21
550.074000
0
LINE
8
0
10
563.880000
20
550.074000
11
568.960000
21
550.074000
0
LINE
8
0
10
568.960000
20
550.074000
11
568.960000
21
546.687000
0
LINE
8
0
10
568.960000
20
546.687000
11
563.880000
21
546.687000
0
LINE
8
0
10
563.880000
20
546.687000
11
563.880000
21
541.607000
0
LINE
8
0
10
563.880000
20
541.607000
11
560.493000
21
541.607000
0
LINE
8
0
10
560.493000
20
541.607000
11
560.493000
21
546.687000
0
LINE
8
0
10
560.493000
20
546.687000
11
555.413000
21
546.687000
0
LINE
8
0
10
555.413000
20
546.687000
11
555.413000
21
550.074000
0
LINE
8
0
10
555.413000
20
550.074000
11
560.493000
21
550.074000
0
LINE
8
0
10
560.493000
20
550.074000
11
560.493000
21
555.154000
0
LINE
8
0
10
560.493000
20
595.794000
11
563.880000
21
595.794000
0
LINE
8
0
10
563.880000
20
595.794000
11
563.880000
21
590.714000
0
LINE
8
0
10
563.880000
20
590.714000
11
568.960000
21
590.714000
0
LINE
8
0
10
568.960000
20
590.714000
11
568.960000
21
587.327000
0
LINE
8
0
10
568.960000
20
587.327000
11
563.880000
21
587.327000
0
LINE
8
0
10
563.880000
20
587.327000
11
563.880000
21
582.247000
0
LINE
8
0
10
563.880000
20
582.247000
11
560.493000
21
582.247000
0
LINE
8
0
10
560.493000
20
582.247000
11
560.493000
21
587.327000
0
LINE
8
0
10
560.493000
20
587.327000
11
555.413000
21
587.327000
0
LINE
8
0
10
555.413000
20
587.327000
11
555.413000
21
590.714000
0
LINE
8
0
10
555.413000
20
590.714000
11
560.493000
21
590.714000
0
LINE
8
0
10
560.493000
20
590.714000
11
560.493000
21
595.794000
0
LINE
8
0
10
560.493000
20
636.434000
11
563.880000
21
636.434000
0
LINE
8
0
10
563.880000
20
636.434000
11
563.880000
21
631.354000
0
LINE
8
0
10
563.880000
20
631.354000
11
568.960000
21
631.354000
0
LINE
8
0
10
568.960000
20
631.354000
11
568.960000
21
627.967000
0
LINE
8
0
10
568.960000
20
627.967000
11
563.880000
21
627.967000
0
LINE
8
0
10
563.880000
20
627.967000
11
563.880000
21
622.887000
0
LINE
8
0
10
563.880000
20
622.887000
11
560.493000
21
622.887000
0
LINE
8
0
10
560.493000
20
622.887000
11
560.493000
21
627.967000
0
LINE
8
0
10
560.493000
20
627.967000
11
555.413000
21
627.967000
0
LINE
8
0
10
555.413000
20
627.967000
11
555.413000
21
631.354000
0
LINE
8
0
10
555.413000
20
631.354000
11
560.493000
21
631.354000
0
LINE
8
0
10
560.493000
20
631.354000
11
560.493000
21
636.434000
0
LINE
8
0
10
560.493000
20
677.074000
11
563.880000
21
677.074000
0
LINE
8
0
10
563.880000
20
677.074000
11
563.880000
21
671.994000
0
LINE
8
0
10
563.880000
20
671.994000
11
568.960000
21
671.994000
0
LINE
8
0
10
568.960000
20
671.994000
11
568.960000
21
668.607000
0
LINE
8
0
10
568.960000
20
668.607000
11
563.880000
21
668.607000
0
LINE
8
0
10
563.880000
20
668.607000
11
563.880000
21
663.527000
0
LINE
8
0
10
563.880000
20
663.527000
11
560.493000
21
663.527000
0
LINE
8
0
10
560.493000
20
663.527000
11
560.493000
21
668.607000
0
LINE
8
0
10
560.493000
20
668.607000
11
555.413000
21
668.607000
0
LINE
8
0
10
555.413000
20
668.607000
11
555.413000
21
671.994000
0
LINE
8
0
10
555.413000
20
671.994000
11
560.493000
21
671.994000
0
LINE
8
0
10
560.493000
20
671.994000
11
560.493000
21
677.074000
0
LINE
8
0
10
560.493000
20
717.714000
11
563.880000
21
717.714000
0
LINE
8
0
10
563.880000
20
717.714000
11
563.880000
21
712.634000
0
LINE
8
0
10
563.880000
20
712.634000
11
568.960000
21
712.634000
0
LINE
8
0
10
568.960000
20
712.634000
11
568.960000
21
709.247000
0
LINE
8
0
10
568.960000
20
709.247000
11
563.880000
21
709.247000
0
LINE
8
0
10
563.880000
20
709.247000
11
563.880000
21
704.167000
0
LINE
8
0
10
563.880000
20
704.167000
11
560.493000
21
704.167000
0
LINE
8
0
10
560.493000
20
704.167000
11
560.493000
21
709.247000
0
LINE
8
0
10
560.493000
20
709.247000
11
555.413000
21
709.247000
0
LINE
8
0
10
555.413000
20
709.247000
11
555.413000
21
712.634000
0
LINE
8
0
10
555.413000
20
712.634000
11
560.493000
21
712.634000
0
LINE
8
0
10
560.493000
20
712.634000
11
560.493000
21
717.714000
0
LINE
8
0
10
560.493000
20
744.807000
11
563.880000
21
744.807000
0
LINE
8
0
10
560.493000
20
758.354000
11
563.880000
21
758.354000
0
LINE
8
0
10
563.880000
20
758.354000
11
563.880000
21
753.274000
0
LINE
8
0
10
563.880000
20
753.274000
11
568.960000
21
753.274000
0
LINE
8
0
10
568.960000
20
753.274000
11
568.960000
21
749.887000
0
LINE
8
0
10
568.960000
20
749.887000
11
563.880000
21
749.887000
0
LINE
8
0
10
563.880000
20
749.887000
11
563.880000
21
744.807000
0
LINE
8
0
10
560.493000
20
744.807000
11
560.493000
21
749.887000
0
LINE
8
0
10
560.493000
20
749.887000
11
555.413000
21
749.887000
0
LINE
8
0
10
555.413000
20
749.887000
11
555.413000
21
753.274000
0
LINE
8
0
10
555.413000
20
753.274000
11
560.493000
21
753.274000
0
LINE
8
0
10
560.493000
20
753.274000
11
560.493000
21
758.354000
0
LINE
8
0
10
560.493000
20
798.994000
11
563.880000
21
798.994000
0
LINE
8
0
10
563.880000
20
798.994000
11
563.880000
21
793.914000
0
LINE
8
0
10
563.880000
20
793.914000
11
568.960000
21
793.914000
0
LINE
8
0
10
568.960000
20
793.914000
11
568.960000
21
790.527000
0
LINE
8
0
10
568.960000
20
790.527000
11
563.880000
21
790.527000
0
LINE
8
0
10
563.880000
20
790.527000
11
563.880000
21
785.447000
0
LINE
8
0
10
563.880000
20
785.447000
11
560.493000
21
785.447000
0
LINE
8
0
10
560.493000
20
785.447000
11
560.493000
21
790.527000
0
LINE
8
0
10
560.493000
20
790.527000
11
555.413000
21
790.527000
0
LINE
8
0
10
555.413000
20
790.527000
11
555.413000
21
793.914000
0
LINE
8
0
10
555.413000
20
793.914000
11
560.493000
21
793.914000
0
LINE
8
0
10
560.493000
20
793.914000
11
560.493000
21
798.994000
0
LINE
8
0
10
560.493000
20
839.634000
11
563.880000
21
839.634000
0
LINE
8
0
10
563.880000
20
839.634000
11
563.880000
21
834.554000
0
LINE
8
0
10
563.880000
20
834.554000
11
568.960000
21
834.554000
0
LINE
8
0
10
568.960000
20
834.554000
11
568.960000
21
831.167000
0
LINE
8
0
10
568.960000
20
831.167000
11
563.880000
21
831.167000
0
LINE
8
0
10
563.880000
20
831.167000
11
563.880000
21
826.087000
0
LINE
8
0
10
563.880000
20
826.087000
11
560.493000
21
826.087000
0
LINE
8
0
10
560.493000
20
826.087000
11
560.493000
21
831.167000
0
LINE
8
0
10
560.493000
20
831.167000
11
555.413000
21
831.167000
0
LINE
8
0
10
555.413000
20
831.167000
11
555.413000
21
834.554000
0
LINE
8
0
10
555.413000
20
834.554000
11
560.493000
21
834.554000
0
LINE
8
0
10
560.493000
20
834.554000
11
560.493000
21
839.634000
0
LINE
8
0
10
560.493000
20
880.274000
11
563.880000
21
880.274000
0
LINE
8
0
10
563.880000
20
880.274000
11
563.880000
21
875.194000
0
LINE
8
0
10
563.880000
20
875.194000
11
568.960000
21
875.194000
0
LINE
8
0
10
568.960000
20
875.194000
11
568.960000
21
871.807000
0
LINE
8
0
10
568.960000
20
871.807000
11
563.880000
21
871.807000
0
LINE
8
0
10
563.880000
20
871.807000
11
563.880000
21
866.727000
0
LINE
8
0
10
563.880000
20
866.727000
11
560.493000
21
866.727000
0
LINE
8
0
10
560.493000
20
866.727000
11
560.493000
21
871.807000
0
LINE
8
0
10
560.493000
20
871.807000
11
555.413000
21
871.807000
0
LINE
8
0
10
555.413000
20
871.807000
11
555.413000
21
875.194000
0
LINE
8
0
10
555.413000
20
875.194000
11
560.493000
21
875.194000
0
LINE
8
0
10
560.493000
20
875.194000
11
560.493000
21
880.274000
0
LINE
8
0
10
560.493000
20
920.914000
11
563.880000
21
920.914000
0
LINE
8
0
10
563.880000
20
920.914000
11
563.880000
21
915.834000
0
LINE
8
0
10
563.880000
20
915.834000
11
568.960000
21
915.834000
0
LINE
8
0
10
568.960000
20
915.834000
11
568.960000
21
912.447000
0
LINE
8
0
10
568.960000
20
912.447000
11
563.880000
21
912.447000
0
LINE
8
0
10
563.880000
20
912.447000
11
563.880000
21
907.367000
0
LINE
8
0
10
563.880000
20
907.367000
11
560.493000
21
907.367000
0
LINE
8
0
10
560.493000
20
907.367000
11
560.493000
21
912.447000
0
LINE
8
0
10
560.493000
20
912.447000
11
555.413000
21
912.447000
0
LINE
8
0
10
555.413000
20
912.447000
11
555.413000
21
915.834000
0
LINE
8
0
10
555.413000
20
915.834000
11
560.493000
21
915.834000
0
LINE
8
0
10
560.493000
20
915.834000
11
560.493000
21
920.914000
0
LINE
8
0
10
560.493000
20
961.554000
11
563.880000
21
961.554000
0
LINE
8
0
10
563.880000
20
961.554000
11
563.880000
21
956.474000
0
LINE
8
0
10
563.880000
20
956.474000
11
568.960000
21
956.474000
0
LINE
8
0
10
568.960000
20
956.474000
11
568.960000
21
953.087000
0
LINE
8
0
10
568.960000
20
953.087000
11
563.880000
21
953.087000
0
LINE
8
0
10
563.880000
20
953.087000
11
563.880000
21
948.007000
0
LINE
8
0
10
563.880000
20
948.007000
11
560.493000
21
948.007000
0
LINE
8
0
10
560.493000
20
948.007000
11
560.493000
21
953.087000
0
LINE
8
0
10
560.493000
20
953.087000
11
555.413000
21
953.087000
0
LINE
8
0
10
555.413000
20
953.087000
11
555.413000
21
956.474000
0
LINE
8
0
10
555.413000
20
956.474000
11
560.493000
21
956.474000
0
LINE
8
0
10
560.493000
20
956.474000
11
560.493000
21
961.554000
0
LINE
8
0
10
560.493000
20
1002.190000
11
563.880000
21
1002.190000
0
LINE
8
0
10
563.880000
20
1002.190000
11
563.880000
21
997.114000
0
LINE
8
0
10
563.880000
20
997.114000
11
568.960000
21
997.114000
0
LINE
8
0
10
568.960000
20
997.114000
11
568.960000
21
993.727000
0
LINE
8
0
10
568.960000
20
993.727000
11
563.880000
21
993.727000
0
LINE
8
0
10
563.880000
20
993.727000
11
563.880000
21
988.647000
0
LINE
8
0
10
563.880000
20
988.647000
11
560.493000
21
988.647000
0
LINE
8
0
10
560.493000
20
988.647000
11
560.493000
21
993.727000
0
LINE
8
0
10
560.493000
20
993.727000
11
555.413000
21
993.727000
0
LINE
8
0
10
555.413000
20
993.727000
11
555.413000
21
997.114000
0
LINE
8
0
10
555.413000
20
997.114000
11
560.493000
21
997.114000
0
LINE
8
0
10
560.493000
20
997.114000
11
560.493000
21
1002.190000
0
LINE
8
0
10
555.413000
20
1037.750000
11
568.960000
21
1037.750000
0
LINE
8
0
10
568.960000
20
1037.750000
11
568.960000
21
1034.370000
0
LINE
8
0
10
568.960000
20
1034.370000
11
563.880000
21
1034.370000
0
LINE
8
0
10
563.880000
20
1034.370000
11
563.880000
21
1029.290000
0
LINE
8
0
10
563.880000
20
1029.290000
11
560.493000
21
1029.290000
0
LINE
8
0
10
560.493000
20
1029.290000
11
560.493000
21
1034.370000
0
LINE
8
0
10
560.493000
20
1034.370000
11
555.413000
21
1034.370000
0
LINE
8
0
10
555.413000
20
1034.370000
11
555.413000
21
1037.750000
0
LINE
8
0
10
519.853000
20
514.514000
11
523.240000
21
514.514000
0
LINE
8
0
10
523.240000
20
514.514000
11
523.240000
21
509.434000
0
LINE
8
0
10
523.240000
20
509.434000
11
528.320000
21
509.434000
0
LINE
8
0
10
528.320000
20
509.434000
11
528.320000
21
506.047000
0
LINE
8
0
10
528.320000
20
506.047000
11
523.240000
21
506.047000
0
LINE
8
0
10
523.240000
20
506.047000
11
523.240000
21
500.967000
0
LINE
8
0
10
523.240000
20
500.967000
11
519.853000
21
500.967000
0
LINE
8
0
10
519.853000
20
500.967000
11
519.853000
21
506.047000
0
LINE
8
0
10
519.853000
20
506.047000
11
514.773000
21
506.047000
0
LINE
8
0
10
514.773000
20
506.047000
11
514.773000
21
509.434000
0
LINE
8
0
10
514.773000
20
509.434000
11
519.853000
21
509.434000
0
LINE
8
0
10
519.853000
20
509.434000
11
519.853000
21
514.514000
0
LINE
8
0
10
519.853000
20
555.154000
11
523.240000
21
555.154000
0
LINE
8
0
10
523.240000
20
555.154000
11
523.240000
21
550.074000
0
LINE
8
0
10
523.240000
20
550.074000
11
528.320000
21
550.074000
0
LINE
8
0
10
528.320000
20
550.074000
11
528.320000
21
546.687000
0
LINE
8
0
10
528.320000
20
546.687000
11
523.240000
21
546.687000
0
LINE
8
0
10
523.240000
20
546.687000
11
523.240000
21
541.607000
0
LINE
8
0
10
523.240000
20
541.607000
11
519.853000
21
541.607000
0
LINE
8
0
10
519.853000
20
541.607000
11
519.853000
21
546.687000
0
LINE
8
0
10
519.853000
20
546.687000
11
514.773000
21
546.687000
0
LINE
8
0
10
514.773000
20
546.687000
11
514.773000
21
550.074000
0
LINE
8
0
10
514.773000
20
550.074000
11
519.853000
21
550.074000
0
LINE
8
0
10
519.853000
20
550.074000
11
519.853000
21
555.154000
0
LINE
8
0
10
519.853000
20
595.794000
11
523.240000
21
595.794000
0
LINE
8
0
10
523.240000
20
595.794000
11
523.240000
21
590.714000
0
LINE
8
0
10
523.240000
20
590.714000
11
528.320000
21
590.714000
0
LINE
8
0
10
528.320000
20
590.714000
11
528.320000
21
587.327000
0
LINE
8
0
10
528.320000
20
587.327000
11
523.240000
21
587.327000
0
LINE
8
0
10
523.240000
20
587.327000
11
523.240000
21
582.247000
0
LINE
8
0
10
523.240000
20
582.247000
11
519.853000
21
582.247000
0
LINE
8
0
10
519.853000
20
582.247000
11
519.853000
21
587.327000
0
LINE
8
0
10
519.853000
20
587.327000
11
514.773000
21
587.327000
0
LINE
8
0
10
514.773000
20
587.327000
11
514.773000
21
590.714000
0
LINE
8
0
10
514.773000
20
590.714000
11
519.853000
21
590.714000
0
LINE
8
0
10
519.853000
20
590.714000
11
519.853000
21
595.794000
0
LINE
8
0
10
519.853000
20
636.434000
11
523.240000
21
636.434000
0
LINE
8
0
10
523.240000
20
636.434000
11
523.240000
21
631.354000
0
LINE
8
0
10
523.240000
20
631.354000
11
528.320000
21
631.354000
0
LINE
8
0
10
528.320000
20
631.354000
11
528.320000
21
627.967000
0
LINE
8
0
10
528.320000
20
627.967000
11
523.240000
21
627.967000
0
LINE
8
0
10
523.240000
20
627.967000
11
523.240000
21
622.887000
0
LINE
8
0
10
523.240000
20
622.887000
11
519.853000
21
622.887000
0
LINE
8
0
10
519.853000
20
622.887000
11
519.853000
21
627.967000
0
LINE
8
0
10
519.853000
20
627.967000
11
514.773000
21
627.967000
0
LINE
8
0
10
514.773000
20
627.967000
11
514.773000
21
631.354000
0
LINE
8
0
10
514.773000
20
631.354000
11
519.853000
21
631.354000
0
LINE
8
0
10
519.853000
20
631.354000
11
519.853000
21
636.434000
0
LINE
8
0
10
519.853000
20
677.074000
11
523.240000
21
677.074000
0
LINE
8
0
10
523.240000
20
677.074000
11
523.240000
21
671.994000
0
LINE
8
0
10
523.240000
20
671.994000
11
528.320000
21
671.994000
0
LINE
8
0
10
528.320000
20
671.994000
11
528.320000
21
668.607000
0
LINE
8
0
10
528.320000
20
668.607000
11
523.240000
21
668.607000
0
LINE
8
0
10
523.240000
20
668.607000
11
523.240000
21
663.527000
0
LINE
8
0
10
523.240000
20
663.527000
11
519.853000
21
663.527000
0
LINE
8
0
10
519.853000
20
663.527000
11
519.853000
21
668.607000
0
LINE
8
0
10
519.853000
20
668.607000
11
514.773000
21
668.607000
0
LINE
8
0
10
514.773000
20
668.607000
11
514.773000
21
671.994000
0
LINE
8
0
10
514.773000
20
671.994000
11
519.853000
21
671.994000
0
LINE
8
0
10
519.853000
20
671.994000
11
519.853000
21
677.074000
0
LINE
8
0
10
519.853000
20
717.714000
11
523.240000
21
717.714000
0
LINE
8
0
10
523.240000
20
717.714000
11
523.240000
21
712.634000
0
LINE
8
0
10
523.240000
20
712.634000
11
528.320000
21
712.634000
0
LINE
8
0
10
528.320000
20
712.634000
11
528.320000
21
709.247000
0
LINE
8
0
10
528.320000
20
709.247000
11
523.240000
21
709.247000
0
LINE
8
0
10
523.240000
20
709.247000
11
523.240000
21
704.167000
0
LINE
8
0
10
523.240000
20
704.167000
11
519.853000
21
704.167000
0
LINE
8
0
10
519.853000
20
704.167000
11
519.853000
21
709.247000
0
LINE
8
0
10
519.853000
20
709.247000
11
514.773000
21
709.247000
0
LINE
8
0
10
514.773000
20
709.247000
11
514.773000
21
712.634000
0
LINE
8
0
10
514.773000
20
712.634000
11
519.853000
21
712.634000
0
LINE
8
0
10
519.853000
20
712.634000
11
519.853000
21
717.714000
0
LINE
8
0
10
519.853000
20
744.807000
11
523.240000
21
744.807000
0
LINE
8
0
10
519.853000
20
758.354000
11
523.240000
21
758.354000
0
LINE
8
0
10
523.240000
20
758.354000
11
523.240000
21
753.274000
0
LINE
8
0
10
523.240000
20
753.274000
11
528.320000
21
753.274000
0
LINE
8
0
10
528.320000
20
753.274000
11
528.320000
21
749.887000
0
LINE
8
0
10
528.320000
20
749.887000
11
523.240000
21
749.887000
0
LINE
8
0
10
523.240000
20
749.887000
11
523.240000
21
744.807000
0
LINE
8
0
10
519.853000
20
744.807000
11
519.853000
21
749.887000
0
LINE
8
0
10
519.853000
20
749.887000
11
514.773000
21
749.887000
0
LINE
8
0
10
514.773000
20
749.887000
11
514.773000
21
753.274000
0
LINE
8
0
10
514.773000
20
753.274000
11
519.853000
21
753.274000
0
LINE
8
0
10
519.853000
20
753.274000
11
519.853000
21
758.354000
0
LINE
8
0
10
519.853000
20
798.994000
11
523.240000
21
798.994000
0
LINE
8
0
10
523.240000
20
798.994000
11
523.240000
21
793.914000
0
LINE
8
0
10
523.240000
20
793.914000
11
528.320000
21
793.914000
0
LINE
8
0
10
528.320000
20
793.914000
11
528.320000
21
790.527000
0
LINE
8
0
10
528.320000
20
790.527000
11
523.240000
21
790.527000
0
LINE
8
0
10
523.240000
20
790.527000
11
523.240000
21
785.447000
0
LINE
8
0
10
523.240000
20
785.447000
11
519.853000
21
785.447000
0
LINE
8
0
10
519.853000
20
785.447000
11
519.853000
21
790.527000
0
LINE
8
0
10
519.853000
20
790.527000
11
514.773000
21
790.527000
0
LINE
8
0
10
514.773000
20
790.527000
11
514.773000
21
793.914000
0
LINE
8
0
10
514.773000
20
793.914000
11
519.853000
21
793.914000
0
LINE
8
0
10
519.853000
20
793.914000
11
519.853000
21
798.994000
0
LINE
8
0
10
519.853000
20
839.634000
11
523.240000
21
839.634000
0
LINE
8
0
10
523.240000
20
839.634000
11
523.240000
21
834.554000
0
LINE
8
0
10
523.240000
20
834.554000
11
528.320000
21
834.554000
0
LINE
8
0
10
528.320000
20
834.554000
11
528.320000
21
831.167000
0
LINE
8
0
10
528.320000
20
831.167000
11
523.240000
21
831.167000
0
LINE
8
0
10
523.240000
20
831.167000
11
523.240000
21
826.087000
0
LINE
8
0
10
523.240000
20
826.087000
11
519.853000
21
826.087000
0
LINE
8
0
10
519.853000
20
826.087000
11
519.853000
21
831.167000
0
LINE
8
0
10
519.853000
20
831.167000
11
514.773000
21
831.167000
0
LINE
8
0
10
514.773000
20
831.167000
11
514.773000
21
834.554000
0
LINE
8
0
10
514.773000
20
834.554000
11
519.853000
21
834.554000
0
LINE
8
0
10
519.853000
20
834.554000
11
519.853000
21
839.634000
0
LINE
8
0
10
519.853000
20
880.274000
11
523.240000
21
880.274000
0
LINE
8
0
10
523.240000
20
880.274000
11
523.240000
21
875.194000
0
LINE
8
0
10
523.240000
20
875.194000
11
528.320000
21
875.194000
0
LINE
8
0
10
528.320000
20
875.194000
11
528.320000
21
871.807000
0
LINE
8
0
10
528.320000
20
871.807000
11
523.240000
21
871.807000
0
LINE
8
0
10
523.240000
20
871.807000
11
523.240000
21
866.727000
0
LINE
8
0
10
523.240000
20
866.727000
11
519.853000
21
866.727000
0
LINE
8
0
10
519.853000
20
866.727000
11
519.853000
21
871.807000
0
LINE
8
0
10
519.853000
20
871.807000
11
514.773000
21
871.807000
0
LINE
8
0
10
514.773000
20
871.807000
11
514.773000
21
875.194000
0
LINE
8
0
10
514.773000
20
875.194000
11
519.853000
21
875.194000
0
LINE
8
0
10
519.853000
20
875.194000
11
519.853000
21
880.274000
0
LINE
8
0
10
519.853000
20
920.914000
11
523.240000
21
920.914000
0
LINE
8
0
10
523.240000
20
920.914000
11
523.240000
21
915.834000
0
LINE
8
0
10
523.240000
20
915.834000
11
528.320000
21
915.834000
0
LINE
8
0
10
528.320000
20
915.834000
11
528.320000
21
912.447000
0
LINE
8
0
10
528.320000
20
912.447000
11
523.240000
21
912.447000
0
LINE
8
0
10
523.240000
20
912.447000
11
523.240000
21
907.367000
0
LINE
8
0
10
523.240000
20
907.367000
11
519.853000
21
907.367000
0
LINE
8
0
10
519.853000
20
907.367000
11
519.853000
21
912.447000
0
LINE
8
0
10
519.853000
20
912.447000
11
514.773000
21
912.447000
0
LINE
8
0
10
514.773000
20
912.447000
11
514.773000
21
915.834000
0
LINE
8
0
10
514.773000
20
915.834000
11
519.853000
21
915.834000
0
LINE
8
0
10
519.853000
20
915.834000
11
519.853000
21
920.914000
0
LINE
8
0
10
519.853000
20
961.554000
11
523.240000
21
961.554000
0
LINE
8
0
10
523.240000
20
961.554000
11
523.240000
21
956.474000
0
LINE
8
0
10
523.240000
20
956.474000
11
528.320000
21
956.474000
0
LINE
8
0
10
528.320000
20
956.474000
11
528.320000
21
953.087000
0
LINE
8
0
10
528.320000
20
953.087000
11
523.240000
21
953.087000
0
LINE
8
0
10
523.240000
20
953.087000
11
523.240000
21
948.007000
0
LINE
8
0
10
523.240000
20
948.007000
11
519.853000
21
948.007000
0
LINE
8
0
10
519.853000
20
948.007000
11
519.853000
21
953.087000
0
LINE
8
0
10
519.853000
20
953.087000
11
514.773000
21
953.087000
0
LINE
8
0
10
514.773000
20
953.087000
11
514.773000
21
956.474000
0
LINE
8
0
10
514.773000
20
956.474000
11
519.853000
21
956.474000
0
LINE
8
0
10
519.853000
20
956.474000
11
519.853000
21
961.554000
0
LINE
8
0
10
519.853000
20
1002.190000
11
523.240000
21
1002.190000
0
LINE
8
0
10
523.240000
20
1002.190000
11
523.240000
21
997.114000
0
LINE
8
0
10
523.240000
20
997.114000
11
528.320000
21
997.114000
0
LINE
8
0
10
528.320000
20
997.114000
11
528.320000
21
993.727000
0
LINE
8
0
10
528.320000
20
993.727000
11
523.240000
21
993.727000
0
LINE
8
0
10
523.240000
20
993.727000
11
523.240000
21
988.647000
0
LINE
8
0
10
523.240000
20
988.647000
11
519.853000
21
988.647000
0
LINE
8
0
10
519.853000
20
988.647000
11
519.853000
21
993.727000
0
LINE
8
0
10
519.853000
20
993.727000
11
514.773000
21
993.727000
0
LINE
8
0
10
514.773000
20
993.727000
11
514.773000
21
997.114000
0
LINE
8
0
10
514.773000
20
997.114000
11
519.853000
21
997.114000
0
LINE
8
0
10
519.853000
20
997.114000
11
519.853000
21
1002.190000
0
LINE
8
0
10
514.773000
20
1037.750000
11
528.320000
21
1037.750000
0
LINE
8
0
10
528.320000
20
1037.750000
11
528.320000
21
1034.370000
0
LINE
8
0
10
528.320000
20
1034.370000
11
523.240000
21
1034.370000
0
LINE
8
0
10
523.240000
20
1034.370000
11
523.240000
21
1029.290000
0
LINE
8
0
10
523.240000
20
1029.290000
11
519.853000
21
1029.290000
0
LINE
8
0
10
519.853000
20
1029.290000
11
519.853000
21
1034.370000
0
LINE
8
0
10
519.853000
20
1034.370000
11
514.773000
21
1034.370000
0
LINE
8
0
10
514.773000
20
1034.370000
11
514.773000
21
1037.750000
0
LINE
8
0
10
604.520000
20
988.647000
11
604.520000
21
1002.190000
0
LINE
8
0
10
604.559000
20
948.042000
11
604.559000
21
961.588000
0
LINE
8
0
10
604.559000
20
961.588000
11
604.519489
21
961.553569
0
LINE
8
0
10
604.503000
20
907.397000
11
604.503000
21
920.944000
0
LINE
8
0
10
604.503000
20
920.944000
11
604.519933
21
920.914084
0
LINE
8
0
10
604.520000
20
866.727000
11
604.520000
21
880.274000
0
LINE
8
0
10
604.520000
20
826.087000
11
604.520000
21
839.634000
0
LINE
8
0
10
604.520000
20
744.807000
11
604.520000
21
758.354000
0
LINE
8
0
10
604.520000
20
785.447000
11
604.520000
21
798.994000
0
LINE
8
0
10
604.520000
20
704.167000
11
604.520000
21
717.714000
0
LINE
8
0
10
604.520000
20
663.527000
11
604.520000
21
677.074000
0
LINE
8
0
10
604.520000
20
622.887000
11
604.520000
21
636.434000
0
LINE
8
0
10
604.520000
20
582.247000
11
604.520000
21
595.794000
0
LINE
8
0
10
604.520000
20
541.607000
11
604.520000
21
555.154000
0
LINE
8
0
10
604.520000
20
500.967000
11
604.520000
21
514.514000
0
LINE
8
0
10
604.520000
20
988.647000
11
601.133000
21
988.647000
0
LINE
8
0
10
601.133000
20
988.647000
11
601.133000
21
993.727000
0
LINE
8
0
10
601.133000
20
993.727000
11
596.053000
21
993.727000
0
LINE
8
0
10
596.053000
20
993.727000
11
596.053000
21
997.114000
0
LINE
8
0
10
596.053000
20
997.114000
11
601.133000
21
997.114000
0
LINE
8
0
10
601.133000
20
997.114000
11
601.133000
21
1002.190000
0
LINE
8
0
10
601.133000
20
1002.190000
11
604.520000
21
1002.190000
0
LINE
8
0
10
604.559000
20
948.042000
11
601.172000
21
948.042000
0
LINE
8
0
10
601.172000
20
948.042000
11
601.172000
21
953.122000
0
LINE
8
0
10
601.172000
20
953.122000
11
596.092000
21
953.122000
0
LINE
8
0
10
596.092000
20
953.122000
11
596.092000
21
956.508000
0
LINE
8
0
10
596.092000
20
956.508000
11
601.172000
21
956.508000
0
LINE
8
0
10
601.172000
20
956.508000
11
601.172000
21
961.588000
0
LINE
8
0
10
601.172000
20
961.588000
11
604.559000
21
961.588000
0
LINE
8
0
10
604.503000
20
907.397000
11
601.116000
21
907.397000
0
LINE
8
0
10
601.116000
20
907.397000
11
601.116000
21
912.477000
0
LINE
8
0
10
601.116000
20
912.477000
11
596.036000
21
912.477000
0
LINE
8
0
10
596.036000
20
912.477000
11
596.036000
21
915.864000
0
LINE
8
0
10
596.036000
20
915.864000
11
601.116000
21
915.864000
0
LINE
8
0
10
601.116000
20
915.864000
11
601.116000
21
920.944000
0
LINE
8
0
10
601.116000
20
920.944000
11
604.503000
21
920.944000
0
LINE
8
0
10
604.520000
20
866.727000
11
601.133000
21
866.727000
0
LINE
8
0
10
601.133000
20
866.727000
11
601.133000
21
871.807000
0
LINE
8
0
10
601.133000
20
871.807000
11
596.053000
21
871.807000
0
LINE
8
0
10
596.053000
20
871.807000
11
596.053000
21
875.194000
0
LINE
8
0
10
596.053000
20
875.194000
11
601.133000
21
875.194000
0
LINE
8
0
10
601.133000
20
875.194000
11
601.133000
21
880.274000
0
LINE
8
0
10
601.133000
20
880.274000
11
604.520000
21
880.274000
0
LINE
8
0
10
604.520000
20
826.087000
11
601.133000
21
826.087000
0
LINE
8
0
10
601.133000
20
826.087000
11
601.133000
21
831.167000
0
LINE
8
0
10
601.133000
20
831.167000
11
596.053000
21
831.167000
0
LINE
8
0
10
596.053000
20
831.167000
11
596.053000
21
834.554000
0
LINE
8
0
10
596.053000
20
834.554000
11
601.133000
21
834.554000
0
LINE
8
0
10
601.133000
20
834.554000
11
601.133000
21
839.634000
0
LINE
8
0
10
601.133000
20
839.634000
11
604.520000
21
839.634000
0
LINE
8
0
10
604.520000
20
785.447000
11
601.133000
21
785.447000
0
LINE
8
0
10
601.133000
20
785.447000
11
601.133000
21
790.527000
0
LINE
8
0
10
601.133000
20
790.527000
11
596.053000
21
790.527000
0
LINE
8
0
10
596.053000
20
790.527000
11
596.053000
21
793.914000
0
LINE
8
0
10
596.053000
20
793.914000
11
601.133000
21
793.914000
0
LINE
8
0
10
601.133000
20
793.914000
11
601.133000
21
798.994000
0
LINE
8
0
10
601.133000
20
798.994000
11
604.520000
21
798.994000
0
LINE
8
0
10
604.520000
20
758.354000
11
601.133000
21
758.354000
0
LINE
8
0
10
604.520000
20
744.807000
11
601.133000
21
744.807000
0
LINE
8
0
10
601.133000
20
744.807000
11
601.133000
21
749.887000
0
LINE
8
0
10
601.133000
20
749.887000
11
596.053000
21
749.887000
0
LINE
8
0
10
596.053000
20
749.887000
11
596.053000
21
753.274000
0
LINE
8
0
10
596.053000
20
753.274000
11
601.133000
21
753.274000
0
LINE
8
0
10
601.133000
20
753.274000
11
601.133000
21
758.354000
0
LINE
8
0
10
604.520000
20
704.167000
11
601.133000
21
704.167000
0
LINE
8
0
10
601.133000
20
704.167000
11
601.133000
21
709.247000
0
LINE
8
0
10
601.133000
20
709.247000
11
596.053000
21
709.247000
0
LINE
8
0
10
596.053000
20
709.247000
11
596.053000
21
712.634000
0
LINE
8
0
10
596.053000
20
712.634000
11
601.133000
21
712.634000
0
LINE
8
0
10
601.133000
20
712.634000
11
601.133000
21
717.714000
0
LINE
8
0
10
601.133000
20
717.714000
11
604.520000
21
717.714000
0
LINE
8
0
10
604.520000
20
663.527000
11
601.133000
21
663.527000
0
LINE
8
0
10
601.133000
20
663.527000
11
601.133000
21
668.607000
0
LINE
8
0
10
601.133000
20
668.607000
11
596.053000
21
668.607000
0
LINE
8
0
10
596.053000
20
668.607000
11
596.053000
21
671.994000
0
LINE
8
0
10
596.053000
20
671.994000
11
601.133000
21
671.994000
0
LINE
8
0
10
601.133000
20
671.994000
11
601.133000
21
677.074000
0
LINE
8
0
10
601.133000
20
677.074000
11
604.520000
21
677.074000
0
LINE
8
0
10
604.520000
20
622.887000
11
601.133000
21
622.887000
0
LINE
8
0
10
601.133000
20
622.887000
11
601.133000
21
627.967000
0
LINE
8
0
10
601.133000
20
627.967000
11
596.053000
21
627.967000
0
LINE
8
0
10
596.053000
20
627.967000
11
596.053000
21
631.354000
0
LINE
8
0
10
596.053000
20
631.354000
11
601.133000
21
631.354000
0
LINE
8
0
10
601.133000
20
631.354000
11
601.133000
21
636.434000
0
LINE
8
0
10
601.133000
20
636.434000
11
604.520000
21
636.434000
0
LINE
8
0
10
604.520000
20
582.247000
11
601.133000
21
582.247000
0
LINE
8
0
10
601.133000
20
582.247000
11
601.133000
21
587.327000
0
LINE
8
0
10
601.133000
20
587.327000
11
596.053000
21
587.327000
0
LINE
8
0
10
596.053000
20
587.327000
11
596.053000
21
590.714000
0
LINE
8
0
10
596.053000
20
590.714000
11
601.133000
21
590.714000
0
LINE
8
0
10
601.133000
20
590.714000
11
601.133000
21
595.794000
0
LINE
8
0
10
601.133000
20
595.794000
11
604.520000
21
595.794000
0
LINE
8
0
10
604.520000
20
541.607000
11
601.133000
21
541.607000
0
LINE
8
0
10
601.133000
20
541.607000
11
601.133000
21
546.687000
0
LINE
8
0
10
601.133000
20
546.687000
11
596.053000
21
546.687000
0
LINE
8
0
10
596.053000
20
546.687000
11
596.053000
21
550.074000
0
LINE
8
0
10
596.053000
20
550.074000
11
601.133000
21
550.074000
0
LINE
8
0
10
601.133000
20
550.074000
11
601.133000
21
555.154000
0
LINE
8
0
10
601.133000
20
555.154000
11
604.520000
21
555.154000
0
LINE
8
0
10
604.520000
20
500.967000
11
601.133000
21
500.967000
0
LINE
8
0
10
601.133000
20
500.967000
11
601.133000
21
506.047000
0
LINE
8
0
10
601.133000
20
506.047000
11
596.053000
21
506.047000
0
LINE
8
0
10
596.053000
20
506.047000
11
596.053000
21
509.434000
0
LINE
8
0
10
596.053000
20
509.434000
11
601.133000
21
509.434000
0
LINE
8
0
10
601.133000
20
509.434000
11
601.133000
21
514.514000
0
LINE
8
0
10
601.133000
20
514.514000
11
604.520000
21
514.514000
0
LINE
8
0
10
604.520000
20
1037.750000
11
604.520000
21
1029.290000
0
LINE
8
0
10
325.120000
20
419.688000
11
311.573000
21
419.688000
0
LINE
8
0
10
311.573000
20
419.688000
11
311.573000
21
406.141000
0
LINE
8
0
10
311.573000
20
406.141000
11
284.480000
21
406.141000
0
LINE
8
0
10
284.480000
20
406.141000
11
284.480000
21
419.688000
0
LINE
8
0
10
596.053000
20
1037.750000
11
604.520000
21
1037.750000
0
LINE
8
0
10
604.520000
20
1029.290000
11
601.133000
21
1029.290000
0
LINE
8
0
10
601.133000
20
1029.290000
11
601.133000
21
1034.370000
0
LINE
8
0
10
601.133000
20
1034.370000
11
596.053000
21
1034.370000
0
LINE
8
0
10
596.053000
20
1034.370000
11
596.053000
21
1037.750000
0
LINE
8
0
10
284.480000
20
419.688000
11
270.933000
21
419.688000
0
LINE
8
0
10
270.933000
20
419.688000
11
270.933000
21
406.141000
0
LINE
8
0
10
270.933000
20
406.141000
11
243.840000
21
406.141000
0
LINE
8
0
10
243.840000
20
406.141000
11
243.840000
21
419.688000
0
LINE
8
0
10
243.840000
20
419.688000
11
237.066000
21
419.688000
0
LINE
8
0
10
237.066000
20
419.688000
11
237.066000
21
351.954000
0
LINE
8
0
10
487.680000
20
406.141000
11
514.773000
21
406.141000
0
LINE
8
0
10
514.773000
20
406.141000
11
514.773000
21
419.688000
0
LINE
8
0
10
514.773000
20
419.688000
11
521.546000
21
419.688000
0
LINE
8
0
10
521.546000
20
419.688000
11
521.546000
21
351.954000
0
LINE
8
0
10
32.173300
20
758.354000
11
35.560000
21
758.354000
0
LINE
8
0
10
35.560000
20
758.354000
11
35.560000
21
753.274000
0
LINE
8
0
10
35.560000
20
753.274000
11
40.640000
21
753.274000
0
LINE
8
0
10
40.640000
20
753.274000
11
40.640000
21
749.887000
0
LINE
8
0
10
40.640000
20
749.887000
11
35.560000
21
749.887000
0
LINE
8
0
10
35.560000
20
749.887000
11
35.560000
21
744.807000
0
LINE
8
0
10
32.173300
20
744.807000
11
32.173300
21
749.887000
0
LINE
8
0
10
32.173300
20
749.887000
11
27.093300
21
749.887000
0
LINE
8
0
10
27.093300
20
749.887000
11
27.093300
21
753.274000
0
LINE
8
0
10
27.093300
20
753.274000
11
32.173300
21
753.274000
0
LINE
8
0
10
32.173300
20
753.274000
11
32.173300
21
758.354000
0
LINE
8
0
10
32.173300
20
798.994000
11
35.560000
21
798.994000
0
LINE
8
0
10
35.560000
20
798.994000
11
35.560000
21
793.914000
0
LINE
8
0
10
35.560000
20
793.914000
11
40.640000
21
793.914000
0
LINE
8
0
10
40.640000
20
793.914000
11
40.640000
21
790.527000
0
LINE
8
0
10
40.640000
20
790.527000
11
35.560000
21
790.527000
0
LINE
8
0
10
35.560000
20
790.527000
11
35.560000
21
785.447000
0
LINE
8
0
10
35.560000
20
785.447000
11
32.173300
21
785.447000
0
LINE
8
0
10
32.173300
20
785.447000
11
32.173300
21
790.527000
0
LINE
8
0
10
32.173300
20
790.527000
11
27.093300
21
790.527000
0
LINE
8
0
10
27.093300
20
790.527000
11
27.093300
21
793.914000
0
LINE
8
0
10
27.093300
20
793.914000
11
32.173300
21
793.914000
0
LINE
8
0
10
32.173300
20
793.914000
11
32.173300
21
798.994000
0
LINE
8
0
10
32.173300
20
839.634000
11
35.560000
21
839.634000
0
LINE
8
0
10
35.560000
20
839.634000
11
35.560000
21
834.554000
0
LINE
8
0
10
35.560000
20
834.554000
11
40.640000
21
834.554000
0
LINE
8
0
10
40.640000
20
834.554000
11
40.640000
21
831.167000
0
LINE
8
0
10
40.640000
20
831.167000
11
35.560000
21
831.167000
0
LINE
8
0
10
35.560000
20
831.167000
11
35.560000
21
826.087000
0
LINE
8
0
10
35.560000
20
826.087000
11
32.173300
21
826.087000
0
LINE
8
0
10
32.173300
20
826.087000
11
32.173300
21
831.167000
0
LINE
8
0
10
32.173300
20
831.167000
11
27.093300
21
831.167000
0
LINE
8
0
10
27.093300
20
831.167000
11
27.093300
21
834.554000
0
LINE
8
0
10
27.093300
20
834.554000
11
32.173300
21
834.554000
0
LINE
8
0
10
32.173300
20
834.554000
11
32.173300
21
839.634000
0
LINE
8
0
10
32.173300
20
880.274000
11
35.560000
21
880.274000
0
LINE
8
0
10
35.560000
20
880.274000
11
35.560000
21
875.194000
0
LINE
8
0
10
35.560000
20
875.194000
11
40.640000
21
875.194000
0
LINE
8
0
10
40.640000
20
875.194000
11
40.640000
21
871.807000
0
LINE
8
0
10
40.640000
20
871.807000
11
35.560000
21
871.807000
0
LINE
8
0
10
35.560000
20
871.807000
11
35.560000
21
866.727000
0
LINE
8
0
10
35.560000
20
866.727000
11
32.173300
21
866.727000
0
LINE
8
0
10
32.173300
20
866.727000
11
32.173300
21
871.807000
0
LINE
8
0
10
32.173300
20
871.807000
11
27.093300
21
871.807000
0
LINE
8
0
10
27.093300
20
871.807000
11
27.093300
21
875.194000
0
LINE
8
0
10
27.093300
20
875.194000
11
32.173300
21
875.194000
0
LINE
8
0
10
32.173300
20
875.194000
11
32.173300
21
880.274000
0
LINE
8
0
10
-8.466660
20
758.354000
11
-5.080000
21
758.354000
0
LINE
8
0
10
-5.080000
20
758.354000
11
-5.080000
21
753.274000
0
LINE
8
0
10
-5.080000
20
753.274000
11
0.000000
21
753.274000
0
LINE
8
0
10
0.000000
20
753.274000
11
0.000000
21
749.887000
0
LINE
8
0
10
0.000000
20
749.887000
11
-5.080000
21
749.887000
0
LINE
8
0
10
-5.080000
20
749.887000
11
-5.080000
21
744.807000
0
LINE
8
0
10
-8.466660
20
798.994000
11
-5.080000
21
798.994000
0
LINE
8
0
10
-5.080000
20
798.994000
11
-5.080000
21
793.914000
0
LINE
8
0
10
-5.080000
20
793.914000
11
0.000000
21
793.914000
0
LINE
8
0
10
0.000000
20
793.914000
11
0.000000
21
790.527000
0
LINE
8
0
10
0.000000
20
790.527000
11
-5.080000
21
790.527000
0
LINE
8
0
10
-5.080000
20
790.527000
11
-5.080000
21
785.447000
0
LINE
8
0
10
-5.080000
20
785.447000
11
-8.466660
21
785.447000
0
LINE
8
0
10
-8.466660
20
839.634000
11
-5.080000
21
839.634000
0
LINE
8
0
10
-5.080000
20
839.634000
11
-5.080000
21
834.554000
0
LINE
8
0
10
-5.080000
20
834.554000
11
0.000000
21
834.554000
0
LINE
8
0
10
0.000000
20
834.554000
11
0.000000
21
831.167000
0
LINE
8
0
10
0.000000
20
831.167000
11
-5.080000
21
831.167000
0
LINE
8
0
10
-5.080000
20
831.167000
11
-5.080000
21
826.087000
0
LINE
8
0
10
-5.080000
20
826.087000
11
-8.466660
21
826.087000
0
LINE
8
0
10
-8.466660
20
880.274000
11
-5.080000
21
880.274000
0
LINE
8
0
10
-5.080000
20
880.274000
11
-5.080000
21
875.194000
0
LINE
8
0
10
-5.080000
20
875.194000
11
0.000000
21
875.194000
0
LINE
8
0
10
0.000000
20
875.194000
11
0.000000
21
871.807000
0
LINE
8
0
10
0.000000
20
871.807000
11
-5.080000
21
871.807000
0
LINE
8
0
10
-5.080000
20
871.807000
11
-5.080000
21
866.727000
0
LINE
8
0
10
-5.080000
20
866.727000
11
-8.466660
21
866.727000
0
LINE
8
0
10
-8.466660
20
920.914000
11
-5.080000
21
920.914000
0
LINE
8
0
10
-5.080000
20
920.914000
11
-5.080000
21
915.834000
0
LINE
8
0
10
-5.080000
20
915.834000
11
0.000000
21
915.834000
0
LINE
8
0
10
0.000000
20
915.834000
11
0.000000
21
912.447000
0
LINE
8
0
10
0.000000
20
912.447000
11
-5.080000
21
912.447000
0
LINE
8
0
10
-5.080000
20
912.447000
11
-5.080000
21
907.367000
0
LINE
8
0
10
-5.080000
20
907.367000
11
-8.466660
21
907.367000
0
LINE
8
0
10
-8.466660
20
961.554000
11
-5.080000
21
961.554000
0
LINE
8
0
10
-5.080000
20
961.554000
11
-5.080000
21
956.474000
0
LINE
8
0
10
-5.080000
20
956.474000
11
0.000000
21
956.474000
0
LINE
8
0
10
0.000000
20
956.474000
11
0.000000
21
953.087000
0
LINE
8
0
10
0.000000
20
953.087000
11
-5.080000
21
953.087000
0
LINE
8
0
10
-5.080000
20
953.087000
11
-5.080000
21
948.007000
0
LINE
8
0
10
-5.080000
20
948.007000
11
-8.466660
21
948.007000
0
LINE
8
0
10
-8.466660
20
1002.190000
11
-5.080000
21
1002.190000
0
LINE
8
0
10
-5.080000
20
1002.190000
11
-5.080000
21
997.114000
0
LINE
8
0
10
-5.080000
20
997.114000
11
0.000000
21
997.114000
0
LINE
8
0
10
0.000000
20
997.114000
11
0.000000
21
993.727000
0
LINE
8
0
10
0.000000
20
993.727000
11
-5.080000
21
993.727000
0
LINE
8
0
10
-5.080000
20
993.727000
11
-5.080000
21
988.647000
0
LINE
8
0
10
-5.080000
20
988.647000
11
-8.466660
21
988.647000
0
LINE
8
0
10
-8.466660
20
1037.750000
11
0.000000
21
1037.750000
0
LINE
8
0
10
0.000000
20
1037.750000
11
0.000000
21
1034.370000
0
LINE
8
0
10
0.000000
20
1034.370000
11
-5.080000
21
1034.370000
0
LINE
8
0
10
-5.080000
20
1034.370000
11
-5.080000
21
1029.290000
0
LINE
8
0
10
-5.080000
20
1029.290000
11
-8.466660
21
1029.290000
0
LINE
8
0
10
-8.466660
20
1029.290000
11
-8.466660
21
1037.750000
0
LINE
8
0
10
32.173300
20
920.914000
11
35.560000
21
920.914000
0
LINE
8
0
10
35.560000
20
920.914000
11
35.560000
21
915.834000
0
LINE
8
0
10
35.560000
20
915.834000
11
40.640000
21
915.834000
0
LINE
8
0
10
40.640000
20
915.834000
11
40.640000
21
912.447000
0
LINE
8
0
10
40.640000
20
912.447000
11
35.560000
21
912.447000
0
LINE
8
0
10
35.560000
20
912.447000
11
35.560000
21
907.367000
0
LINE
8
0
10
35.560000
20
907.367000
11
32.173300
21
907.367000
0
LINE
8
0
10
32.173300
20
907.367000
11
32.173300
21
912.447000
0
LINE
8
0
10
32.173300
20
912.447000
11
27.093300
21
912.447000
0
LINE
8
0
10
27.093300
20
912.447000
11
27.093300
21
915.834000
0
LINE
8
0
10
27.093300
20
915.834000
11
32.173300
21
915.834000
0
LINE
8
0
10
32.173300
20
915.834000
11
32.173300
21
920.914000
0
LINE
8
0
10
32.173300
20
961.554000
11
35.560000
21
961.554000
0
LINE
8
0
10
35.560000
20
961.554000
11
35.560000
21
956.474000
0
LINE
8
0
10
35.560000
20
956.474000
11
40.640000
21
956.474000
0
LINE
8
0
10
40.640000
20
956.474000
11
40.640000
21
953.087000
0
LINE
8
0
10
40.640000
20
953.087000
11
35.560000
21
953.087000
0
LINE
8
0
10
35.560000
20
953.087000
11
35.560000
21
948.007000
0
LINE
8
0
10
35.560000
20
948.007000
11
32.173300
21
948.007000
0
LINE
8
0
10
32.173300
20
948.007000
11
32.173300
21
953.087000
0
LINE
8
0
10
32.173300
20
953.087000
11
27.093300
21
953.087000
0
LINE
8
0
10
27.093300
20
953.087000
11
27.093300
21
956.474000
0
LINE
8
0
10
27.093300
20
956.474000
11
32.173300
21
956.474000
0
LINE
8
0
10
32.173300
20
956.474000
11
32.173300
21
961.554000
0
LINE
8
0
10
32.173300
20
1002.190000
11
35.560000
21
1002.190000
0
LINE
8
0
10
35.560000
20
1002.190000
11
35.560000
21
997.114000
0
LINE
8
0
10
35.560000
20
997.114000
11
40.640000
21
997.114000
0
LINE
8
0
10
40.640000
20
997.114000
11
40.640000
21
993.727000
0
LINE
8
0
10
40.640000
20
993.727000
11
35.560000
21
993.727000
0
LINE
8
0
10
35.560000
20
993.727000
11
35.560000
21
988.647000
0
LINE
8
0
10
35.560000
20
988.647000
11
32.173300
21
988.647000
0
LINE
8
0
10
32.173300
20
988.647000
11
32.173300
21
993.727000
0
LINE
8
0
10
32.173300
20
993.727000
11
27.093300
21
993.727000
0
LINE
8
0
10
27.093300
20
993.727000
11
27.093300
21
997.114000
0
LINE
8
0
10
27.093300
20
997.114000
11
32.173300
21
997.114000
0
LINE
8
0
10
32.173300
20
997.114000
11
32.173300
21
1002.190000
0
LINE
8
0
10
27.093300
20
1037.750000
11
40.640000
21
1037.750000
0
LINE
8
0
10
40.640000
20
1037.750000
11
40.640000
21
1034.370000
0
LINE
8
0
10
40.640000
20
1034.370000
11
35.560000
21
1034.370000
0
LINE
8
0
10
35.560000
20
1034.370000
11
35.560000
21
1029.290000
0
LINE
8
0
10
35.560000
20
1029.290000
11
32.173300
21
1029.290000
0
LINE
8
0
10
32.173300
20
1029.290000
11
32.173300
21
1034.370000
0
LINE
8
0
10
32.173300
20
1034.370000
11
27.093300
21
1034.370000
0
LINE
8
0
10
27.093300
20
1034.370000
11
27.093300
21
1037.750000
 0 
ENDSEC
 0 
EOF